<svg width="83" height="43" viewBox="0 0 83 43" fill="none" xmlns="http://www.w3.org/2000/svg">
<path opacity="0.3" d="M36.0237 13.4114C35.2081 14.4854 34.7236 15.8178 34.7236 17.2713C34.7236 18.7249 35.2081 20.0573 36.0237 21.1313C36.623 20.6819 37.1094 20.0991 37.4443 19.4291C37.7793 18.7592 37.9537 18.0204 37.9537 17.2713C37.9537 16.5223 37.7793 15.7835 37.4443 15.1136C37.1094 14.4436 36.623 13.8608 36.0237 13.4114Z" fill="#A73333"/>
<path opacity="0.3" d="M42.7992 17.2712C42.7992 15.2363 43.744 13.4193 45.2217 12.2323C44.1154 11.344 42.7103 10.811 41.1841 10.811C39.6579 10.811 38.2528 11.344 37.1465 12.2323C38.6243 13.4193 39.5691 15.2282 39.5691 17.2712C39.5691 19.3143 38.6243 21.1231 37.1465 22.3102C38.2528 23.1985 39.6579 23.7314 41.1841 23.7314C42.7103 23.7314 44.1154 23.1985 45.2217 22.3102C43.744 21.1231 42.7992 19.3062 42.7992 17.2712Z" fill="#A73333"/>
<path opacity="0.3" d="M46.344 13.4114C45.7448 13.8608 45.2584 14.4436 44.9234 15.1136C44.5885 15.7835 44.4141 16.5223 44.4141 17.2713C44.4141 18.0204 44.5885 18.7592 44.9234 19.4291C45.2584 20.0991 45.7448 20.6819 46.344 21.1313C47.1596 20.0573 47.6442 18.7249 47.6442 17.2713C47.6442 15.8178 47.1596 14.4854 46.344 13.4114Z" fill="#A73333"/>
<path d="M41.1841 9.19604C36.7266 9.19604 33.1089 12.8138 33.1089 17.2713C33.1089 21.7288 36.7266 25.3465 41.1841 25.3465C45.6417 25.3465 49.2594 21.7288 49.2594 17.2713C49.2594 12.8138 45.6417 9.19604 41.1841 9.19604ZM36.024 21.1313C35.2084 20.0572 34.7239 18.7248 34.7239 17.2713C34.7239 15.8177 35.2084 14.4853 36.024 13.4113C36.6233 13.8608 37.1097 14.4435 37.4446 15.1135C37.7796 15.7835 37.954 16.5222 37.954 17.2713C37.954 18.0203 37.7796 18.7591 37.4446 19.4291C37.1097 20.099 36.6233 20.6818 36.024 21.1313ZM41.1841 23.7315C39.6579 23.7315 38.2528 23.1985 37.1465 22.3102C38.6243 21.1232 39.5691 19.3143 39.5691 17.2713C39.5691 15.2283 38.6243 13.4194 37.1465 12.2323C38.2528 11.3441 39.6579 10.8111 41.1841 10.8111C42.7103 10.8111 44.1154 11.3441 45.2217 12.2323C43.744 13.4194 42.7992 15.2283 42.7992 17.2713C42.7992 19.3143 43.744 21.1232 45.2217 22.3102C44.0778 23.2314 42.6528 23.7329 41.1841 23.7315ZM46.3442 21.1313C45.745 20.6818 45.2586 20.099 44.9236 19.4291C44.5886 18.7591 44.4142 18.0203 44.4142 17.2713C44.4142 16.5222 44.5886 15.7835 44.9236 15.1135C45.2586 14.4435 45.745 13.8608 46.3442 13.4113C47.1598 14.4853 47.6443 15.8177 47.6443 17.2713C47.6443 18.7248 47.1598 20.0572 46.3442 21.1313Z" fill="#A73333"/>
<g clip-path="url(#clip0_118_944)">
<mask id="mask0_118_944" style="mask-type:luminance" maskUnits="userSpaceOnUse" x="4" y="9" width="34" height="26">
<path d="M34.8826 32.9241C36.0716 32.686 36.8423 31.5292 36.6042 30.3403C36.3661 29.1513 35.2093 28.3806 34.0204 28.6187C32.8315 28.8568 32.0607 30.0136 32.2988 31.2025C32.5369 32.3914 33.6937 33.1622 34.8826 32.9241Z" fill="#555555" stroke="white" stroke-width="2.66667"/>
<path d="M13.1966 12.2121C13.1966 12.2121 22.1773 19.7951 32.2982 29.3373C19.1643 23.3839 9.13828 18.303 9.13828 18.303C9.13828 18.303 3.79746 15.1841 6.02905 11.8339C8.26064 8.48367 13.1966 12.2121 13.1966 12.2121Z" fill="#555555" stroke="white" stroke-width="2.66667" stroke-linejoin="round"/>
</mask>
<g mask="url(#mask0_118_944)">
<path d="M0 7.81689L34.4433 0.918805L41.3414 35.3621L6.89809 42.2602L0 7.81689Z" fill="black"/>
</g>
</g>
<g clip-path="url(#clip1_118_944)">
<mask id="mask1_118_944" style="mask-type:luminance" maskUnits="userSpaceOnUse" x="44" y="8" width="35" height="26">
<path d="M47.6427 32.3186C46.4538 32.0805 45.6831 30.9237 45.9212 29.7348C46.1593 28.5459 47.3161 27.7751 48.505 28.0132C49.6939 28.2513 50.4647 29.4081 50.2266 30.597C49.9885 31.786 48.8317 32.5567 47.6427 32.3186Z" fill="#555555" stroke="white" stroke-width="2.66667"/>
<path d="M69.3288 11.6066C69.3288 11.6066 60.3481 19.1896 50.2272 28.7319C63.3611 22.7785 73.3871 17.6976 73.3871 17.6976C73.3871 17.6976 78.7279 14.5787 76.4963 11.2284C74.2647 7.8782 69.3288 11.6066 69.3288 11.6066Z" fill="#555555" stroke="white" stroke-width="2.66667" stroke-linejoin="round"/>
</mask>
<g mask="url(#mask1_118_944)">
<path d="M82.5254 7.21143L48.0821 0.313337L41.184 34.7567L75.6273 41.6548L82.5254 7.21143Z" fill="black"/>
</g>
</g>
<defs>
<clipPath id="clip0_118_944">
<rect width="35.1273" height="35.1273" fill="white" transform="translate(0 7.81689) rotate(-11.325)"/>
</clipPath>
<clipPath id="clip1_118_944">
<rect width="35.1273" height="35.1273" fill="white" transform="matrix(-0.980529 -0.196374 -0.196374 0.980529 82.5254 7.21143)"/>
</clipPath>
</defs>
</svg>
