<svg width="375" height="553" viewBox="0 0 375 553" fill="none" xmlns="http://www.w3.org/2000/svg">
<path d="M83.9987 5.35461C43.752 15.4299 5.68921 48.0984 -14.2781 89.621C-20.2059 102.139 -27.3817 114.046 -29.8776 116.183C-32.3735 118.015 -54.8368 133.891 -79.796 150.989C-142.506 194.343 -172.457 211.746 -184.313 211.746C-199.912 211.746 -224.559 220.295 -237.039 229.76C-243.279 234.645 -252.95 239.835 -258.254 241.056C-273.542 244.109 -294.757 268.229 -316.596 307.92C-342.179 354.022 -348.731 361.35 -362.459 361.35C-369.947 361.35 -373.066 362.876 -373.066 365.929C-373.066 368.983 -376.186 370.509 -382.738 370.509C-388.978 370.509 -391.786 371.73 -391.162 374.173C-390.226 376.31 -393.97 380.279 -399.274 383.027C-404.265 385.775 -409.257 389.439 -409.881 391.27C-411.441 396.156 -397.402 401.041 -381.49 401.041C-369.635 401.041 -367.139 399.514 -345.611 377.226C-332.82 364.098 -313.164 338.757 -300.997 319.827C-289.141 301.203 -277.286 283.8 -274.166 281.663C-271.358 279.221 -269.798 278.915 -271.046 281.052C-272.294 282.884 -277.286 307.92 -282.277 336.619C-289.141 376.921 -293.197 391.881 -299.749 402.567C-307.861 416.611 -307.861 416.917 -305.677 457.218C-303.493 502.099 -301.621 496.909 -324.084 515.838C-328.452 519.197 -329.388 524.082 -328.764 535.989C-328.14 544.538 -326.268 552.171 -324.708 552.781C-322.836 553.392 -315.66 549.728 -308.485 544.538C-296.629 535.989 -294.757 532.631 -284.461 500.878C-278.222 482.254 -271.982 460.882 -270.11 453.86C-267.302 442.258 -264.806 440.121 -244.215 428.824C-232.047 422.107 -215.2 411.421 -206.776 405.315C-198.664 399.209 -192.112 395.545 -192.112 397.377C-192.112 401.346 -208.336 422.412 -219.879 432.793C-229.239 441.647 -229.551 442.868 -229.863 467.904C-230.175 502.71 -232.359 509.427 -242.655 508.816C-250.766 508.511 -256.382 516.144 -257.942 529.272C-259.814 546.37 -255.758 547.896 -234.543 537.821C-220.815 531.409 -220.503 531.104 -207.088 493.856L-193.984 456.302L-167.153 446.532C-121.915 430.045 -99.1394 414.78 -84.4758 390.965C-81.6679 386.691 -78.548 386.385 -58.2687 388.828C-32.0616 392.186 4.75323 389.133 43.128 379.974L67.4632 374.173L93.0464 385.775L118.318 397.377L119.254 389.744C120.189 382.722 121.437 382.416 131.109 383.943C140.157 385.775 141.717 385.164 141.717 379.974C141.717 374.478 143.277 374.173 158.564 375.7C173.54 377.226 175.412 376.615 176.972 370.814C178.22 365.929 181.027 364.403 188.203 364.403C198.811 364.403 199.435 365.319 194.443 379.363C191.323 388.217 190.075 388.828 176.348 388.828C162.62 388.828 161.372 389.744 153.26 401.651C144.837 414.169 142.341 429.435 147.333 437.067C149.517 440.121 152.948 439.51 163.868 434.93L177.596 428.824L179.156 436.457L180.716 444.395L189.451 437.678C202.243 427.603 214.098 408.979 230.01 373.562C243.113 343.947 244.673 341.504 255.905 337.841C262.145 335.703 267.761 334.177 268.385 334.482C268.697 335.093 266.825 347 263.705 361.35C258.713 386.691 258.089 387.301 247.793 390.66C239.058 393.408 236.25 396.461 233.13 405.926C228.762 420.581 228.138 433.709 231.882 436.152C233.442 437.067 239.994 434.625 246.233 431.267C255.905 425.466 258.089 425.16 260.585 428.824C266.201 437.067 274.624 420.581 294.28 364.403C304.575 333.872 313.311 307.004 313.311 304.562C313.311 298.761 307.383 287.159 302.703 284.411C300.832 283.19 296.152 281.968 292.72 281.968C282.424 281.968 279.304 270.977 285.232 256.017L288.352 247.773L298.024 255.711C308.943 264.565 317.055 265.787 322.671 259.07C324.855 256.627 329.847 254.49 334.214 254.49C347.942 254.49 366.349 242.888 371.653 230.676C375.709 221.211 376.021 217.242 372.901 205.64C366.349 182.436 365.413 152.516 369.781 125.648C377.893 75.8819 373.525 40.1603 357.926 23.6734L349.502 14.8193L346.07 26.1159L342.95 37.7178L333.902 26.7265C318.927 8.10242 295.216 -2.88885 298.648 10.2396C300.832 18.1777 298.96 17.8724 287.728 8.71301C276.496 -0.44635 269.633 -1.05701 269.633 7.18646C269.633 12.9874 269.009 13.2927 261.209 9.32367C256.217 6.88116 249.353 3.828 245.609 2.91205C239.37 1.0802 238.434 1.6908 238.434 8.40771C238.434 17.5671 237.186 17.8724 219.714 11.7662C212.227 9.32367 205.675 7.49176 205.051 8.40771C204.427 9.01837 205.363 13.2927 207.235 17.8724C210.979 27.9478 210.043 29.7797 201.619 27.3372C198.499 26.1159 193.195 19.7043 189.763 12.9874L184.147 0.164246L181.339 8.40771C178.22 17.8724 176.036 18.1777 155.132 10.2396C133.917 2.30145 103.654 0.164246 83.9987 5.35461ZM218.466 73.4394C224.706 78.9351 235.938 84.4307 244.985 86.5679C253.721 88.7051 260.273 92.0635 260.273 94.2007C260.273 117.099 229.698 118.32 206.299 96.3379C192.883 83.5148 185.395 63.0588 185.395 39.5497V23.9787L196.315 43.824C202.243 54.8153 212.227 67.9438 218.466 73.4394ZM-17.71 150.684C-24.5738 176.635 -25.8217 211.136 -20.5179 229.76C-17.398 241.667 -16.774 241.972 -10.2223 237.698C-3.35849 233.424 -3.35849 233.424 -3.35849 252.964C-3.35849 274.946 -1.17456 278.915 6.62518 272.198C16.6089 263.955 19.4168 263.344 17.8568 269.756C15.9849 276.778 18.7928 293.57 23.1606 300.287C25.3446 303.951 28.1525 302.73 39.0721 294.181C51.5517 284.411 52.1757 284.411 50.3038 291.433C45.9359 309.447 44.688 332.956 47.8078 340.588C50.9277 348.221 50.3038 349.137 42.504 351.274C37.8242 352.801 16.6089 353.717 -4.91843 353.717C-34.5575 353.717 -47.973 352.19 -61.0766 347.916C-88.8437 338.757 -120.043 321.659 -138.138 305.477C-147.186 297.234 -155.298 290.822 -155.922 291.433C-156.546 292.044 -158.417 299.371 -160.601 307.615C-170.897 349.137 -204.904 390.049 -247.959 413.558L-272.606 426.992L-282.277 449.891L-291.637 472.789V445.006C-291.949 420.275 -291.325 416.611 -284.149 407.147C-274.478 394.324 -271.982 386.08 -263.87 335.398C-252.014 263.65 -231.111 236.782 -178.697 227.317C-159.977 223.959 -119.731 200.45 -45.4771 149.462C-27.3817 137.25 -12.4062 127.175 -12.0942 127.48C-12.0942 127.785 -14.2781 138.166 -17.71 150.684ZM286.168 140.914C283.36 141.524 280.24 140.303 278.68 137.861C273.688 130.533 275.872 129.006 283.36 134.502C289.288 138.776 289.912 140.303 286.168 140.914ZM350.126 209.609C365.725 213.273 366.661 218.158 354.182 230.37C338.582 245.636 322.671 241.056 322.671 220.906L322.983 210.22L327.351 219.99C329.847 225.485 333.902 230.065 336.398 230.065C345.446 230.065 345.134 223.348 335.462 214.799C324.543 205.029 322.983 200.755 331.407 204.113C334.214 205.335 342.638 207.777 350.126 209.609ZM172.916 419.665C172.916 420.886 170.108 422.412 166.676 423.328C160.124 424.855 158.876 421.191 162.62 411.421C164.492 406.536 164.804 406.536 168.86 412.032C171.044 415.085 172.916 418.443 172.916 419.665ZM254.033 413.558C254.033 414.78 251.225 417.527 247.793 419.359C242.489 422.107 241.553 421.802 241.553 416.917C241.553 413.864 242.489 410.505 243.425 409.284C245.921 406.841 254.033 410.2 254.033 413.558Z" fill="black" fill-opacity="0.03"/>
</svg>
