<svg width="80" height="78" viewBox="0 0 80 78" fill="none" xmlns="http://www.w3.org/2000/svg">
<path fill-rule="evenodd" clip-rule="evenodd" d="M55.1201 4.11073C54.9601 4.11073 54.8001 4.11073 54.6401 4.11073C54.4801 4.11073 54.3201 4.11073 54.1601 4.11073C54.2063 3.55439 54.1531 3.01447 54.0001 2.49096C53.3623 2.41401 52.7223 2.3883 52.0801 2.41383C51.8735 2.45043 51.7135 2.39902 51.6001 2.25956C52.4401 2.08759 53.2934 2.06188 54.1601 2.18243C54.2401 2.25956 54.3201 2.3367 54.4001 2.41383C54.4798 2.92549 54.5065 3.4397 54.4801 3.95646C54.7359 3.91515 54.9492 3.96657 55.1201 4.11073Z" fill="#F9E322"/>
<path fill-rule="evenodd" clip-rule="evenodd" d="M51.6 2.25952C51.7134 2.39903 51.8734 2.45047 52.08 2.41385C50.9624 2.73886 49.8424 3.09895 48.72 3.49414C49.6009 2.93555 50.5609 2.52401 51.6 2.25952Z" fill="#F8C62E"/>
<path fill-rule="evenodd" clip-rule="evenodd" d="M52.0799 2.41384C52.7221 2.3883 53.3621 2.41403 53.9999 2.491C54.1529 3.01473 54.2061 3.55487 54.1599 4.11144C54.3199 4.11144 54.4799 4.11144 54.6399 4.11144C54.8567 4.63146 55.0701 5.14588 55.2799 5.65471C55.1759 5.70161 55.0692 5.75306 54.9599 5.80903C54.5519 5.58656 54.1253 5.4065 53.6799 5.26889C53.4682 5.14297 53.3617 4.96292 53.3599 4.72874C53.5013 4.11304 53.2881 3.67579 52.7199 3.41697C51.4257 3.373 50.1457 3.50161 48.8799 3.80278C48.7199 3.77706 48.5599 3.75135 48.3999 3.72562C48.5465 3.68265 48.653 3.60549 48.7199 3.49413C49.8423 3.09894 50.9623 2.73885 52.0799 2.41384Z" fill="#93100A"/>
<path fill-rule="evenodd" clip-rule="evenodd" d="M53.3599 4.72887C52.9363 5.13355 52.9363 5.54509 53.3599 5.96349C53.0247 5.92339 52.8115 5.74336 52.7199 5.42334C53.1169 4.83892 53.1169 4.27305 52.7199 3.72575C52.0799 3.62286 51.4399 3.62286 50.7999 3.72575C49.6988 4.04209 48.5788 4.14498 47.4399 4.0344C47.8108 3.72687 48.2374 3.54682 48.7199 3.49426C48.6531 3.60562 48.5465 3.68278 48.3999 3.72575C48.5599 3.75147 48.7199 3.77718 48.8799 3.80291C50.1457 3.50174 51.4257 3.37312 52.7199 3.41709C53.2881 3.67591 53.5014 4.11317 53.3599 4.72887Z" fill="#F9B62A"/>
<path fill-rule="evenodd" clip-rule="evenodd" d="M54.6399 4.11157C54.7999 4.11157 54.9599 4.11157 55.1199 4.11157C55.5516 4.90845 55.7116 5.78296 55.5999 6.73513C55.4932 6.47791 55.3866 6.22071 55.2799 5.9635C55.2799 5.86061 55.2799 5.75773 55.2799 5.65484C55.0701 5.14601 54.8567 4.63159 54.6399 4.11157Z" fill="#FAC52E"/>
<path fill-rule="evenodd" clip-rule="evenodd" d="M54.16 7.96978C54.5 8.3576 54.7667 8.79486 54.96 9.28156C57.5929 10.5331 59.9129 12.205 61.92 14.2972C62.6272 15.3626 63.2939 16.4429 63.92 17.538C63.5158 17.3887 63.4093 17.5174 63.6 17.9239C63.399 17.9882 63.2923 18.1168 63.28 18.3097C61.2417 14.6467 58.2017 12.0746 54.16 10.5933C52.6061 8.35123 50.4195 7.14234 47.6 6.96665C46.2144 7.91319 44.6678 8.27329 42.96 8.04694C42.3385 7.71545 41.6985 7.63828 41.04 7.81545C40.4443 7.77156 39.831 7.61723 39.2 7.35247C39.027 7.70234 38.787 7.72807 38.48 7.42963C38.5867 7.3782 38.6933 7.32674 38.8 7.27531C38.5945 7.16978 38.4078 7.1955 38.24 7.35247C38.1657 7.26074 38.139 7.15785 38.16 7.04382C39.2718 6.73675 40.3918 6.47953 41.52 6.27218C42.3581 6.3649 43.1848 6.51923 44 6.73516C45.1949 6.8214 46.1814 6.43558 46.96 5.57771C49.5253 5.47763 51.7653 6.24926 53.68 7.89261C53.8317 7.96712 53.9917 7.99285 54.16 7.96978Z" fill="#730703"/>
<path fill-rule="evenodd" clip-rule="evenodd" d="M38.16 7.0437C38.1391 7.15773 38.1658 7.26062 38.24 7.35236C38.4079 7.19539 38.5946 7.16966 38.8 7.27519C38.6933 7.32663 38.5868 7.37808 38.48 7.42952C38.7871 7.72796 39.0271 7.70223 39.2 7.35236C39.8311 7.61712 40.4444 7.77145 41.04 7.81534C40.3056 8.02554 39.5589 8.25704 38.8 8.50981C39.1069 9.33137 39.3202 10.1802 39.44 11.0562C38.1356 11.1161 36.8023 11.2447 35.44 11.442C34.3642 12.0793 33.1909 12.4394 31.92 12.5223C31.6125 12.8972 31.2392 13.1802 30.8 13.3711C30.6554 13.2617 30.6021 13.1074 30.64 12.9081C30.8965 12.9372 31.11 12.86 31.28 12.6766C31.0397 12.5866 30.8264 12.458 30.64 12.2908C30.7594 12.1 30.8127 11.8943 30.8 11.6735C30.9175 11.4871 30.9708 11.2813 30.96 11.0562C32.4568 11.143 33.8436 10.8086 35.12 10.0531C36.0228 10.0644 36.876 9.88434 37.68 9.51293C37.3962 9.40696 37.1295 9.27834 36.88 9.12712C35.85 9.00961 34.8367 8.82957 33.84 8.58697C32.6636 8.84553 31.4903 9.10275 30.32 9.35861C30.1287 9.30525 30.1287 9.22809 30.32 9.12712C31.297 8.90223 32.257 8.64501 33.2 8.35548C33.737 8.32233 34.2703 8.32233 34.8 8.35548C35.9597 8.00161 37.0797 7.56435 38.16 7.0437Z" fill="#7E0C04"/>
<path fill-rule="evenodd" clip-rule="evenodd" d="M54.16 10.5932C51.757 9.81554 49.3036 9.55832 46.8 9.8216C44.578 10.0045 42.498 10.6218 40.56 11.6735C40.086 11.6392 39.606 11.5877 39.12 11.5192C39.28 11.4163 39.44 11.3134 39.6 11.2105C39.5802 11.1169 39.5269 11.0655 39.44 11.0562C39.3202 10.1802 39.1069 9.33138 38.8 8.50982C39.5589 8.25705 40.3056 8.02556 41.04 7.81535C41.6986 7.63818 42.3386 7.71535 42.96 8.04684C44.6679 8.27319 46.2144 7.91309 47.6 6.96655C50.4196 7.14224 52.6061 8.35113 54.16 10.5932Z" fill="#E31B21"/>
<path fill-rule="evenodd" clip-rule="evenodd" d="M53.36 4.72876C53.3618 4.96294 53.4683 5.14299 53.68 5.2689C54.1254 5.40652 54.552 5.58657 54.96 5.80905C55.0693 5.75307 55.176 5.70162 55.28 5.65472C55.28 5.75761 55.28 5.86049 55.28 5.96338C55.2539 6.32709 55.2805 6.6872 55.36 7.04366C56.307 7.61606 57.2403 8.20766 58.16 8.81842C58.32 8.97275 58.48 9.12708 58.64 9.2814C57.8741 9.06769 57.1274 8.75904 56.4 8.35544C55.681 7.82856 54.9344 7.33985 54.16 6.88934C54.0323 6.64586 53.9523 6.38864 53.92 6.1177C53.7582 5.98859 53.5715 5.93714 53.36 5.96338C52.9363 5.54498 52.9363 5.13344 53.36 4.72876Z" fill="#D6241D"/>
<path fill-rule="evenodd" clip-rule="evenodd" d="M54.16 7.96963C53.9916 7.9927 53.8316 7.96698 53.68 7.89247C51.7652 6.24912 49.5252 5.47748 46.96 5.57756C46.1814 6.43544 45.1949 6.82125 44 6.73502C43.1848 6.51908 42.358 6.36475 41.52 6.27203C40.3918 6.47939 39.2718 6.7366 38.16 7.04367C37.0797 7.56432 35.9597 8.00158 34.8 8.35545C34.2702 8.3223 33.7369 8.3223 33.2 8.35545C32.2569 8.64498 31.2969 8.9022 30.32 9.12708C30.1286 9.22806 30.1286 9.30522 30.32 9.35857C31.4902 9.10271 32.6635 8.8455 33.84 8.58694C34.8366 8.82954 35.8499 9.00958 36.88 9.12708C37.1294 9.27831 37.3961 9.40692 37.68 9.5129C36.876 9.8843 36.0227 10.0644 35.12 10.053C33.8435 10.8086 32.4568 11.143 30.96 11.0562C30.9707 11.2813 30.9174 11.4871 30.8 11.6735C29.8057 12.5168 28.6325 12.9541 27.28 12.9853C26.551 13.4648 25.8043 13.902 25.04 14.297C24.9333 14.297 24.8267 14.297 24.72 14.297C25.6093 13.6234 26.5693 13.0318 27.6 12.5223C28.7331 12.5349 29.6931 12.149 30.48 11.3648C30.1723 11.2402 29.8523 11.163 29.52 11.1333C29.6525 10.9922 29.8125 10.8893 30 10.8247C31.0539 10.6376 32.1206 10.5347 33.2 10.516C33.7694 10.3266 34.3027 10.0693 34.8 9.74439C35.4465 9.71762 36.0865 9.64045 36.72 9.5129C35.8064 9.39682 34.9264 9.19104 34.08 8.89559C32.0608 9.42719 30.0075 9.71013 27.92 9.74439C30.1845 8.67927 32.5845 8.06196 35.12 7.89247C36.1161 7.56656 37.0761 7.15502 38 6.65785C39.1664 6.54867 40.2864 6.26574 41.36 5.80905C42.7766 6.31085 44.2166 6.38801 45.68 6.04054C46.0654 5.85524 46.3854 5.59803 46.64 5.26891C47.7144 5.1592 48.7811 5.21064 49.84 5.42324C50.7285 5.82597 51.635 6.18606 52.56 6.50352C53.0766 7.02802 53.6099 7.51673 54.16 7.96963Z" fill="#F6DF25"/>
<path fill-rule="evenodd" clip-rule="evenodd" d="M53.3601 5.96343C53.5716 5.9372 53.7583 5.98865 53.9201 6.11776C53.9524 6.3887 54.0324 6.64591 54.1601 6.88939C54.9345 7.33991 55.6811 7.82861 56.4001 8.3555C57.1275 8.7591 57.8742 9.06775 58.6401 9.28146C58.4801 9.12714 58.3201 8.97281 58.1601 8.81848C57.2404 8.20772 56.3071 7.61612 55.3601 7.04372C55.2806 6.68726 55.254 6.32715 55.2801 5.96343C55.3868 6.22065 55.4934 6.47785 55.6001 6.73507C55.5863 6.88876 55.6398 7.01736 55.7601 7.12088C57.8934 8.07626 59.4934 9.49093 60.5601 11.3649C60.1567 10.8472 59.6767 10.41 59.1201 10.0531C57.2766 9.19056 55.5166 8.21315 53.8401 7.12088C53.7491 6.70187 53.5891 6.31605 53.3601 5.96343Z" fill="#F78C31"/>
<path fill-rule="evenodd" clip-rule="evenodd" d="M46.7999 9.82153C46.7548 10.0187 46.6481 10.173 46.4799 10.2845C46.4662 10.4382 46.5196 10.5668 46.6399 10.6703C44.7828 10.8406 44.8362 11.0207 46.7999 11.2105C46.7873 11.4312 46.8406 11.637 46.9599 11.8278C46.5428 11.9541 46.1161 12.0312 45.6799 12.0593C46.1697 12.2315 46.6764 12.3601 47.1999 12.4451C47.3898 12.6834 47.4431 12.9407 47.3599 13.2167C46.9654 13.0197 46.5654 13.0197 46.1599 13.2167C46.6932 13.3711 47.2266 13.5254 47.7599 13.6797C47.8793 13.8705 47.9326 14.0762 47.9199 14.297C47.4932 14.297 47.0666 14.297 46.6399 14.297C43.7148 15.3438 41.7148 17.2985 40.6399 20.1614C40.3156 20.4874 39.969 20.6417 39.5999 20.6244C39.2886 20.707 39.1286 20.9127 39.1199 21.2417C38.9271 21.4945 38.7138 21.5459 38.4799 21.3961C38.4887 20.7362 38.702 20.1445 39.1199 19.6213C39.0666 19.5441 39.0132 19.467 38.9599 19.3898C38.6794 19.7764 38.4394 20.1878 38.2399 20.6244C38.0218 20.4094 37.8886 20.1523 37.8399 19.8528C38.0089 19.3724 38.2222 18.9094 38.4799 18.4638C38.3732 18.2581 38.2666 18.2581 38.1599 18.4638C38.0202 18.7591 37.8602 19.0421 37.6799 19.3126C37.5468 19.4188 37.4402 19.393 37.3599 19.2355C37.2764 19.0646 37.2231 18.8845 37.1999 18.6953C37.4126 18.2137 37.5458 17.7251 37.5999 17.2292C37.3599 17.5893 37.1199 17.9495 36.8799 18.3095C36.5964 18.1907 36.4364 17.985 36.3999 17.6922C36.6356 17.2431 36.7689 16.7801 36.7999 16.3033C36.5599 16.6633 36.3199 17.0235 36.0799 17.3836C35.4302 16.5408 35.3235 16.5923 35.7599 17.5379C35.419 17.6411 35.099 17.7439 34.7999 17.8465C33.5275 20.0391 32.8342 22.4054 32.7199 24.9456C32.4307 24.7267 32.3239 24.4181 32.3999 24.0196C32.5646 21.8973 33.1511 19.8911 34.1599 18.0009C35.7478 15.3888 37.8812 13.2797 40.5599 11.6735C42.4978 10.6217 44.5778 10.0044 46.7999 9.82153Z" fill="#ECE9E8"/>
<path fill-rule="evenodd" clip-rule="evenodd" d="M60.0801 14.9143C59.9108 15.0841 59.7774 15.2899 59.6801 15.5316C59.0364 14.8995 58.2632 14.488 57.3601 14.297C57.2494 14.3781 57.1694 14.4809 57.1201 14.6056C56.1278 14.6985 55.1411 14.5957 54.1601 14.297C54.1857 14.5592 54.1592 14.8164 54.0801 15.0686C53.4918 14.7566 52.8785 14.7052 52.2401 14.9143C52.4329 15.145 52.4329 15.3507 52.2401 15.5316C52.1089 15.2785 51.9756 15.0213 51.8401 14.76C51.6739 14.8748 51.5939 15.0291 51.6001 15.223C51.0544 15.0099 50.5211 14.8042 50.0001 14.6056C49.9515 14.2514 49.7915 14.1999 49.5201 14.4513C49.2137 14.4952 48.9472 14.4438 48.7201 14.297C49.5822 13.0706 49.4755 12.9677 48.4001 13.9883C48.0987 13.8043 48.0187 13.5471 48.1601 13.2167C48.4316 12.8773 48.6716 12.5172 48.8801 12.1364C48.7998 11.9788 48.6932 11.9531 48.5601 12.0592C48.3201 12.3936 48.0801 12.728 47.8401 13.0624C47.7068 12.8052 47.5734 12.548 47.4401 12.2907C47.7601 11.8792 48.0801 11.4677 48.4001 11.0561C48.3198 10.8986 48.2132 10.8728 48.0801 10.979C47.8593 11.2761 47.6193 11.559 47.3601 11.8278C47.0172 11.2514 47.0972 10.7369 47.6001 10.2845C52.5224 9.95529 56.7356 11.4728 60.2401 14.8371C60.2036 14.8987 60.1502 14.9244 60.0801 14.9143Z" fill="#EDECEC"/>
<path fill-rule="evenodd" clip-rule="evenodd" d="M39.4399 11.0562C39.5268 11.0654 39.5801 11.1168 39.5999 11.2105C39.4399 11.3134 39.2799 11.4162 39.1199 11.5191C39.6058 11.5877 40.0858 11.6391 40.5599 11.6735C37.8812 13.2797 35.7478 15.3889 34.1599 18.0009C33.9745 18.1484 33.7878 18.3027 33.5999 18.4638C33.2971 18.3564 33.0038 18.2277 32.7199 18.078C32.7732 18.0266 32.8267 17.9751 32.8799 17.9237C32.6041 17.8546 32.4974 17.7259 32.5599 17.5379C32.3999 17.6408 32.2399 17.7436 32.0799 17.8465C31.7385 17.6208 31.4185 17.518 31.1199 17.5379C31.4123 17.3169 31.679 17.0596 31.9199 16.7662C31.4369 16.1716 30.8769 15.6572 30.2399 15.223C30.2033 14.7665 30.0166 14.3807 29.6799 14.0655C30.1182 13.9072 30.4915 13.6757 30.7999 13.3711C31.2391 13.1801 31.6124 12.8972 31.9199 12.5223C33.1908 12.4394 34.3641 12.0793 35.4399 11.442C36.8022 11.2446 38.1355 11.116 39.4399 11.0562Z" fill="#D41C1D"/>
<path fill-rule="evenodd" clip-rule="evenodd" d="M47.6001 10.2847C47.0972 10.7371 47.0172 11.2515 47.3601 11.8279C47.6193 11.5592 47.8593 11.2762 48.0801 10.9791C48.2132 10.873 48.3197 10.8987 48.4001 11.0563C48.0801 11.4678 47.7601 11.8794 47.4401 12.2909C47.5733 12.5481 47.7068 12.8053 47.8401 13.0626C48.0801 12.7282 48.3201 12.3938 48.5601 12.0594C48.6932 11.9533 48.7997 11.979 48.8801 12.1366C48.6716 12.5174 48.4316 12.8775 48.1601 13.2169C48.0186 13.5472 48.0986 13.8044 48.4001 13.9885C49.4754 12.9679 49.5821 13.0708 48.7201 14.2972C48.0106 14.4969 47.3173 14.4969 46.6401 14.2972C47.0668 14.2972 47.4933 14.2972 47.9201 14.2972C47.9327 14.0764 47.8794 13.8706 47.7601 13.6799C47.2268 13.5255 46.6933 13.3712 46.1601 13.2169C46.5655 13.0199 46.9655 13.0199 47.3601 13.2169C47.4433 12.9408 47.39 12.6836 47.2001 12.4452C46.6765 12.3602 46.1698 12.2316 45.6801 12.0594C46.1162 12.0314 46.5429 11.9542 46.9601 11.8279C46.8407 11.6372 46.7874 11.4314 46.8001 11.2106C44.8364 11.0208 44.7829 10.8408 46.6401 10.6705C46.5197 10.567 46.4663 10.4384 46.4801 10.2847C46.8949 10.413 47.2684 10.413 47.6001 10.2847Z" fill="#EB3335"/>
<path fill-rule="evenodd" clip-rule="evenodd" d="M46.64 14.2971C47.3172 14.4969 48.0105 14.4969 48.72 14.2971C48.947 14.4439 49.2136 14.4954 49.52 14.4514C49.6334 14.591 49.7934 14.6424 50 14.6058C50.5209 14.8043 51.0542 15.01 51.6 15.2231C51.5414 15.4074 51.4081 15.5103 51.2 15.5317C48.0107 14.2081 45.2374 14.7739 42.88 17.2293C42.0974 18.3534 41.3774 19.5109 40.72 20.7017C38.3531 22.3664 35.8997 23.9097 33.36 25.3315C31.9241 25.3124 30.6974 25.7753 29.68 26.7204C28.5283 27.0072 27.6483 27.6503 27.04 28.6495C26.3008 30.1538 25.4208 31.5683 24.4 32.8935C23.6806 33.1838 22.9339 33.3897 22.16 33.5108C22.2331 33.5747 22.2865 33.6519 22.32 33.7423C20.9877 34.4126 21.0677 34.8241 22.56 34.9769C23.0606 35.0033 23.5141 34.8748 23.92 34.5911C24.64 33.7937 25.36 32.9965 26.08 32.199C26.7605 30.9368 27.5605 29.7536 28.48 28.6495C28.0405 30.4698 27.6672 32.3217 27.36 34.2053C27.1777 34.7627 26.911 35.2773 26.56 35.7486C26.727 37.023 26.7803 38.3092 26.72 39.6067C26.6667 39.8125 26.6133 40.0183 26.56 40.224C26.1584 40.318 25.8384 40.5238 25.6 40.8414C25.1765 42.9086 25.6832 43.1914 27.12 41.6902C27.7555 40.1597 28.2622 38.5907 28.64 36.9832C30.0576 36.3515 31.3376 35.5285 32.48 34.514C32.1413 35.468 31.5545 36.291 30.72 36.9832C30.7017 38.0757 30.595 39.156 30.4 40.224C30.1017 40.45 29.755 40.6043 29.36 40.687C29.1035 41.1259 29.0235 41.5889 29.12 42.076C29.2097 42.1565 29.3165 42.2079 29.44 42.2303C29.9957 42.0138 30.5289 41.7565 31.04 41.4587C31.4862 40.1663 31.9928 38.9059 32.56 37.6777C34.2921 37.2247 35.8654 36.4788 37.28 35.4399C37.6014 35.0235 37.9214 34.6121 38.24 34.2053C40.764 34.5232 43.244 34.3173 45.68 33.588C46.6196 34.0099 47.5797 34.37 48.56 34.6683C48.56 34.4626 48.56 34.2567 48.56 34.051C48.9333 34.051 49.3067 34.051 49.68 34.051C49.68 33.8966 49.68 33.7423 49.68 33.588C50.2726 33.6226 50.8593 33.6482 51.44 33.6652C51.306 33.5091 51.2528 33.329 51.28 33.125C51.7195 33.0767 52.1462 33.1281 52.56 33.2793C52.3876 33.6233 52.2809 33.9835 52.24 34.3596C50.4188 34.1357 49.6456 34.9073 49.92 36.6745C50.0097 36.7551 50.1164 36.8065 50.24 36.8289C50.6336 36.6594 51.0336 36.5051 51.44 36.3659C51.5277 36.9489 51.7944 37.0776 52.24 36.7517C53.32 35.3118 54.1732 33.7428 54.8 32.0447C55.1377 31.8211 55.511 31.6668 55.92 31.5817C56.0496 32.5312 55.9163 33.4571 55.52 34.3596C55.2 34.4626 54.88 34.5653 54.56 34.6683C54.1694 35.358 54.0894 36.0781 54.32 36.8289C54.6844 36.563 55.0844 36.3572 55.52 36.2115C55.6712 36.274 55.7779 36.377 55.84 36.5202C56 36.3659 56.16 36.2115 56.32 36.0572C57.0844 34.1024 57.7512 32.1217 58.32 30.1156C58.3077 29.2042 57.8276 28.8184 56.88 28.9582C56.7877 28.2839 56.9211 27.6666 57.28 27.1063C57.5147 27.6158 57.9147 27.9245 58.48 28.0322C59.2694 27.7074 60.0694 27.3729 60.88 27.0291C61.1278 26.8417 61.3144 26.6103 61.44 26.3346C61.3048 25.1934 61.2248 24.0359 61.2 22.8623C61.2537 21.444 61.3605 20.0293 61.52 18.6183C61.6451 17.3877 61.2451 16.3588 60.32 15.5317C60.2443 15.8834 60.0843 16.1921 59.84 16.4577C59.3853 15.6845 58.7187 15.1701 57.84 14.9144C57.715 15.104 57.635 15.3098 57.6 15.5317C57.2229 15.1318 56.7694 14.8746 56.24 14.7601C56.2819 14.9882 56.2286 15.1939 56.08 15.3774C55.6563 15.0443 55.1763 14.8386 54.64 14.7601C54.64 15.0173 54.64 15.2745 54.64 15.5317C54.06 15.4449 53.5 15.2906 52.96 15.0688C52.8913 15.4034 52.9713 15.7121 53.2 15.9947C52.6709 16.2524 52.3508 16.0981 52.24 15.5317C52.4328 15.3509 52.4328 15.1451 52.24 14.9144C52.8784 14.7053 53.4916 14.7567 54.08 15.0688C54.159 14.8166 54.1856 14.5594 54.16 14.2971C55.1409 14.5958 56.1277 14.6987 57.12 14.6058C57.1693 14.4811 57.2492 14.3782 57.36 14.2971C58.263 14.4881 59.0363 14.8997 59.68 15.5317C59.7772 15.29 59.9107 15.0842 60.08 14.9144C60.9632 15.3537 61.5497 16.0224 61.84 16.9207C61.9197 17.3786 61.9729 17.8415 62 18.3096C61.6336 20.735 61.6336 23.1529 62 25.563C61.958 26.293 61.7446 26.9618 61.36 27.5692C61.0096 27.7702 60.6896 28.0274 60.4 28.3409C60.2741 28.2264 60.1675 28.0978 60.08 27.9551C59.93 27.8483 59.8235 27.874 59.76 28.0322C59.3603 28.2061 58.9337 28.3091 58.48 28.3409C58.0918 28.3557 57.7451 28.2529 57.44 28.0322C57.3627 28.1785 57.3361 28.3328 57.36 28.4952C58.3596 28.6375 58.8396 29.2033 58.8 30.1928C58.427 31.4263 58.0537 32.6609 57.68 33.8966C57.3531 34.7106 57.0065 35.5336 56.64 36.3659C56.3251 36.9361 55.8717 37.0904 55.28 36.8289C54.8844 37.0991 54.4577 37.2278 54 37.2147C53.8725 36.6367 53.7924 36.045 53.76 35.4399C53.3683 36.075 52.915 36.6665 52.4 37.2147C52.0865 37.3584 51.7665 37.4869 51.44 37.6005C51.3363 37.346 51.1763 37.1403 50.96 36.9832C50.5998 37.1676 50.2264 37.3219 49.84 37.4462C49.2108 36.5454 49.2108 35.6452 49.84 34.7454C49.56 34.5419 49.24 34.4647 48.88 34.514C48.88 34.7712 48.88 35.0283 48.88 35.2856C47.7582 34.9373 46.6649 34.5257 45.6 34.051C44.9141 34.1713 44.2475 34.3513 43.6 34.5911C43.7465 34.634 43.8531 34.7112 43.92 34.8226C43.7606 34.8093 43.6273 34.8609 43.52 34.9769C42.9708 36.1691 42.6774 36.1176 42.64 34.8226C42.5363 34.6251 42.323 34.6251 42 34.8226C40.7701 34.7931 39.5435 34.7674 38.32 34.7454C37.9302 35.3748 37.4502 35.9149 36.88 36.3659C35.5966 37.0194 34.2633 37.5852 32.88 38.0635C32.3571 39.1655 31.9304 40.2972 31.6 41.4587C31.4947 41.5972 31.3881 41.7516 31.28 41.9216C28.7795 43.2657 28.0861 42.6484 29.2 40.0697C29.4041 39.893 29.6174 39.893 29.84 40.0697C29.9507 39.9887 30.0307 39.8858 30.08 39.7611C30.1099 38.7454 30.1899 37.7423 30.32 36.7517C29.8321 36.8718 29.3789 37.1032 28.96 37.4462C28.599 39.0309 28.0923 40.5742 27.44 42.076C25.6291 43.816 24.8558 43.4044 25.12 40.8414C25.2384 40.2898 25.5851 39.9811 26.16 39.9154C26.2894 39.6729 26.3429 39.4157 26.32 39.1438C26.2096 37.9099 26.1829 36.6753 26.24 35.4399C27.1267 33.9621 27.5533 32.3673 27.52 30.6558C26.5563 32.6133 25.143 34.1823 23.28 35.3627C22.2715 35.6029 21.4182 35.3714 20.72 34.6683C20.8705 34.3176 21.0838 34.009 21.36 33.7423C21.2656 33.5418 21.1056 33.4133 20.88 33.3565C21.3245 33.1417 21.8045 33.0645 22.32 33.125C22.32 32.9707 22.32 32.8164 22.32 32.662C23.0941 32.6798 23.8141 32.5254 24.48 32.199C25.3749 30.6261 26.3081 29.0829 27.28 27.5692C27.9013 26.9351 28.6478 26.4979 29.52 26.2575C30.2721 25.5346 31.1789 25.1488 32.24 25.1C32.1917 24.7051 32.2451 24.3449 32.4 24.0197C32.324 24.4182 32.4307 24.7268 32.72 24.9457C33.4049 24.8475 34.0449 24.616 34.64 24.2512C35.6025 23.7138 36.4558 23.0708 37.2 22.3221C37.5008 22.3639 37.7141 22.261 37.84 22.0135C38.0843 22.0247 38.2443 21.9218 38.32 21.7048C38.4541 21.652 38.5075 21.5493 38.48 21.3962C38.7139 21.546 38.9272 21.4946 39.12 21.2418C39.4019 21.1242 39.5619 20.9184 39.6 20.6245C39.9691 20.6418 40.3157 20.4875 40.64 20.1615C41.7148 17.2986 43.7148 15.3439 46.64 14.2971Z" fill="#B6B2B3"/>
<path fill-rule="evenodd" clip-rule="evenodd" d="M50 14.6057C49.7935 14.6423 49.6335 14.5909 49.52 14.4514C49.7914 14.2001 49.9514 14.2515 50 14.6057Z" fill="#DA3C3F"/>
<path fill-rule="evenodd" clip-rule="evenodd" d="M51.6001 15.223C51.5938 15.0291 51.6738 14.8748 51.8401 14.76C51.9756 15.0213 52.1089 15.2785 52.2401 15.5316C52.351 16.0981 52.671 16.2524 53.2001 15.9946C52.9714 15.712 52.8914 15.4034 52.9601 15.0687C53.5001 15.2905 54.0601 15.4448 54.6401 15.5316C54.6401 15.2744 54.6401 15.0172 54.6401 14.76C55.1764 14.8385 55.6564 15.0442 56.0801 15.3773C56.2287 15.1939 56.282 14.9881 56.2401 14.76C56.7695 14.8745 57.223 15.1318 57.6001 15.5316C57.6351 15.3097 57.7151 15.104 57.8401 14.9143C58.7188 15.17 59.3854 15.6844 59.8401 16.4576C60.0844 16.192 60.2444 15.8834 60.3201 15.5316C61.2452 16.3587 61.6452 17.3876 61.5201 18.6182C61.3606 20.0292 61.2538 21.4439 61.2001 22.8622C61.2249 24.0358 61.3049 25.1933 61.4401 26.3345C61.3145 26.6102 61.1279 26.8417 60.8801 27.029C60.0695 27.3728 59.2695 27.7073 58.4801 28.0321C57.9148 27.9244 57.5148 27.6158 57.2801 27.1062C56.9212 27.6665 56.7878 28.2838 56.8801 28.9581C57.8278 28.8183 58.3078 29.2041 58.3201 30.1155C57.7513 32.1216 57.0846 34.1023 56.3201 36.0571C56.1601 36.2115 56.0001 36.3658 55.8401 36.5201C55.778 36.3769 55.6713 36.274 55.5201 36.2115C55.0846 36.3571 54.6846 36.5629 54.3201 36.8288C54.0895 36.078 54.1695 35.3579 54.5601 34.6682C54.8801 34.5653 55.2001 34.4625 55.5201 34.3595C55.9164 33.457 56.0497 32.5311 55.9201 31.5816C55.5111 31.6667 55.1378 31.821 54.8001 32.0446C54.1734 33.7427 53.3201 35.3117 52.2401 36.7516C51.7945 37.0775 51.5278 36.9488 51.4401 36.3658C51.0337 36.505 50.6337 36.6593 50.2401 36.8288C50.1166 36.8064 50.0098 36.755 49.9201 36.6744C49.6457 34.9072 50.419 34.1356 52.2401 34.3595C52.281 33.9834 52.3878 33.6232 52.5601 33.2792C52.1463 33.128 51.7196 33.0766 51.2801 33.1249C51.2529 33.3289 51.3062 33.509 51.4401 33.6651C50.8594 33.6481 50.2727 33.6225 49.6801 33.5879C49.6801 33.7422 49.6801 33.8966 49.6801 34.0509C49.3068 34.0509 48.9334 34.0509 48.5601 34.0509C48.5601 34.2566 48.5601 34.4625 48.5601 34.6682C47.5798 34.3699 46.6198 34.0098 45.6801 33.5879C43.2441 34.3172 40.7641 34.5231 38.2401 34.2052C37.9215 34.612 37.6015 35.0235 37.2801 35.4398C35.8655 36.4788 34.2922 37.2246 32.5601 37.6776C31.9929 38.9059 31.4863 40.1662 31.0401 41.4586C30.529 41.7564 29.9958 42.0137 29.4401 42.2302C29.3166 42.2078 29.2098 42.1564 29.1201 42.0759C29.0236 41.5888 29.1036 41.1258 29.3601 40.6869C29.7551 40.6042 30.1018 40.4499 30.4001 40.224C30.5951 39.1559 30.7018 38.0756 30.7201 36.9831C31.5546 36.2909 32.1414 35.4679 32.4801 34.5139C31.3377 35.5284 30.0577 36.3514 28.6401 36.9831C28.2623 38.5906 27.7556 40.1596 27.1201 41.6901C25.6833 43.1914 25.1766 42.9085 25.6001 40.8413C25.8385 40.5237 26.1585 40.3179 26.5601 40.224C26.6134 40.0182 26.6668 39.8124 26.7201 39.6067C26.7804 38.3091 26.7271 37.0229 26.5601 35.7485C26.9111 35.2772 27.1778 34.7626 27.3601 34.2052C27.6673 32.3216 28.0406 30.4697 28.4801 28.6494C27.5606 29.7535 26.7606 30.9367 26.0801 32.199C25.3601 32.9964 24.6401 33.7936 23.9201 34.591C23.5142 34.8747 23.0607 35.0032 22.5601 34.9768C21.0678 34.8241 20.9878 34.4125 22.3201 33.7422C22.2866 33.6518 22.2332 33.5746 22.1601 33.5107C22.934 33.3896 23.6807 33.1837 24.4001 32.8934C25.4209 31.5682 26.3009 30.1537 27.0401 28.6494C27.6484 27.6502 28.5284 27.0071 29.6801 26.7204C30.6975 25.7753 31.9242 25.3123 33.3601 25.3314C35.8998 23.9096 38.3532 22.3663 40.7201 20.7016C41.3775 19.5108 42.0975 18.3534 42.8801 17.2292C45.2375 14.7739 48.0108 14.208 51.2001 15.5316C51.4082 15.5102 51.5415 15.4073 51.6001 15.223Z" fill="#262020"/>
<path fill-rule="evenodd" clip-rule="evenodd" d="M51.28 19.0813C51.2328 18.7364 51.2863 18.4277 51.44 18.1553C51.8743 19.8849 53.0208 20.8108 54.88 20.9332C55.9114 20.6437 56.3381 19.975 56.16 18.927C54.6624 18.603 53.5157 17.8056 52.72 16.5349C53.109 16.496 53.4824 16.5732 53.84 16.7664C53.9557 16.5096 53.9024 16.2523 53.68 15.9947C54.284 15.8946 54.8707 15.9975 55.44 16.3034C55.4933 16.252 55.5467 16.2005 55.6 16.1491C55.4176 15.9056 55.3376 15.6484 55.36 15.3774C55.8274 15.6671 56.2807 15.9758 56.72 16.3034C56.8181 16.075 56.8714 15.8693 56.88 15.6861C57.401 16.0274 57.9075 16.3875 58.4 16.7664C58.4533 16.5091 58.5067 16.252 58.56 15.9947C59.1016 16.5684 59.5816 17.1857 60 17.8467C60.0757 17.495 60.2357 17.1863 60.48 16.9207C60.6571 17.5979 60.7371 18.2924 60.72 19.0041C60.613 20.4216 60.453 21.8362 60.24 23.2481C60.2759 23.7659 60.3291 24.2803 60.4 24.7914C59.8842 24.8372 59.4042 24.7343 58.96 24.4827C58.4693 24.7866 58.256 25.2238 58.32 25.7945C58.3 26.1971 58.4067 26.5572 58.64 26.8748C58.4088 27.3589 58.1155 27.3845 57.76 26.952C57.556 26.6098 57.396 26.2496 57.28 25.8717C56.328 26.5459 55.9013 27.4719 56 28.6496C55.5122 28.0096 55.2455 27.2895 55.2 26.489C54.9199 26.7961 54.7599 27.1561 54.72 27.5693C54.5736 27.4415 54.4671 27.2872 54.4 27.1063C54.4794 25.2584 54.2127 25.1556 53.6 26.7976C53.1757 26.1751 53.0957 25.5064 53.36 24.7914C53.2533 24.5857 53.1467 24.5857 53.04 24.7914C52.8797 25.1016 52.7197 25.4102 52.56 25.7173C52.0885 25.1828 51.9819 24.5912 52.24 23.9426C50.4317 23.2558 50.4317 22.8444 52.24 22.708C52.5258 22.6777 52.7391 22.5492 52.88 22.3222C52.0448 21.3797 51.5114 20.2994 51.28 19.0813Z" fill="#E32029"/>
<path fill-rule="evenodd" clip-rule="evenodd" d="M51.2801 17.2292C51.1359 17.3511 51.0292 17.5054 50.9601 17.6922C50.6382 18.2914 50.4782 18.9343 50.4801 19.6212C50.5516 20.4372 50.7116 21.2344 50.9601 22.0133C50.3497 21.9797 49.8164 22.134 49.3601 22.4763C49.7868 23.1965 50.3734 23.7623 51.1201 24.1739C51.2299 24.8716 51.5231 25.4889 52.0001 26.0258C52.1068 26.5402 52.1068 27.0547 52.0001 27.5691C51.3788 28.1169 50.7123 28.6057 50.0001 29.0352C49.3772 29.5584 48.8438 30.1499 48.4001 30.81C48.4534 30.8613 48.5068 30.9129 48.5601 30.9643C49.79 30.2409 51.1233 30.0095 52.5601 30.2698C53.0542 30.3592 53.4809 30.565 53.8401 30.8871C52.4998 31.1218 51.2198 31.5334 50.0001 32.1217C50.9335 32.8573 50.8268 33.1145 49.6801 32.8934C49.3571 32.8239 49.0638 32.6954 48.8001 32.5075C48.8031 32.7556 48.8297 33.0128 48.8801 33.2792C48.4203 33.2602 48.0203 33.1059 47.6801 32.8162C47.6577 33.0872 47.7377 33.3443 47.9201 33.5878C46.871 33.3803 46.0975 32.763 45.6001 31.7359C45.5851 30.4951 45.5583 29.2605 45.5201 28.0321C45.0446 28.3108 44.5913 28.6194 44.1601 28.958C44.0201 28.7461 43.9401 28.5146 43.9201 28.2636C44.0447 27.7682 44.1247 27.2794 44.1601 26.7975C43.7334 27.1061 43.3068 27.4148 42.8801 27.7234C42.7167 26.9033 42.85 26.1317 43.2801 25.4085C43.2268 25.3571 43.1734 25.3056 43.1201 25.2542C42.7635 25.4204 42.39 25.5233 42.0001 25.5628C41.8972 23.6478 42.3239 21.8474 43.2801 20.1614C42.9387 20.1785 42.5654 20.1271 42.1601 20.0071C43.3265 18.2388 44.8732 16.8756 46.8001 15.9174C48.2239 15.5603 49.6105 15.6632 50.9601 16.2261C51.2367 16.5021 51.3435 16.8366 51.2801 17.2292Z" fill="#E72029"/>
<path fill-rule="evenodd" clip-rule="evenodd" d="M30.7999 11.6736C30.8125 11.8943 30.7592 12.1001 30.6399 12.2909C30.8263 12.4581 31.0396 12.5867 31.2799 12.6767C31.1098 12.8601 30.8964 12.9372 30.6399 12.9082C30.602 13.1074 30.6552 13.2618 30.7999 13.3712C30.4914 13.6758 30.1181 13.9073 29.6799 14.0657C30.0165 14.3808 30.2032 14.7667 30.2399 15.2231C30.8768 15.6573 31.4368 16.1717 31.9199 16.7664C31.6789 17.0597 31.4122 17.317 31.1199 17.538C30.344 18.0532 29.544 18.5418 28.7199 19.0041C27.9008 19.3288 27.1008 19.3032 26.3199 18.927C25.9554 19.1929 25.5554 19.3986 25.1199 19.5443C24.5637 20.1843 24.0037 20.8272 23.4399 21.4733C22.7418 21.9635 22.0485 22.4522 21.3599 22.9395C20.9439 22.8305 20.5706 22.9592 20.2399 23.3253C20.4245 23.4663 20.3978 23.5949 20.1599 23.7111C19.8306 23.6171 19.6973 23.4628 19.7599 23.2481C19.5444 23.2399 19.3311 23.2399 19.1199 23.2481C19.8146 22.2414 20.7213 21.444 21.8399 20.856C22.7194 20.1637 23.4128 19.3405 23.9199 18.3868C24.7344 18.0328 25.5612 17.6984 26.3999 17.3837C26.9757 17.6686 27.589 17.7457 28.2399 17.6152C28.6568 17.4929 28.9768 17.2615 29.1999 16.9207C29.5431 16.8563 29.6498 16.702 29.5199 16.4577C28.9906 16.3196 28.4573 16.1909 27.9199 16.0719C28.2623 15.9217 28.529 15.6902 28.7199 15.3774C28.0327 15.1983 27.3392 15.1726 26.6399 15.3003C24.5949 16.1278 22.5684 16.9508 20.5599 17.7695C20.8384 17.5195 21.1319 17.288 21.4399 17.075C21.5551 16.8263 21.5285 16.5948 21.3599 16.3806C22.2378 15.4939 23.3045 14.9281 24.5599 14.683C24.7906 14.6248 24.9506 14.4962 25.0399 14.2971C25.8042 13.9021 26.5509 13.4649 27.2799 12.9854C28.6324 12.9542 29.8056 12.5169 30.7999 11.6736Z" fill="#900D09"/>
<path fill-rule="evenodd" clip-rule="evenodd" d="M54.1599 10.5932C58.2016 12.0745 61.2416 14.6466 63.2799 18.3095C64.6772 21.1485 65.2104 24.1321 64.8799 27.2605C64.0672 32.5649 61.294 36.5774 56.5599 39.298C49.2684 42.6426 42.7084 41.6651 36.8799 36.3658C37.4501 35.9149 37.9301 35.3747 38.3199 34.7454C39.5434 34.7673 40.77 34.7931 41.9999 34.8225C41.5732 34.9255 41.1466 35.0282 40.7199 35.1312C41.2301 35.234 41.7636 35.3369 42.3199 35.4398C42.4202 35.5814 42.4736 35.7357 42.4799 35.9028C42.1599 36.0058 41.8399 36.1085 41.5199 36.2115C41.433 36.2207 41.3797 36.2721 41.3599 36.3658C41.8932 36.4687 42.4266 36.5715 42.9599 36.6745C43.0792 36.8652 43.1325 37.0711 43.1199 37.2918C42.732 37.2442 42.3588 37.2958 41.9999 37.4461C42.5255 37.5733 43.0588 37.6504 43.5999 37.6776C43.7066 37.8319 43.8132 37.9862 43.9199 38.1406C43.4837 38.1686 43.057 38.2458 42.6399 38.372C43.1655 38.4992 43.6988 38.5764 44.2399 38.6035C44.3999 38.7579 44.5599 38.9122 44.7199 39.0665C44.2837 39.0946 43.857 39.1718 43.4399 39.298C44.0194 39.4253 44.6061 39.5025 45.1999 39.5295C45.3599 39.6838 45.5199 39.8382 45.6799 39.9925C45.2532 40.0439 44.8266 40.0954 44.3999 40.1468C44.4532 40.1982 44.5066 40.2497 44.5599 40.3011C45.3956 40.3149 46.1956 40.4434 46.9599 40.687C47.1732 40.8927 47.3866 40.8927 47.5999 40.687C53.1797 40.9532 57.713 38.9985 61.1999 34.8225C61.5394 33.974 61.9661 33.1509 62.4799 32.3533C62.5954 32.4178 62.6754 32.5206 62.7199 32.662C65.05 28.0889 65.1565 23.4591 63.0399 18.7725C62.678 18.1244 62.278 17.507 61.8399 16.9206C61.5496 16.0224 60.9631 15.3536 60.0799 14.9144C60.15 14.9244 60.2034 14.8987 60.2399 14.8372C56.7354 11.4729 52.5221 9.95535 47.5999 10.2845C47.2682 10.4129 46.8948 10.4129 46.4799 10.2845C46.648 10.1731 46.7548 10.0187 46.7999 9.82156C49.3034 9.55828 51.7568 9.8155 54.1599 10.5932Z" fill="#E4DDDD"/>
<path fill-rule="evenodd" clip-rule="evenodd" d="M51.9199 15.9946C52.3269 17.0336 52.9669 17.9337 53.8399 18.6954C54.3828 19.0157 54.9695 19.1957 55.5999 19.2355C55.6632 19.6281 55.5565 19.9625 55.2799 20.2386C53.7708 20.4317 52.7308 19.84 52.1599 18.4639C51.9565 17.653 51.8765 16.83 51.9199 15.9946Z" fill="#F7F6F6"/>
<path fill-rule="evenodd" clip-rule="evenodd" d="M51.28 17.2292C51.3332 17.5378 51.3867 17.8463 51.44 18.1548C51.2862 18.4271 51.2328 18.7356 51.28 19.0804C51.1732 18.6176 51.0667 18.1548 50.96 17.692C51.0291 17.5054 51.1358 17.3511 51.28 17.2292Z" fill="#731F22"/>
<path fill-rule="evenodd" clip-rule="evenodd" d="M54.1599 7.96973C54.4186 8.05275 54.6854 8.10419 54.9599 8.12405C54.9217 8.42765 54.975 8.71057 55.1199 8.97285C62.0222 12.3692 65.9687 17.7963 66.9599 25.2543C66.9351 26.9941 66.5617 28.6403 65.8399 30.1928C65.7058 30.14 65.6524 30.0372 65.6799 29.8842C65.8903 29.175 66.0503 28.4549 66.1599 27.7236C66.8802 24.0217 66.1335 20.6265 63.9199 17.538C63.2938 16.4429 62.6271 15.3626 61.9199 14.2971C59.9129 12.2049 57.5929 10.533 54.9599 9.28151C54.7666 8.7948 54.4999 8.35755 54.1599 7.96973Z" fill="#F7E22A"/>
<path fill-rule="evenodd" clip-rule="evenodd" d="M24.72 14.2971C24.8267 14.2971 24.9333 14.2971 25.04 14.2971C24.9507 14.4962 24.7907 14.6248 24.56 14.6829C23.3047 14.9281 22.2379 15.4939 21.36 16.3805C21.5287 16.5947 21.5552 16.8262 21.44 17.075C21.132 17.288 20.8386 17.5195 20.56 17.7695C22.5685 16.9508 24.5951 16.1277 26.64 15.3002C27.3394 15.1725 28.0328 15.1982 28.72 15.3774C28.5291 15.6902 28.2624 15.9217 27.92 16.0719C28.4575 16.1909 28.9907 16.3196 29.52 16.4577C29.6499 16.702 29.5432 16.8563 29.2 16.9207C29.2138 16.767 29.1603 16.6384 29.04 16.5349C28.4463 16.5079 27.8595 16.4307 27.28 16.3034C27.5402 16.0733 27.8067 15.8419 28.08 15.6089C27.4285 15.5073 26.7885 15.5588 26.16 15.7632C22.9899 16.777 20.1632 18.346 17.68 20.4702C17.6267 20.4188 17.5733 20.3673 17.52 20.3159C18.4843 19.0771 19.6043 17.9968 20.88 17.075C20.3275 16.9239 20.2743 16.6924 20.72 16.3805C21.36 15.9176 22 15.4546 22.64 14.9916C23.3187 14.7118 24.012 14.4803 24.72 14.2971Z" fill="#F9CE2A"/>
<path fill-rule="evenodd" clip-rule="evenodd" d="M34.8 17.8467C35.2573 17.9495 35.7373 18.0524 36.24 18.1553C36.3163 18.3063 36.4229 18.4348 36.56 18.5412C36.1016 18.5694 35.675 18.6466 35.28 18.7726C35.1931 18.7819 35.1398 18.8333 35.12 18.927C35.6971 19.0796 36.2838 19.1311 36.88 19.0813C36.9645 19.2697 37.0712 19.4497 37.2 19.6214C36.7638 19.6495 36.3371 19.7267 35.92 19.8529C36.4533 19.9559 36.9867 20.0586 37.52 20.1616C37.6064 20.3542 37.7131 20.5343 37.84 20.7017C37.4038 20.7298 36.9771 20.807 36.56 20.9332C37.0829 21.0855 37.6163 21.1369 38.16 21.0875C38.1493 21.3127 38.2025 21.5184 38.32 21.7049C38.2443 21.9218 38.0843 22.0248 37.84 22.0135C37.5539 21.9695 37.2872 22.0209 37.04 22.1678C37.0598 22.2615 37.1131 22.3129 37.2 22.3222C36.4558 23.0708 35.6025 23.7139 34.64 24.2512C34.0449 24.6161 33.4049 24.8476 32.72 24.9457C32.8342 22.4055 33.5275 20.0392 34.8 17.8467Z" fill="#DCDADA"/>
<path fill-rule="evenodd" clip-rule="evenodd" d="M35.2801 18.7725C35.8134 18.8754 36.3468 18.9781 36.8801 19.0811C36.284 19.1309 35.6972 19.0794 35.1201 18.9268C35.14 18.8331 35.1932 18.7817 35.2801 18.7725Z" fill="#E18689"/>
<path fill-rule="evenodd" clip-rule="evenodd" d="M38.48 21.396C38.5076 21.5491 38.4541 21.6519 38.32 21.7047C38.2026 21.5182 38.1493 21.3125 38.16 21.0874C37.6164 21.1367 37.0829 21.0854 36.56 20.933C36.9772 20.8068 37.4039 20.7296 37.84 20.7015C37.7132 20.5341 37.6064 20.354 37.52 20.1614C36.9868 20.0585 36.4533 19.9557 35.92 19.8527C36.3372 19.7265 36.7639 19.6493 37.2 19.6213C37.0712 19.4495 36.9645 19.2695 36.88 19.0811C36.3468 18.9782 35.8133 18.8754 35.28 18.7725C35.6751 18.6464 36.1016 18.5692 36.56 18.541C36.4229 18.4346 36.3164 18.3061 36.24 18.1551C35.7373 18.0522 35.2573 17.9493 34.8 17.8465C35.0991 17.7439 35.4191 17.6411 35.76 17.5378C35.3236 16.5923 35.4303 16.5407 36.08 17.3835C36.32 17.0235 36.56 16.6633 36.8 16.3032C36.769 16.7801 36.6357 17.2431 36.4 17.6922C36.4365 17.9849 36.5965 18.1906 36.88 18.3095C37.12 17.9494 37.36 17.5892 37.6 17.2292C37.546 17.725 37.4127 18.2136 37.2 18.6953C37.2232 18.8845 37.2765 19.0646 37.36 19.2354C37.4404 19.393 37.5469 19.4188 37.68 19.3126C37.8604 19.0421 38.0204 18.759 38.16 18.4638C38.2668 18.2581 38.3733 18.2581 38.48 18.4638C38.2223 18.9093 38.009 19.3723 37.84 19.8527C37.8887 20.1523 38.022 20.4094 38.24 20.6244C38.4396 20.1878 38.6796 19.7764 38.96 19.3898C39.0133 19.4669 39.0668 19.5441 39.12 19.6213C38.7021 20.1444 38.4888 20.7361 38.48 21.396Z" fill="#EA3235"/>
<path fill-rule="evenodd" clip-rule="evenodd" d="M61.8401 16.9207C62.2781 17.5071 62.6781 18.1244 63.0401 18.7726C65.1567 23.4592 65.0501 28.089 62.7201 32.662C62.6756 32.5206 62.5956 32.4179 62.4801 32.3533C62.1713 32.5483 61.9045 32.8055 61.6801 33.125C61.6268 32.9964 61.5733 32.8677 61.5201 32.7392C61.7153 32.1577 62.0353 31.6431 62.4801 31.1959C62.0463 31.2109 61.753 31.4424 61.6001 31.8904C61.3621 31.6169 61.3089 31.3082 61.4401 30.9644C61.8341 30.6158 62.0476 30.2042 62.0801 29.7298C61.8133 30.0384 61.5468 30.3471 61.2801 30.6558C61.1551 30.4661 61.0751 30.2604 61.0401 30.0384C61.2242 29.5809 61.4909 29.1694 61.8401 28.8038C61.7597 28.6463 61.6532 28.6205 61.5201 28.7267C61.3239 28.979 61.1106 29.2105 60.8801 29.4211C60.7337 29.2934 60.6271 29.139 60.5601 28.9582C60.8713 28.5117 61.1378 28.0487 61.3601 27.5692C61.7447 26.9618 61.9581 26.2929 62.0001 25.563C61.6337 23.1528 61.6337 20.735 62.0001 18.3096C61.973 17.8415 61.9197 17.3785 61.8401 16.9207Z" fill="#EEECEC"/>
<path fill-rule="evenodd" clip-rule="evenodd" d="M57.8401 19.8528C58.1395 19.9082 58.3795 20.0625 58.5601 20.3158C58.6905 20.6434 58.8505 20.9521 59.0401 21.2417C59.1699 21.0164 59.3033 20.965 59.4401 21.0874C59.0487 22.0828 58.8087 23.1117 58.7201 24.1739C58.5107 23.7918 58.2174 23.4832 57.8401 23.248C58.1067 23.0177 58.2667 22.7348 58.3201 22.3992C57.982 21.7204 57.662 21.026 57.3601 20.3158C57.3868 20.2644 57.4134 20.2128 57.4401 20.1614C57.9902 20.7747 58.1236 20.672 57.8401 19.8528Z" fill="#2A1D1D"/>
<path fill-rule="evenodd" clip-rule="evenodd" d="M56.2401 20.4702C56.6596 20.8955 57.1129 21.3069 57.6001 21.7043C57.6988 21.8507 57.6722 21.9792 57.5201 22.09C57.1273 22.3416 56.7273 22.3672 56.3201 22.1671C56.2402 21.6037 56.2137 21.0382 56.2401 20.4702Z" fill="#292020"/>
<path fill-rule="evenodd" clip-rule="evenodd" d="M39.6001 20.6245C39.562 20.9183 39.402 21.1241 39.1201 21.2417C39.1288 20.9127 39.2888 20.7071 39.6001 20.6245Z" fill="#DF383D"/>
<path fill-rule="evenodd" clip-rule="evenodd" d="M41.36 21.2418C41.5001 21.2216 41.6069 21.273 41.68 21.3962C40.9752 23.1637 40.8685 24.9642 41.36 26.7976C41.6624 26.8289 41.9024 26.7261 42.08 26.4889C42.1102 27.2222 42.2168 27.9422 42.4 28.6495C42.7128 28.5025 42.9795 28.2966 43.2 28.0322C43.2176 28.7043 43.3509 29.3474 43.6 29.9613C43.7067 30.0642 43.8133 30.0642 43.92 29.9613C44.1669 29.6715 44.4601 29.44 44.8 29.2668C44.7264 30.3087 44.6997 31.3374 44.72 32.3534C40.7072 33.2321 37.2672 32.2548 34.4 29.4212C33.5945 32.7196 31.5678 35.0345 28.32 36.3659C28.0533 37.0346 27.7867 37.7034 27.52 38.3721C27.4133 37.4462 27.4133 36.5202 27.52 35.5942C27.9107 35.201 28.1773 34.738 28.32 34.2053C28.563 32.9762 28.7763 31.7416 28.96 30.5014C29.4763 27.6929 31.2096 26.1754 34.16 25.9488C36.6813 24.529 39.0813 22.9601 41.36 21.2418Z" fill="#F8F8F8"/>
<path fill-rule="evenodd" clip-rule="evenodd" d="M56.5599 21.2417C56.8015 21.4478 57.0682 21.6279 57.3599 21.7817C56.8117 21.9728 56.5452 21.7927 56.5599 21.2417Z" fill="#DFDEDE"/>
<path fill-rule="evenodd" clip-rule="evenodd" d="M31.1201 17.5378C31.4186 17.5179 31.7386 17.6207 32.0801 17.8465C32.2401 17.7435 32.4001 17.6408 32.5601 17.5378C32.4975 17.7258 32.6042 17.8545 32.8801 17.9236C32.8268 17.975 32.7733 18.0266 32.7201 18.078C33.0039 18.2277 33.2972 18.3564 33.6001 18.4638C33.7879 18.3027 33.9746 18.1483 34.1601 18.0008C33.1513 19.891 32.5647 21.8973 32.4001 24.0196C32.2452 24.3447 32.1917 24.7049 32.2401 25.0998C31.1789 25.1486 30.2722 25.5344 29.5201 26.2573C28.6479 26.4977 27.9013 26.9349 27.2801 27.5691C25.5197 26.9132 23.7865 26.1929 22.0801 25.4085C22.0188 25.4943 21.9388 25.5457 21.8401 25.5628C21.7127 24.7435 21.2861 24.1006 20.5601 23.6337C20.8989 23.4718 21.1655 23.2404 21.3601 22.9393C22.0487 22.4521 22.742 21.9633 23.4401 21.4732C24.0039 20.827 24.5639 20.1841 25.1201 19.5441C25.5556 19.3984 25.9556 19.1927 26.3201 18.9268C27.101 19.303 27.901 19.3286 28.7201 19.0039C29.5442 18.5416 30.3442 18.053 31.1201 17.5378Z" fill="#C21418"/>
<path fill-rule="evenodd" clip-rule="evenodd" d="M37.84 22.0135C37.7141 22.261 37.5008 22.3639 37.2 22.3221C37.1132 22.3128 37.0599 22.2615 37.04 22.1678C37.2872 22.0209 37.554 21.9695 37.84 22.0135Z" fill="#CF3036"/>
<path fill-rule="evenodd" clip-rule="evenodd" d="M63.92 17.538C66.1336 20.6265 66.8803 24.0217 66.16 27.7236C66.0306 27.574 65.8706 27.4455 65.68 27.3377C65.3853 27.3482 65.1186 27.3225 64.88 27.2606C65.2106 24.1322 64.6773 21.1486 63.28 18.3096C63.2923 18.1167 63.3991 17.9881 63.6 17.9238C63.4093 17.5173 63.5159 17.3886 63.92 17.538Z" fill="#800D07"/>
<path fill-rule="evenodd" clip-rule="evenodd" d="M40.56 22.4763C40.7337 22.4948 40.8404 22.5978 40.88 22.785C40.7984 23.2336 40.6916 23.671 40.56 24.0968C39.454 24.5045 38.334 24.8131 37.2 25.0227C38.3891 24.2454 39.5091 23.3966 40.56 22.4763Z" fill="#272424"/>
<path fill-rule="evenodd" clip-rule="evenodd" d="M29.2 16.9207C28.9769 17.2614 28.6569 17.4929 28.24 17.6151C27.5891 17.7457 26.9758 17.6685 26.4 17.3836C25.5613 17.6983 24.7345 18.0327 23.92 18.3868C23.4129 19.3405 22.7195 20.1637 21.84 20.856C20.7214 21.444 19.8147 22.2414 19.12 23.2481C18.408 23.8269 17.7147 24.4442 17.04 25.1C17.0667 25.1514 17.0933 25.2029 17.12 25.2543C18.1221 24.4405 19.1355 24.4405 20.16 25.2543C20.1921 25.7196 20.1389 26.1826 20 26.6433C19.4609 27.1891 18.9009 27.7036 18.32 28.1865C18.4483 27.4762 18.8483 26.9618 19.52 26.6433C19.6389 26.2165 19.7456 25.8051 19.84 25.4086C19.2382 25.0092 18.5717 24.8807 17.84 25.0228C17.3293 25.4383 16.796 25.8241 16.24 26.1803C16.0667 26.0468 16.0401 25.8925 16.16 25.7173C17.3366 24.5231 18.4833 23.3143 19.6 22.0906C20.64 21.2932 21.68 20.4959 22.72 19.6985C22.9664 19.0937 23.3131 18.5536 23.76 18.0781C24.5141 17.8945 25.2075 17.5858 25.84 17.1521C26.1067 17.0492 26.3733 17.0492 26.64 17.1521C26.9621 17.3461 27.3086 17.4748 27.68 17.538C28.2206 17.3924 28.7273 17.1867 29.2 16.9207Z" fill="#F8C32B"/>
<path fill-rule="evenodd" clip-rule="evenodd" d="M59.12 24.9456C59.6545 25.2541 60.2411 25.4083 60.88 25.4083C60.8313 26.3844 60.298 26.8214 59.28 26.7196C58.9766 26.4407 58.8966 26.1064 59.04 25.7169C59.2804 26.3893 59.6272 26.4664 60.08 25.9483C59.6145 25.7314 59.2945 25.3972 59.12 24.9456Z" fill="#EDEDED"/>
<path fill-rule="evenodd" clip-rule="evenodd" d="M27.2801 27.5693C26.3082 29.0829 25.375 30.6262 24.4801 32.1991C23.8142 32.5255 23.0942 32.6798 22.3201 32.6621C22.1321 32.6959 21.9721 32.6445 21.8401 32.5077C22.7852 31.3359 22.6785 30.2814 21.5201 29.344C21.2249 29.1699 20.9049 29.0928 20.5601 29.1125C20.5329 28.9085 20.5862 28.7284 20.7201 28.5724C20.5068 28.5724 20.2934 28.5724 20.0801 28.5724C21.282 27.8623 21.8686 26.8592 21.8401 25.563C21.9388 25.5459 22.0188 25.4945 22.0801 25.4087C23.7865 26.1931 25.5198 26.9134 27.2801 27.5693Z" fill="#B71115"/>
<path fill-rule="evenodd" clip-rule="evenodd" d="M33.04 28.6494C33.7256 31.4717 32.7123 33.6065 30 35.054C29.84 35.1569 29.68 35.1569 29.52 35.054C31.3021 33.2368 32.4755 31.102 33.04 28.6494Z" fill="#2A2726"/>
<path fill-rule="evenodd" clip-rule="evenodd" d="M35.4399 29.4212C35.4495 29.3374 35.5028 29.286 35.5999 29.2668C38.3847 30.6129 41.3182 31.0245 44.3999 30.5015C44.3999 31.0674 44.3999 31.6331 44.3999 32.1991C40.954 32.5921 37.9675 31.6662 35.4399 29.4212Z" fill="#252121"/>
<path fill-rule="evenodd" clip-rule="evenodd" d="M59.76 28.0322C59.8445 28.2207 59.9512 28.4006 60.08 28.5724C58.2114 28.7546 58.2647 28.909 60.24 29.0354C60.3467 29.2411 60.4533 29.4469 60.56 29.6527C60.0715 29.6803 59.5915 29.7574 59.12 29.8841C59.6533 29.9871 60.1867 30.0899 60.72 30.1928C60.8495 30.4353 60.9029 30.6925 60.88 30.9644C60.3711 30.9271 59.8911 30.9271 59.44 30.9644C59.524 31.0712 59.6307 31.1484 59.76 31.1959C60.1834 31.2726 60.6101 31.2984 61.04 31.2731C61.0933 31.5817 61.1467 31.8904 61.2 32.1991C59.1063 32.1878 59.1063 32.3421 61.2 32.662C61.3357 32.9566 61.3891 33.2653 61.36 33.588C60.8117 33.5145 60.2784 33.5145 59.76 33.588C60.2226 33.7698 60.7026 33.8727 61.2 33.8966C61.2 34.1024 61.2 34.3082 61.2 34.514C60.0747 34.5135 58.9547 34.4363 57.84 34.2825C57.7197 34.1789 57.6663 34.0504 57.68 33.8966C58.0538 32.661 58.4271 31.4263 58.8 30.1928C58.8397 29.2033 58.3597 28.6375 57.36 28.4952C57.3362 28.3329 57.3627 28.1785 57.44 28.0322C57.7451 28.2529 58.0919 28.3557 58.48 28.3409C58.9338 28.3091 59.3603 28.2062 59.76 28.0322Z" fill="#EAE4E4"/>
<path fill-rule="evenodd" clip-rule="evenodd" d="M61.3599 27.5691C61.1377 28.0486 60.8711 28.5116 60.5599 28.958C60.6269 29.1389 60.7335 29.2932 60.8799 29.421C61.1105 29.2104 61.3237 28.9789 61.5199 28.7265C61.653 28.6204 61.7596 28.6461 61.8399 28.8037C61.4908 29.1693 61.2241 29.5807 61.0399 30.0383C61.0749 30.2602 61.1549 30.466 61.2799 30.6556C61.5466 30.347 61.8132 30.0383 62.0799 29.7297C62.0474 30.2041 61.834 30.6157 61.4399 30.9643C61.3087 31.3081 61.362 31.6168 61.5999 31.8902C61.7529 31.4422 62.0461 31.2107 62.4799 31.1958C62.0351 31.643 61.7151 32.1575 61.5199 32.739C61.5732 32.8676 61.6266 32.9963 61.6799 33.1249C61.9044 32.8054 62.1711 32.5481 62.4799 32.3532C61.9661 33.1508 61.5394 33.974 61.1999 34.8225C61.1999 34.7195 61.1999 34.6167 61.1999 34.5138C61.1999 34.3081 61.1999 34.1022 61.1999 33.8965C60.7025 33.8726 60.2225 33.7696 59.7599 33.5878C60.2783 33.5144 60.8116 33.5144 61.3599 33.5878C61.389 33.2651 61.3356 32.9565 61.1999 32.6619C59.1061 32.342 59.1061 32.1876 61.1999 32.1989C61.1466 31.8902 61.0932 31.5816 61.0399 31.2729C60.61 31.2982 60.1833 31.2725 59.7599 31.1958C59.6306 31.1482 59.5239 31.0711 59.4399 30.9643C59.8909 30.9269 60.3709 30.9269 60.8799 30.9643C60.9028 30.6924 60.8493 30.4351 60.7199 30.1927C60.1866 30.0897 59.6532 29.9869 59.1199 29.884C59.5914 29.7573 60.0714 29.6801 60.5599 29.6525C60.4532 29.4468 60.3466 29.2409 60.2399 29.0352C58.2645 28.9088 58.2113 28.7545 60.0799 28.5722C59.9511 28.4005 59.8444 28.2205 59.7599 28.0321C59.8234 27.8739 59.93 27.8481 60.0799 27.9549C60.1674 28.0977 60.274 28.2262 60.3999 28.3407C60.6895 28.0273 61.0095 27.77 61.3599 27.5691Z" fill="#EB2A2F"/>
<path fill-rule="evenodd" clip-rule="evenodd" d="M18.32 28.1865C18.3459 28.4993 18.3192 28.808 18.24 29.1125C17.2976 30.3122 16.7109 31.6498 16.48 33.125C16.8387 32.2246 17.4254 31.5044 18.24 30.9644C18.5162 31.1305 18.8094 31.1562 19.12 31.0416C19.6086 30.4994 20.1952 30.3707 20.88 30.6558C20.9051 30.8676 20.8784 31.0735 20.8 31.2731C19.7926 32.1887 19.3126 33.3204 19.36 34.6683C18.0547 36.7233 16.9614 38.8838 16.08 41.15C15.9733 41.2014 15.8667 41.2529 15.76 41.3043C16.5947 38.9737 17.6882 36.7617 19.04 34.6683C19.0046 33.4469 19.4312 32.418 20.32 31.5817C20.4814 31.3464 20.5614 31.0891 20.56 30.8101C19.776 31.207 18.9226 31.4385 18 31.5046C17.109 32.4763 16.4424 33.5824 16 34.8226C15.8744 33.8736 15.9811 32.9477 16.32 32.0447C16.9096 30.7014 17.5763 29.4154 18.32 28.1865Z" fill="#F8B52E"/>
<path fill-rule="evenodd" clip-rule="evenodd" d="M57.6801 33.8965C57.6664 34.0502 57.7198 34.1787 57.8401 34.2823C58.9548 34.4362 60.0748 34.5133 61.2001 34.5138C61.2001 34.6167 61.2001 34.7195 61.2001 34.8224C57.7132 38.9984 53.18 40.9531 47.6001 40.6869C47.3868 40.8926 47.1734 40.8926 46.9601 40.6869C46.8035 40.433 46.5902 40.2271 46.3201 40.0696C46.4664 39.7356 46.6531 39.4269 46.8801 39.1436C47 38.9684 46.9734 38.8141 46.8001 38.6806C46.5196 39.0672 46.2796 39.4786 46.0801 39.9152C45.8105 39.6811 45.5705 39.4239 45.3601 39.1436C45.5734 38.732 45.7868 38.3206 46.0001 37.909C45.9468 37.8576 45.8934 37.806 45.8401 37.7547C45.5596 38.1412 45.3196 38.5527 45.1201 38.9893C44.6518 38.747 44.4918 38.3868 44.6401 37.909C44.8672 37.6256 45.0539 37.317 45.2001 36.983C45.1198 36.8255 45.0132 36.7997 44.8801 36.9059C44.6868 37.2531 44.4736 37.5875 44.2401 37.909C43.9288 37.6707 43.8488 37.3621 44.0001 36.983C44.1464 36.6491 44.3331 36.3404 44.5601 36.0571C44.4798 35.8995 44.3732 35.8737 44.2401 35.9799C44.0468 36.3271 43.8336 36.6616 43.6001 36.983C43.3643 36.8386 43.2043 36.6327 43.1201 36.3657C43.391 35.8432 43.6577 35.3286 43.9201 34.8224C43.8532 34.711 43.7467 34.6339 43.6001 34.591C44.2476 34.3511 44.9142 34.1712 45.6001 34.0508C46.6651 34.5255 47.7584 34.9371 48.8801 35.2854C48.8801 35.0282 48.8801 34.7711 48.8801 34.5138C49.2401 34.4646 49.5601 34.5417 49.8401 34.7453C49.211 35.645 49.211 36.5452 49.8401 37.446C50.2265 37.3218 50.6 37.1674 50.9601 36.983C51.1764 37.1401 51.3364 37.3458 51.4401 37.6003C51.7667 37.4867 52.0867 37.3582 52.4001 37.2145C52.9152 36.6663 53.3684 36.0748 53.7601 35.4398C53.7926 36.0449 53.8726 36.6366 54.0001 37.2145C54.4579 37.2276 54.8846 37.0989 55.2801 36.8287C55.8718 37.0903 56.3252 36.936 56.6401 36.3657C57.0067 35.5334 57.3532 34.7104 57.6801 33.8965Z" fill="#DAD9D9"/>
<path fill-rule="evenodd" clip-rule="evenodd" d="M21.3601 22.9393C21.1655 23.2404 20.899 23.4719 20.5601 23.6338C21.2862 24.1006 21.7127 24.7436 21.8401 25.5629C21.8686 26.8591 21.282 27.8622 20.0801 28.5723C20.2934 28.5723 20.5068 28.5723 20.7201 28.5723C20.5862 28.7283 20.5329 28.9084 20.5601 29.1124C20.9049 29.0926 21.2249 29.1698 21.5201 29.3439C22.6785 30.2813 22.7852 31.3358 21.8401 32.5076C21.9721 32.6443 22.1321 32.6957 22.3201 32.6619C22.3201 32.8162 22.3201 32.9706 22.3201 33.1249C21.8046 33.0644 21.3246 33.1416 20.8801 33.3564C21.1057 33.4132 21.2657 33.5417 21.3601 33.7422C21.0839 34.0089 20.8706 34.3175 20.7201 34.6682C21.4183 35.3713 22.2716 35.6028 23.2801 35.3626C25.1431 34.1822 26.5564 32.6132 27.5201 30.6557C27.5534 32.3672 27.1268 33.962 26.2401 35.4398C26.183 36.6752 26.2097 37.9098 26.3201 39.1436C26.1118 38.9419 25.8985 38.9419 25.6801 39.1436C25.481 38.8004 25.1078 38.5433 24.5601 38.372C24.4534 38.4234 24.3468 38.4749 24.2401 38.5263C24.041 38.1831 23.6678 37.926 23.1201 37.7547C23.0134 37.8061 22.9068 37.8576 22.8001 37.909C22.601 37.5658 22.2278 37.3087 21.6801 37.1374C21.5734 37.1888 21.4668 37.2403 21.3601 37.2917C21.0934 37.086 20.8268 36.8801 20.5601 36.6744C20.3649 36.8613 20.1782 36.8613 20.0001 36.6744C19.3855 37.5507 18.8522 38.4766 18.4001 39.4523C18.0466 40.4139 17.6466 41.3399 17.2001 42.2302C17.1276 42.0823 17.021 41.9536 16.8801 41.8444C17.0401 41.793 17.2001 41.7414 17.3601 41.69C17.0639 41.5609 16.7706 41.4322 16.4801 41.3042C16.346 41.5356 16.2127 41.587 16.0801 41.4586C16.0801 41.3556 16.0801 41.2528 16.0801 41.1499C16.9615 38.8838 18.0548 36.7232 19.3601 34.6682C19.3127 33.3203 19.7927 32.1886 20.8001 31.273C20.8785 31.0734 20.9052 30.8676 20.8801 30.6557C20.1953 30.3706 19.6087 30.4993 19.1201 31.0415C18.8095 31.1561 18.5162 31.1304 18.2401 30.9643C17.4255 31.5043 16.8388 32.2246 16.4801 33.1249C16.711 31.6497 17.2977 30.3121 18.2401 29.1124C18.3193 28.8079 18.346 28.4993 18.3201 28.1864C18.901 27.7035 19.461 27.189 20.0001 26.6432C20.139 26.1825 20.1922 25.7195 20.1601 25.2542C19.1356 24.4405 18.1222 24.4405 17.1201 25.2542C17.0934 25.2028 17.0668 25.1513 17.0401 25.0999C17.7148 24.4442 18.4081 23.8269 19.1201 23.248C19.3313 23.2398 19.5446 23.2398 19.7601 23.248C19.6975 23.4626 19.8308 23.617 20.1601 23.711C20.398 23.5947 20.4247 23.4662 20.2401 23.3251C20.5708 22.9591 20.9441 22.8304 21.3601 22.9393Z" fill="#AC1213"/>
<path fill-rule="evenodd" clip-rule="evenodd" d="M65.68 29.884C65.6525 30.0371 65.7059 30.1399 65.84 30.1927C64.7342 33.3274 62.921 36.0281 60.4 38.2949C59.6528 38.9626 58.8528 39.5542 58 40.0696C58 39.9153 58 39.761 58 39.6066C61.6059 37.1223 64.1659 33.8814 65.68 29.884Z" fill="#F7C925"/>
<path fill-rule="evenodd" clip-rule="evenodd" d="M42.64 34.8227C42.0291 35.0566 41.3891 35.1597 40.72 35.1319C41.1467 35.0288 41.5733 34.9258 42 34.8227C42.323 34.6248 42.5363 34.6248 42.64 34.8227Z" fill="#D85E61"/>
<path fill-rule="evenodd" clip-rule="evenodd" d="M50.6399 35.2856C50.921 35.4078 51.1345 35.6135 51.2799 35.9028C51.0897 36.0462 50.8764 36.0976 50.6399 36.0571C50.6399 35.7999 50.6399 35.5429 50.6399 35.2856Z" fill="#D4D3D3"/>
<path fill-rule="evenodd" clip-rule="evenodd" d="M54.8001 35.2856C55.4208 35.4918 55.4208 35.7489 54.8001 36.0571C54.7118 35.8252 54.7118 35.5682 54.8001 35.2856Z" fill="#DFDFDF"/>
<path fill-rule="evenodd" clip-rule="evenodd" d="M42.48 35.9028C42.5669 35.9121 42.6202 35.9635 42.64 36.0571C42.2811 36.2074 41.9079 36.259 41.52 36.2114C41.84 36.1085 42.16 36.0057 42.48 35.9028Z" fill="#DA8287"/>
<path fill-rule="evenodd" clip-rule="evenodd" d="M42.64 34.8226C42.6774 36.1176 42.9709 36.1691 43.52 34.9769C43.6273 34.8609 43.7606 34.8093 43.92 34.8226C43.6576 35.3288 43.3909 35.8433 43.12 36.3659C43.2041 36.6329 43.3641 36.8387 43.6 36.9832C43.8334 36.6617 44.0467 36.3273 44.24 35.98C44.3731 35.8739 44.4797 35.8996 44.56 36.0572C44.3329 36.3406 44.1462 36.6492 44 36.9832C43.8486 37.3622 43.9286 37.6709 44.24 37.9091C44.4734 37.5877 44.6867 37.2532 44.88 36.906C45.0131 36.7998 45.1197 36.8256 45.2 36.9832C45.0537 37.3171 44.867 37.6258 44.64 37.9091C44.4917 38.3869 44.6517 38.7471 45.12 38.9894C45.3195 38.5528 45.5595 38.1414 45.84 37.7548C45.8933 37.8062 45.9467 37.8577 46 37.9091C45.7867 38.3207 45.5733 38.7322 45.36 39.1438C45.5704 39.424 45.8104 39.6813 46.08 39.9154C46.2795 39.4788 46.5195 39.0674 46.8 38.6808C46.9733 38.8143 46.9998 38.9686 46.88 39.1438C46.6529 39.4271 46.4662 39.7357 46.32 40.0697C46.5901 40.2273 46.8033 40.4332 46.96 40.687C46.1957 40.4435 45.3957 40.3149 44.56 40.3012C44.5067 40.2498 44.4533 40.1983 44.4 40.1469C44.8267 40.0955 45.2533 40.0439 45.68 39.9925C45.52 39.8382 45.36 39.6839 45.2 39.5296C44.6062 39.5026 44.0195 39.4254 43.44 39.2981C43.8571 39.1718 44.2838 39.0947 44.72 39.0666C44.56 38.9123 44.4 38.7579 44.24 38.6036C43.6989 38.5764 43.1656 38.4993 42.64 38.3721C43.0571 38.2459 43.4838 38.1687 43.92 38.1406C43.8133 37.9863 43.7067 37.832 43.6 37.6776C43.0589 37.6505 42.5256 37.5733 42 37.4462C42.3589 37.2958 42.7321 37.2443 43.12 37.2918C43.1326 37.0711 43.0793 36.8653 42.96 36.6745C42.4267 36.5716 41.8933 36.4688 41.36 36.3659C41.3798 36.2722 41.4331 36.2208 41.52 36.2115C41.9078 36.2591 42.2811 36.2075 42.64 36.0572C42.6201 35.9635 42.5669 35.9121 42.48 35.9029C42.4737 35.7357 42.4203 35.5814 42.32 35.4399C41.7637 35.337 41.2302 35.234 40.72 35.1312C41.3891 35.159 42.0291 35.0561 42.64 34.8226Z" fill="#D92A2E"/>
<path fill-rule="evenodd" clip-rule="evenodd" d="M64.8801 27.2605C65.1186 27.3224 65.3853 27.3482 65.6801 27.3377C65.8706 27.4454 66.0306 27.5739 66.1601 27.7235C66.0505 28.4548 65.8905 29.1749 65.6801 29.8841C64.166 33.8814 61.606 37.1223 58.0001 39.6067C58.0239 39.4443 57.9973 39.29 57.9201 39.1437C57.5001 39.1596 57.0466 39.211 56.5601 39.298C61.2941 36.5774 64.0674 32.5649 64.8801 27.2605Z" fill="#95130E"/>
<path fill-rule="evenodd" clip-rule="evenodd" d="M36.8799 36.3657C42.7084 41.665 49.2684 42.6425 56.5599 39.2979C57.0464 39.2109 57.4999 39.1595 57.9199 39.1436C57.9972 39.2899 58.0237 39.4442 57.9999 39.6066C56.7968 40.4187 55.5168 41.1131 54.1599 41.69C53.7148 42.4278 53.0748 42.9422 52.2399 43.2333C49.3463 43.9557 46.413 44.4443 43.4399 44.6994C41.0892 45.1065 38.7424 45.5439 36.3999 46.0112C35.3 46.2505 34.2333 46.5849 33.1999 47.0143C33.0085 46.9609 33.0085 46.8837 33.1999 46.7828C33.7074 46.5124 34.1874 46.2038 34.6399 45.8568C35.2799 45.7025 35.9199 45.5482 36.5599 45.3938C36.8631 44.9608 37.2364 44.6006 37.6799 44.3136C37.5002 44.1524 37.2869 44.0497 37.0399 44.0049C35.9824 44.0109 34.9159 44.0109 33.8399 44.0049C32.6367 44.5244 31.3834 44.8586 30.0799 45.008C29.616 44.7162 29.1093 44.639 28.5599 44.7765C28.0906 44.9727 27.664 45.23 27.2799 45.5482C26.9701 45.6736 26.6501 45.7508 26.3199 45.7797C25.9151 45.3031 25.4351 45.0458 24.8799 45.008C26.1034 44.5196 27.2767 43.9279 28.3999 43.2333C29.0202 43.1208 29.6336 43.1465 30.2399 43.3104C31.2018 43.2498 32.1351 43.0698 33.0399 42.7703C33.3429 42.6004 33.4496 42.3947 33.3599 42.153C33.192 42.0771 33.032 42.1027 32.8799 42.2301C32.3271 42.0053 31.9005 41.748 31.5999 41.4585C31.9303 40.297 32.357 39.1654 32.8799 38.0633C34.2632 37.5851 35.5965 37.0193 36.8799 36.3657Z" fill="#AE1113"/>
<path fill-rule="evenodd" clip-rule="evenodd" d="M26.32 39.1438C26.3428 39.4157 26.2894 39.673 26.16 39.9154C25.5851 39.9812 25.2384 40.2898 25.12 40.8414C24.8558 43.4044 25.6291 43.816 27.44 42.076C28.0923 40.5742 28.599 39.031 28.96 37.4462C29.3788 37.1033 29.8321 36.8718 30.32 36.7517C30.1899 37.7423 30.1099 38.7455 30.08 39.7611C30.0307 39.8858 29.9507 39.9887 29.84 40.0698C29.6174 39.893 29.4041 39.893 29.2 40.0698C28.086 42.6484 28.7795 43.2657 31.28 41.9217C31.3881 41.7516 31.4947 41.5973 31.6 41.4587C31.9006 41.7482 32.3272 42.0055 32.88 42.2303C33.0321 42.1029 33.1921 42.0772 33.36 42.1532C33.4497 42.3948 33.343 42.6006 33.04 42.7705C32.1352 43.07 31.2019 43.25 30.24 43.3106C29.6337 43.1467 29.0203 43.121 28.4 43.2335C27.2768 43.9281 26.1035 44.5198 24.88 45.0082C24.298 45.2375 23.7648 45.5462 23.28 45.9342C23.1451 45.676 22.9318 45.4959 22.64 45.394C22.64 45.2397 22.64 45.0854 22.64 44.9311C22.2068 44.5327 21.7801 44.507 21.36 44.8539C21.4225 44.6659 21.3158 44.5372 21.04 44.4681C21.0932 44.4167 21.1467 44.3651 21.2 44.3137C20.7668 43.9154 20.3401 43.8897 19.92 44.2366C19.9825 44.0486 19.8758 43.9199 19.6 43.8508C19.6532 43.7994 19.7067 43.7478 19.76 43.6964C19.3268 43.2981 18.9001 43.2723 18.48 43.6193C18.5425 43.4313 18.4358 43.3026 18.16 43.2335C18.2132 43.1821 18.2667 43.1305 18.32 43.0791C17.9424 42.897 17.5691 42.7169 17.2 42.539C17.2 42.436 17.2 42.3333 17.2 42.2303C17.6465 41.34 18.0465 40.4141 18.4 39.4524C18.8521 38.4768 19.3854 37.5508 20 36.6746C20.178 36.8615 20.3648 36.8615 20.56 36.6746C20.8267 36.8803 21.0932 37.0862 21.36 37.2919C21.4667 37.2405 21.5732 37.1889 21.68 37.1375C22.2276 37.3088 22.6009 37.566 22.8 37.9092C22.9067 37.8578 23.0132 37.8062 23.12 37.7548C23.6676 37.9262 24.0409 38.1833 24.24 38.5265C24.3467 38.4751 24.4532 38.4235 24.56 38.3722C25.1076 38.5435 25.4809 38.8006 25.68 39.1438C25.8984 38.9421 26.1116 38.9421 26.32 39.1438Z" fill="#A20E10"/>
<path fill-rule="evenodd" clip-rule="evenodd" d="M47.6 40.6869C47.4599 40.7071 47.3531 40.6557 47.28 40.5326C48.1024 39.1137 48.2091 39.1651 47.6 40.6869Z" fill="#D91925"/>
<path fill-rule="evenodd" clip-rule="evenodd" d="M17.2 42.5388C17.5691 42.7168 17.9424 42.8969 18.32 43.079C18.2667 43.1304 18.2133 43.1819 18.16 43.2333C18.4358 43.3024 18.5426 43.4311 18.48 43.6191C18.9002 43.2722 19.3269 43.298 19.76 43.6963C19.7067 43.7477 19.6533 43.7992 19.6 43.8506C19.8758 43.9197 19.9826 44.0484 19.92 44.2364C20.3402 43.8895 20.7669 43.9153 21.2 44.3136C21.1467 44.365 21.0933 44.4165 21.04 44.4679C21.3158 44.537 21.4226 44.6658 21.36 44.8537C21.7802 44.5068 22.2069 44.5326 22.64 44.9309C22.64 45.0852 22.64 45.2395 22.64 45.3939C22.9318 45.4957 23.1451 45.6758 23.28 45.934C22.779 46.3397 22.299 46.7769 21.84 47.2458C19.8118 47.8646 18.3984 49.1249 17.6 51.0268C16.6827 51.8225 16.3627 51.5652 16.64 50.2552C17.1957 48.9775 17.8357 47.7429 18.56 46.5513C18.6874 45.8947 18.6606 45.2517 18.48 44.6222C17.9419 44.2861 17.3554 44.0546 16.72 43.9278C16.856 43.4535 17.016 42.9905 17.2 42.5388Z" fill="#99090C"/>
<path fill-rule="evenodd" clip-rule="evenodd" d="M43.4399 44.6994C43.0439 44.7967 42.6705 44.9511 42.3199 45.1623C39.5265 45.6653 36.7532 46.2568 33.9999 46.9371C32.4241 47.5069 31.0374 48.3557 29.8399 49.4835C30.4198 48.5336 31.2198 47.6848 32.2399 46.9371C33.2388 46.4374 34.1988 45.8715 35.1199 45.2395C35.9774 45.4949 36.6174 45.2378 37.0399 44.4679C35.8132 44.3649 34.5867 44.3649 33.3599 44.4679C33.0846 44.7035 32.7646 44.8578 32.3999 44.9308C31.5228 44.941 30.6694 45.0696 29.8399 45.3167C29.0414 44.845 28.3481 44.9737 27.7599 45.7025C27.0771 45.7849 26.4371 45.9906 25.8399 46.3198C25.0142 46.8856 24.2142 47.4771 23.4399 48.0945C23.4399 47.9916 23.4399 47.8888 23.4399 47.7859C24.2924 46.9643 25.2524 46.2954 26.3199 45.7796C26.6502 45.7508 26.9702 45.6736 27.2799 45.5482C27.6641 45.2299 28.0907 44.9727 28.5599 44.7765C29.1094 44.639 29.6161 44.7162 30.0799 45.008C31.3835 44.8586 32.6367 44.5243 33.8399 44.0049C34.9159 44.0109 35.9825 44.0109 37.0399 44.0049C37.287 44.0496 37.5003 44.1524 37.6799 44.3135C37.2364 44.6006 36.8631 44.9608 36.5599 45.3938C35.9199 45.5482 35.2799 45.7025 34.6399 45.8568C34.1875 46.2037 33.7075 46.5124 33.1999 46.7828C33.0086 46.8837 33.0086 46.9609 33.1999 47.0143C34.2334 46.5849 35.3001 46.2505 36.3999 46.0111C38.7425 45.5438 41.0892 45.1065 43.4399 44.6994Z" fill="#F7AA29"/>
<path fill-rule="evenodd" clip-rule="evenodd" d="M58.0001 39.6067C58.0001 39.761 58.0001 39.9153 58.0001 40.0697C57.0426 40.6862 56.0292 41.2264 54.9601 41.6901C54.2593 42.3148 53.5127 42.8807 52.7201 43.3877C49.3135 44.3018 45.8468 44.8933 42.3201 45.1625C42.6706 44.9512 43.0441 44.7969 43.4401 44.6995C46.4132 44.4444 49.3465 43.9558 52.2401 43.2334C53.0749 42.9423 53.7149 42.4279 54.1601 41.6901C55.517 41.1132 56.797 40.4188 58.0001 39.6067Z" fill="#F7B726"/>
<path fill-rule="evenodd" clip-rule="evenodd" d="M39.92 46.8611C39.9063 46.7072 39.9597 46.5786 40.08 46.4749C39.8295 46.3568 39.6162 46.3826 39.44 46.5522C39.3868 46.5522 39.3333 46.5522 39.28 46.5522C39.1666 46.4125 39.0066 46.3611 38.8 46.3977C40.3525 45.9597 41.9525 45.728 43.6 45.7026C42.3548 46.0432 41.1282 46.4294 39.92 46.8611Z" fill="#FDE929"/>
<path fill-rule="evenodd" clip-rule="evenodd" d="M16.0799 41.1499C16.0799 41.2528 16.0799 41.3556 16.0799 41.4586C15.1168 43.6299 14.4501 45.8933 14.0799 48.2489C14.3933 47.4634 14.8466 46.7689 15.4399 46.1655C15.9854 46.0481 16.4654 45.8166 16.8799 45.4711C17.0751 45.5308 17.1819 45.6593 17.1999 45.8569C16.514 47.1028 15.8474 48.3631 15.1999 49.6379C15.1466 50.3066 15.0933 50.9754 15.0399 51.6441C14.8648 51.8877 14.7315 52.1449 14.6399 52.4158C14.1093 53.803 13.8693 55.2435 13.9199 56.7369C13.3252 59.1023 12.8185 61.4686 12.3999 63.836C12.2085 64.7059 12.0485 65.5805 11.9199 66.4595C11.7542 64.85 11.9942 63.3068 12.6399 61.8297C13.0646 59.3682 13.4379 56.899 13.7599 54.422C13.9327 53.4461 14.2527 52.5201 14.7199 51.6441C14.7733 50.9239 14.8266 50.2038 14.8799 49.4836C15.5061 48.3267 16.1727 47.195 16.8799 46.0884C16.8267 46.037 16.7732 45.9854 16.7199 45.934C16.2977 46.2473 15.8444 46.5046 15.3599 46.7057C14.5584 47.8401 13.9718 49.0747 13.5999 50.4095C13.4933 49.5865 13.4933 48.7633 13.5999 47.9403C14.2465 45.7019 14.9665 43.49 15.7599 41.3042C15.8666 41.2528 15.9733 41.2013 16.0799 41.1499Z" fill="#F7992E"/>
<path fill-rule="evenodd" clip-rule="evenodd" d="M38.8001 46.3971C39.0066 46.3606 39.1666 46.412 39.2801 46.5514C37.4604 46.8791 35.7004 47.3934 34.0001 48.094C33.8934 48.094 33.8401 48.0427 33.8401 47.9398C35.377 47.1203 37.0303 46.606 38.8001 46.3971Z" fill="#FACB26"/>
<path fill-rule="evenodd" clip-rule="evenodd" d="M39.28 46.5515C39.3333 46.5515 39.3867 46.5515 39.44 46.5515C38.4696 46.9941 37.5096 47.4829 36.56 48.0176C36.1538 48.3834 35.7805 48.7692 35.44 49.1751C35.3867 49.1751 35.3333 49.1751 35.28 49.1751C34.6251 49.039 34.0384 48.7817 33.52 48.4034C33.7136 48.3368 33.8736 48.2338 34 48.0948C35.7003 47.3938 37.4603 46.8793 39.28 46.5515Z" fill="#A2180E"/>
<path fill-rule="evenodd" clip-rule="evenodd" d="M17.2001 42.2302C17.2001 42.3331 17.2001 42.4359 17.2001 42.5388C17.0161 42.9905 16.8561 43.4535 16.7201 43.9278C17.3554 44.0546 17.942 44.2861 18.4801 44.6222C18.6607 45.2517 18.6874 45.8947 18.5601 46.5513C17.8358 47.7429 17.1958 48.9775 16.6401 50.2552C16.3628 51.5652 16.6828 51.8225 17.6001 51.0268C18.3985 49.1249 19.8119 47.8646 21.8401 47.2458C22.2991 46.7769 22.7791 46.3397 23.2801 45.934C23.7649 45.546 24.2982 45.2374 24.8801 45.008C25.4353 45.0459 25.9153 45.3031 26.3201 45.7797C25.2526 46.2954 24.2926 46.9643 23.4401 47.7859C22.9335 48.1461 22.5068 48.5833 22.1601 49.0977C21.721 48.9448 21.2943 48.9963 20.8801 49.252C19.8914 50.001 19.1982 50.9527 18.8001 52.1071C18.1422 52.381 17.7156 52.844 17.5201 53.496C17.2026 53.478 16.9361 53.5809 16.7201 53.8047C16.7826 53.6167 16.6759 53.488 16.4001 53.4189C16.4534 53.3675 16.5068 53.3159 16.5601 53.2645C16.3348 53.2159 16.1215 53.2673 15.9201 53.4189C15.9884 53.7473 15.9084 54.0817 15.6801 54.422C15.6169 54.1629 15.6436 53.9058 15.7601 53.6504C15.6499 53.3644 15.4366 53.1844 15.1201 53.1102C15.1201 52.9559 15.1201 52.8016 15.1201 52.6472C15.0011 52.4869 14.8411 52.4097 14.6401 52.4157C14.7316 52.1449 14.865 51.8876 15.0401 51.6441C15.0934 50.9754 15.1468 50.3066 15.2001 49.6379C15.8475 48.3631 16.5142 47.1027 17.2001 45.8568C17.182 45.6593 17.0753 45.5308 16.8801 45.471C16.4655 45.8166 15.9855 46.0481 15.4401 46.1655C14.8467 46.7689 14.3934 47.4634 14.0801 48.2489C14.4503 45.8933 15.1169 43.6299 16.0801 41.4585C16.2127 41.5869 16.346 41.5355 16.4801 41.3042C16.7706 41.4321 17.0639 41.5608 17.3601 41.69C17.2001 41.7414 17.0401 41.793 16.8801 41.8443C17.021 41.9536 17.1276 42.0823 17.2001 42.2302Z" fill="#C61618"/>
<path fill-rule="evenodd" clip-rule="evenodd" d="M33.8399 47.9404C33.8399 48.0434 33.8932 48.0948 33.9999 48.0948C33.8735 48.2338 33.7135 48.3367 33.5199 48.4034C32.1822 49.0223 31.0622 49.8968 30.1599 51.027C30.8922 49.4627 32.1188 48.434 33.8399 47.9404Z" fill="#F7AB25"/>
<path fill-rule="evenodd" clip-rule="evenodd" d="M39.9199 46.8601C38.2231 47.4208 36.7299 48.2954 35.4399 49.4837C35.4399 49.3807 35.4399 49.278 35.4399 49.175C35.7804 48.7691 36.1537 48.3833 36.5599 48.0176C37.5095 47.4828 38.4695 46.9941 39.4399 46.5515C39.6161 46.382 39.8294 46.3562 40.0799 46.4743C39.9596 46.5779 39.9062 46.7064 39.9199 46.8601Z" fill="#F7C41D"/>
<path fill-rule="evenodd" clip-rule="evenodd" d="M33.5201 48.4033C34.0385 48.7816 34.6252 49.0388 35.2801 49.175C35.0222 49.6438 34.7022 50.081 34.3201 50.4867C32.9121 50.7935 31.5254 51.1794 30.1601 51.6442C30.0235 51.4695 30.0235 51.2638 30.1601 51.0269C31.0623 49.8967 32.1823 49.0222 33.5201 48.4033Z" fill="#C71818"/>
<path fill-rule="evenodd" clip-rule="evenodd" d="M35.2799 49.175C35.3332 49.175 35.3866 49.175 35.4399 49.175C35.4399 49.278 35.4399 49.3808 35.4399 49.4837C35.1553 50.2472 34.6218 50.7873 33.8399 51.1041C32.5489 51.1569 31.3222 51.4398 30.1599 51.9529C30.1599 51.85 30.1599 51.7472 30.1599 51.6443C31.5252 51.1794 32.9119 50.7936 34.3199 50.4868C34.702 50.0811 35.022 49.6439 35.2799 49.175Z" fill="#F79F24"/>
<path fill-rule="evenodd" clip-rule="evenodd" d="M14.64 52.4159C14.841 52.4098 15.001 52.487 15.12 52.6473C15.12 52.8017 15.12 52.956 15.12 53.1103C15.4365 53.1846 15.6499 53.3645 15.76 53.6505C15.6436 53.9059 15.6169 54.163 15.68 54.4221C15.9084 54.0818 15.9884 53.7474 15.92 53.419C16.1215 53.2674 16.3348 53.216 16.56 53.2647C16.5068 53.316 16.4533 53.3676 16.4 53.419C16.6759 53.4881 16.7826 53.6168 16.72 53.8048C16.936 53.581 17.2026 53.4781 17.52 53.4961C17.0828 54.8622 16.7362 56.2512 16.48 57.663C16.0191 57.4272 15.6458 57.5299 15.36 57.9716C14.219 59.9149 13.3923 61.9727 12.88 64.1447C12.7147 64.6827 12.5814 65.2486 12.48 65.8423C12.4002 65.1754 12.3735 64.5068 12.4 63.836C12.8187 61.4687 13.3253 59.1024 13.92 56.737C13.8694 55.2436 14.1094 53.8031 14.64 52.4159Z" fill="#D41A1C"/>
<path fill-rule="evenodd" clip-rule="evenodd" d="M30.1601 51.0269C30.0234 51.2637 30.0234 51.4695 30.1601 51.6442C30.1601 51.7471 30.1601 51.8499 30.1601 51.9528C28.846 52.9404 27.406 53.6864 25.8401 54.1906C27.406 53.2827 28.846 52.2281 30.1601 51.0269Z" fill="#F78A35"/>
<path fill-rule="evenodd" clip-rule="evenodd" d="M23.4399 47.7861C23.4399 47.8891 23.4399 47.9919 23.4399 48.0948C23.0448 48.5028 22.6716 48.94 22.3199 49.4066C22.0196 49.4955 21.7261 49.4697 21.4399 49.3294C20.2551 50.0682 19.4551 51.0969 19.0399 52.4159C18.7984 52.7893 18.4519 52.9436 17.9999 52.8789C17.534 54.5038 17.134 56.15 16.7999 57.8174C16.7506 57.9421 16.6706 58.045 16.5599 58.126C16.3807 57.9203 16.1674 57.8432 15.9199 57.8945C14.3904 59.9648 13.4304 62.254 13.0399 64.7621C12.9866 64.5564 12.9332 64.3505 12.8799 64.1448C13.3922 61.9728 14.2188 59.915 15.3599 57.9717C15.6456 57.53 16.0189 57.4272 16.4799 57.6631C16.736 56.2513 17.0826 54.8623 17.5199 53.4962C17.7154 52.8442 18.142 52.3812 18.7999 52.1073C19.198 50.9529 19.8912 50.0012 20.8799 49.2522C21.2941 48.9965 21.7208 48.945 22.1599 49.0979C22.5066 48.5835 22.9333 48.1463 23.4399 47.7861Z" fill="#F6932B"/>
<path fill-rule="evenodd" clip-rule="evenodd" d="M12.4001 63.8359C12.3736 64.5066 12.4003 65.1753 12.4801 65.8422C12.5814 65.2485 12.7148 64.6826 12.8801 64.1446C12.9334 64.3503 12.9868 64.5562 13.0401 64.7619C13.0067 64.9814 12.9267 65.1871 12.8001 65.3792C12.8124 68.9304 12.3857 72.4286 11.5201 75.8734C11.3573 76.0596 11.2773 76.0082 11.2801 75.7191C11.5521 74.9174 11.7388 74.0944 11.8401 73.2499C11.9201 70.987 11.9468 68.7235 11.9201 66.4595C12.0486 65.5804 12.2086 64.7059 12.4001 63.8359Z" fill="#F47627"/>
</svg>
