<svg width="14" height="14" viewBox="0 0 14 14" fill="none" xmlns="http://www.w3.org/2000/svg">
<path d="M3.41234 9.97508C3.90817 9.59592 4.46234 9.29705 5.07484 9.0785C5.68734 8.85994 6.329 8.75047 6.99984 8.75008C7.67067 8.74969 8.31234 8.85917 8.92484 9.0785C9.53734 9.29783 10.0915 9.59669 10.5873 9.97508C10.9276 9.57647 11.1926 9.12439 11.3824 8.61883C11.5722 8.11328 11.6669 7.57369 11.6665 7.00008C11.6665 5.70703 11.2121 4.60589 10.3033 3.69666C9.39442 2.78744 8.29328 2.33303 6.99984 2.33341C5.70639 2.3338 4.60525 2.78841 3.69642 3.69725C2.78759 4.60608 2.33317 5.70703 2.33317 7.00008C2.33317 7.57369 2.42806 8.11328 2.61784 8.61883C2.80762 9.12439 3.07245 9.57647 3.41234 9.97508ZM6.99984 7.58342C6.42623 7.58342 5.94245 7.38664 5.5485 6.99308C5.15456 6.59953 4.95778 6.11575 4.95817 5.54175C4.95856 4.96775 5.15553 4.48397 5.54909 4.09042C5.94264 3.69686 6.42623 3.50008 6.99984 3.50008C7.57345 3.50008 8.05723 3.69705 8.45117 4.091C8.84512 4.48494 9.04189 4.96853 9.0415 5.54175C9.04112 6.11497 8.84434 6.59875 8.45117 6.99308C8.058 7.38741 7.57423 7.58419 6.99984 7.58342ZM6.99984 12.8334C6.19289 12.8334 5.43456 12.6802 4.72484 12.3737C4.01512 12.0673 3.39775 11.6518 2.87275 11.1272C2.34775 10.6026 1.93223 9.98519 1.62617 9.27508C1.32012 8.56497 1.16689 7.80664 1.1665 7.00008C1.16612 6.19353 1.31934 5.43519 1.62617 4.72508C1.933 4.01497 2.34853 3.39761 2.87275 2.873C3.39698 2.34839 4.01434 1.93286 4.72484 1.62641C5.43534 1.31997 6.19367 1.16675 6.99984 1.16675C7.806 1.16675 8.56434 1.31997 9.27484 1.62641C9.98534 1.93286 10.6027 2.34839 11.1269 2.873C11.6511 3.39761 12.0669 4.01497 12.3741 4.72508C12.6813 5.43519 12.8343 6.19353 12.8332 7.00008C12.832 7.80664 12.6788 8.56497 12.3735 9.27508C12.0682 9.98519 11.6527 10.6026 11.1269 11.1272C10.6011 11.6518 9.98378 12.0675 9.27484 12.3743C8.56589 12.6812 7.80756 12.8342 6.99984 12.8334Z" fill="#797979"/>
</svg>
