<svg width="9" height="9" viewBox="0 0 9 9" fill="none" xmlns="http://www.w3.org/2000/svg">
<g clip-path="url(#clip0_118_1490)">
<path d="M7.36004 2.22466C7.34807 2.20971 7.33316 2.19737 7.31624 2.18838C7.29932 2.1794 7.28075 2.17397 7.26165 2.17242C7.24256 2.17087 7.22335 2.17324 7.20521 2.17939C7.18706 2.18553 7.17036 2.19531 7.15614 2.20814C7.0371 2.31664 6.92661 2.43418 6.82567 2.5597C6.7811 2.6171 6.71649 2.65554 6.64478 2.66734C6.57308 2.67914 6.49956 2.66342 6.43895 2.62333C6.40709 2.60129 6.38012 2.5729 6.35975 2.53994C6.33937 2.50699 6.32603 2.47018 6.32055 2.43182C6.31507 2.39347 6.31758 2.35439 6.32791 2.31705C6.33824 2.27971 6.35617 2.2449 6.38059 2.21482C6.49193 2.07559 6.61331 1.9447 6.74375 1.82318C6.75879 1.80942 6.77065 1.79257 6.77853 1.77377C6.78641 1.75498 6.79011 1.7347 6.78937 1.71434C6.78864 1.69397 6.78348 1.67401 6.77427 1.65584C6.76506 1.63766 6.75201 1.62171 6.73602 1.60908C6.09625 1.11299 5.30966 0.84375 4.50008 0.84375C3.69051 0.84375 2.90392 1.11299 2.26414 1.60908C2.24816 1.62171 2.2351 1.63766 2.22589 1.65584C2.21668 1.67401 2.21153 1.69397 2.21079 1.71434C2.21006 1.7347 2.21375 1.75498 2.22163 1.77377C2.22951 1.79257 2.24137 1.80942 2.25641 1.82318C2.38456 1.94262 2.50404 2.07103 2.61395 2.20743C2.65831 2.26138 2.68152 2.32962 2.67926 2.39942C2.677 2.46922 2.64941 2.53582 2.60164 2.58677C2.57383 2.61547 2.54022 2.63791 2.50305 2.6526C2.46589 2.66729 2.42601 2.67389 2.3861 2.67196C2.34618 2.67003 2.30713 2.65962 2.27155 2.64141C2.23597 2.62321 2.20468 2.59763 2.17977 2.56638C2.07704 2.43812 1.96431 2.31822 1.84262 2.20779C1.82838 2.19504 1.81168 2.18532 1.79356 2.17924C1.77544 2.17316 1.75626 2.17084 1.73721 2.17242C1.71816 2.174 1.69963 2.17945 1.68276 2.18843C1.66588 2.19741 1.65102 2.20974 1.63907 2.22466C1.12353 2.87099 0.842773 3.67323 0.842773 4.49997C0.842773 5.32672 1.12353 6.12896 1.63907 6.77529C1.65104 6.79024 1.66595 6.80258 1.68287 6.81156C1.69979 6.82055 1.71836 6.82598 1.73745 6.82753C1.75655 6.82907 1.77576 6.8267 1.7939 6.82056C1.81205 6.81442 1.82874 6.80464 1.84297 6.79181C1.96201 6.6833 2.0725 6.56577 2.17344 6.44025C2.21801 6.38285 2.28262 6.34441 2.35432 6.33261C2.42603 6.32081 2.49955 6.33653 2.56016 6.37662C2.5921 6.39858 2.61916 6.42691 2.63963 6.45982C2.66011 6.49274 2.67355 6.52953 2.67913 6.56789C2.68471 6.60625 2.6823 6.64535 2.67205 6.68273C2.6618 6.72012 2.64394 6.75498 2.61957 6.78513C2.50823 6.92436 2.38685 7.05525 2.25641 7.17677C2.24137 7.19052 2.22951 7.20738 2.22163 7.22617C2.21375 7.24497 2.21006 7.26525 2.21079 7.28561C2.21153 7.30597 2.21668 7.32593 2.22589 7.34411C2.2351 7.36228 2.24816 7.37824 2.26414 7.39087C2.90392 7.88696 3.69051 8.1562 4.50008 8.1562C5.30966 8.1562 6.09625 7.88696 6.73602 7.39087C6.75201 7.37824 6.76506 7.36228 6.77427 7.34411C6.78348 7.32593 6.78864 7.30597 6.78937 7.28561C6.79011 7.26525 6.78641 7.24497 6.77853 7.22617C6.77065 7.20738 6.75879 7.19052 6.74375 7.17677C6.61331 7.05525 6.49193 6.92436 6.38059 6.78513C6.35642 6.75498 6.33872 6.72018 6.3286 6.68289C6.31847 6.6456 6.31614 6.60662 6.32175 6.56839C6.32736 6.53015 6.34078 6.49349 6.36119 6.46068C6.3816 6.42786 6.40854 6.39961 6.44035 6.37767C6.50097 6.33758 6.57448 6.32186 6.64619 6.33366C6.7179 6.34546 6.7825 6.38391 6.82707 6.4413C6.92802 6.56682 7.0385 6.68436 7.15754 6.79286C7.17177 6.80569 7.18847 6.81548 7.20661 6.82162C7.22476 6.82776 7.24397 6.83013 7.26306 6.82858C7.28215 6.82703 7.30073 6.8216 7.31765 6.81262C7.33457 6.80364 7.34947 6.79129 7.36145 6.77634C7.87698 6.13002 8.15774 5.32778 8.15774 4.50103C8.15774 3.67428 7.87698 2.87204 7.36145 2.22572L7.36004 2.22466ZM2.8727 3.10427C2.94295 3.08614 3.01745 3.09523 3.08128 3.12972C3.14511 3.16421 3.19355 3.22155 3.21688 3.29025C3.28389 3.48223 3.33492 3.67943 3.36946 3.87982C3.37804 3.92078 3.37737 3.96315 3.36749 4.00383C3.35762 4.0445 3.33879 4.08246 3.31238 4.11493C3.28597 4.1474 3.25264 4.17357 3.21484 4.19153C3.17703 4.20948 3.13569 4.21878 3.09383 4.21872C3.02303 4.21896 2.95475 4.19248 2.90262 4.14458C2.85049 4.09669 2.81833 4.03089 2.81258 3.96033C2.79922 3.80423 2.77356 3.64708 2.70008 3.50892C2.68001 3.47172 2.66858 3.43047 2.66664 3.38824C2.66471 3.34601 2.67232 3.30389 2.6889 3.26501C2.70549 3.22613 2.73063 3.19148 2.76245 3.16365C2.79427 3.13583 2.83195 3.11553 2.8727 3.10427ZM3.36946 5.11837C3.33473 5.3226 3.28263 5.52348 3.21371 5.71884C3.20036 5.75657 3.1791 5.79102 3.15136 5.81988C3.12363 5.84873 3.09005 5.87134 3.05288 5.88618C3.01571 5.90102 2.9758 5.90776 2.93581 5.90594C2.89583 5.90412 2.85669 5.89379 2.82102 5.87564C2.75954 5.84282 2.71205 5.78883 2.68735 5.72366C2.66265 5.65849 2.66243 5.58658 2.68672 5.52126C2.74411 5.35682 2.7875 5.18782 2.81645 5.01607C2.82301 4.97672 2.83787 4.93921 2.86003 4.90604C2.8822 4.87287 2.91117 4.8448 2.94502 4.82369C2.97887 4.80257 3.01682 4.7889 3.05636 4.78358C3.0959 4.77826 3.13611 4.78141 3.17434 4.79283C3.24089 4.81408 3.29741 4.85886 3.33333 4.91878C3.36924 4.9787 3.38209 5.04966 3.36946 5.11837ZM6.17914 5.87564C6.14347 5.89379 6.10434 5.90412 6.06435 5.90594C6.02437 5.90776 5.98446 5.90102 5.94728 5.88618C5.91011 5.87134 5.87653 5.84873 5.8488 5.81988C5.82106 5.79102 5.79981 5.75657 5.78645 5.71884C5.71754 5.52348 5.66543 5.3226 5.63071 5.11837C5.61815 5.04967 5.63103 4.97874 5.66693 4.91884C5.70284 4.85893 5.75932 4.81414 5.82582 4.79283C5.86405 4.78141 5.90427 4.77826 5.9438 4.78358C5.98334 4.7889 6.0213 4.80257 6.05514 4.82369C6.08899 4.8448 6.11796 4.87287 6.14013 4.90604C6.1623 4.93921 6.17715 4.97672 6.18371 5.01607C6.21266 5.18782 6.25605 5.35682 6.31344 5.52126C6.33773 5.58658 6.33751 5.65849 6.31281 5.72366C6.28812 5.78883 6.24062 5.84282 6.17914 5.87564ZM6.29903 3.50892C6.22555 3.64708 6.19989 3.80423 6.18653 3.96033C6.18294 4.00165 6.17026 4.04168 6.14938 4.07753C6.12851 4.11338 6.09996 4.14417 6.06579 4.16769C6.03162 4.19121 5.99267 4.20688 5.95173 4.21357C5.91079 4.22027 5.86887 4.21783 5.82899 4.20642C5.76181 4.18593 5.70449 4.1415 5.66788 4.08157C5.63127 4.02163 5.61792 3.95035 5.63035 3.88122C5.66472 3.68042 5.71588 3.48285 5.78328 3.2906C5.80648 3.22179 5.85487 3.16431 5.91873 3.12974C5.98258 3.09517 6.05717 3.08607 6.12746 3.10427C6.16812 3.11565 6.20569 3.13604 6.23739 3.16392C6.26909 3.1918 6.29411 3.22646 6.31059 3.26532C6.32706 3.30419 6.33458 3.34627 6.33258 3.38844C6.33058 3.43061 6.31911 3.47179 6.29903 3.50892Z" fill="#FFFEFE"/>
</g>
<defs>
<clipPath id="clip0_118_1490">
<rect width="9" height="9" fill="white"/>
</clipPath>
</defs>
</svg>
