<svg width="7" height="7" viewBox="0 0 7 7" fill="none" xmlns="http://www.w3.org/2000/svg">
<g clip-path="url(#clip0_144_197)">
<rect width="7" height="7" rx="3.5" fill="#AC1213"/>
<path d="M3.50016 4.66665L4.66683 3.49998L3.50016 2.33331L3.09183 2.74165L3.5585 3.20831H2.3335V3.79165H3.5585L3.09183 4.25831L3.50016 4.66665ZM3.50016 6.41665C3.09669 6.41665 2.71752 6.34004 2.36266 6.18681C2.0078 6.03359 1.69912 5.82583 1.43662 5.56352C1.17412 5.30122 0.966358 4.99254 0.81333 4.63748C0.660302 4.28242 0.583691 3.90326 0.583496 3.49998C0.583302 3.0967 0.659913 2.71754 0.81333 2.36248C0.966746 2.00742 1.17451 1.69874 1.43662 1.43644C1.69873 1.17413 2.00741 0.966369 2.36266 0.813146C2.71791 0.659924 3.09708 0.583313 3.50016 0.583313C3.90325 0.583313 4.28241 0.659924 4.63766 0.813146C4.99291 0.966369 5.30159 1.17413 5.5637 1.43644C5.82582 1.69874 6.03368 2.00742 6.18729 2.36248C6.3409 2.71754 6.41741 3.0967 6.41683 3.49998C6.41625 3.90326 6.33964 4.28242 6.187 4.63748C6.03436 4.99254 5.82659 5.30122 5.5637 5.56352C5.30082 5.82583 4.99214 6.03369 4.63766 6.1871C4.28319 6.34052 3.90402 6.41704 3.50016 6.41665ZM3.50016 5.83331C4.15155 5.83331 4.70329 5.60727 5.15537 5.15519C5.60745 4.7031 5.8335 4.15137 5.8335 3.49998C5.8335 2.84859 5.60745 2.29685 5.15537 1.84477C4.70329 1.39269 4.15155 1.16665 3.50016 1.16665C2.84877 1.16665 2.29704 1.39269 1.84495 1.84477C1.39287 2.29685 1.16683 2.84859 1.16683 3.49998C1.16683 4.15137 1.39287 4.7031 1.84495 5.15519C2.29704 5.60727 2.84877 5.83331 3.50016 5.83331Z" fill="white"/>
</g>
<defs>
<clipPath id="clip0_144_197">
<rect width="7" height="7" rx="3.5" fill="white"/>
</clipPath>
</defs>
</svg>
