<svg width="14" height="14" viewBox="0 0 14 14" fill="none" xmlns="http://www.w3.org/2000/svg">
<path d="M2.91667 12.8334C2.59583 12.8334 2.32128 12.7193 2.093 12.491C1.86472 12.2627 1.75039 11.988 1.75 11.6667V3.50008C1.75 3.17925 1.86433 2.90469 2.093 2.67641C2.32167 2.44814 2.59622 2.3338 2.91667 2.33341H3.5V1.16675H4.66667V2.33341H9.33333V1.16675H10.5V2.33341H11.0833C11.4042 2.33341 11.6789 2.44775 11.9076 2.67641C12.1363 2.90508 12.2504 3.17964 12.25 3.50008V11.6667C12.25 11.9876 12.1359 12.2623 11.9076 12.491C11.6793 12.7197 11.4046 12.8338 11.0833 12.8334H2.91667ZM2.91667 11.6667H11.0833V5.83341H2.91667V11.6667Z" fill="#797979"/>
</svg>
