<svg width="11" height="11" viewBox="0 0 11 11" fill="none" xmlns="http://www.w3.org/2000/svg">
<path d="M10.0101 1.81221H10.4211C10.5746 1.81221 10.7219 1.87354 10.8304 1.98271C10.939 2.09187 11 2.23993 11 2.39431V6.46899C11 6.62337 10.939 6.77143 10.8304 6.8806C10.7219 6.98976 10.5746 7.05109 10.4211 7.05109H9.26325L6.84917 3.65397C6.70876 3.45643 6.51044 3.30797 6.28196 3.22938C6.05349 3.15079 5.80629 3.14598 5.57497 3.21565L4.13578 3.64989C3.93558 3.71016 3.72289 3.71481 3.52026 3.66336C3.31764 3.61192 3.13265 3.50629 2.9849 3.35768L2.81527 3.18713C2.75471 3.12625 2.70834 3.05261 2.6795 2.97154C2.65065 2.89046 2.64006 2.80396 2.64848 2.71827C2.65689 2.63258 2.68411 2.54983 2.72817 2.476C2.77223 2.40216 2.83203 2.33907 2.90327 2.29128L6.03 0.195729C6.21665 0.0705256 6.43546 0.00255057 6.65982 7.03781e-05C6.88418 -0.00240981 7.10443 0.0607116 7.29377 0.181759L9.69975 1.72141C9.79235 1.78057 9.90034 1.81206 10.0101 1.81221ZM1.75238 6.64071L0.816852 7.46379C0.752913 7.52015 0.702106 7.58998 0.668042 7.66831C0.633978 7.74665 0.617493 7.83156 0.619758 7.91703C0.622024 8.00249 0.642985 8.08641 0.681152 8.1628C0.719319 8.2392 0.773753 8.30621 0.840587 8.35906L3.81622 10.7107C3.88163 10.7625 3.95738 10.7995 4.0383 10.8192C4.11922 10.8388 4.20341 10.8407 4.28512 10.8247C4.36683 10.8087 4.44414 10.7751 4.51178 10.7263C4.57942 10.6775 4.6358 10.6146 4.67707 10.5419L5.08463 9.82478C5.20599 9.61122 5.25696 9.36449 5.23024 9.11999C5.20351 8.8755 5.10045 8.64579 4.93585 8.46384L3.37161 6.73385C3.16762 6.50818 2.88372 6.37199 2.58092 6.35458C2.27813 6.33716 1.98063 6.4399 1.75238 6.64071ZM2.92121 1.23012H0.578917C0.425379 1.23012 0.278129 1.29144 0.169561 1.40061C0.0609928 1.50977 0 1.65783 0 1.81221V6.18726C3.09951e-05 6.42204 0.0706616 6.65133 0.202621 6.84503L0.245461 6.80661L1.18041 5.98352C1.57986 5.63206 2.10052 5.45224 2.63044 5.48272C3.16036 5.5132 3.65722 5.75154 4.01421 6.14651L5.57844 7.8765C5.86633 8.19484 6.04659 8.59665 6.09339 9.02433C6.14019 9.45202 6.05112 9.88362 5.83896 10.2573L5.45977 10.9244C5.62336 10.9867 5.79888 11.011 5.97315 10.9954C6.14741 10.9798 6.31589 10.9246 6.46592 10.8341L9.01895 9.29391C9.0874 9.25255 9.1466 9.1974 9.19284 9.13193C9.23907 9.06645 9.27133 8.99207 9.28758 8.91345C9.30384 8.83483 9.30375 8.75368 9.2873 8.67511C9.27086 8.59653 9.23843 8.52222 9.19204 8.45685L6.14289 4.16156C6.10778 4.11223 6.05821 4.07516 6.00112 4.05554C5.94404 4.03592 5.88228 4.03473 5.82448 4.05212L4.3853 4.48579C4.03493 4.59147 3.66265 4.59981 3.30795 4.50993C2.95326 4.42005 2.62937 4.2353 2.37066 3.97529L2.20104 3.80473C2.04959 3.65253 1.93361 3.46843 1.86147 3.26571C1.78933 3.06299 1.76283 2.8467 1.78387 2.63243C1.80492 2.41817 1.87298 2.21127 1.98316 2.02665C2.09334 1.84203 2.24289 1.6843 2.42103 1.56482L2.92121 1.23012Z" fill="black"/>
</svg>
