<svg width="22" height="22" viewBox="0 0 22 22" fill="none" xmlns="http://www.w3.org/2000/svg">
<path d="M11.0001 1.46655C5.7436 1.46655 1.4668 5.74335 1.4668 10.9999C1.4668 16.2564 5.7436 20.5332 11.0001 20.5332C16.2567 20.5332 20.5335 16.2564 20.5335 10.9999C20.5335 5.74335 16.2567 1.46655 11.0001 1.46655ZM8.55521 4.39989H13.4436C15.7353 4.39989 17.6001 6.26403 17.6001 8.55496V13.4434C17.6001 15.735 15.736 17.5999 13.4451 17.5999H8.55664C6.26497 17.5999 4.40013 15.7357 4.40013 13.4448V8.5564C4.40013 6.26473 6.26428 4.39989 8.55521 4.39989ZM8.55521 5.86655C7.07314 5.86655 5.8668 7.0736 5.8668 8.5564V13.4448C5.8668 14.9269 7.07384 16.1332 8.55664 16.1332H13.4451C14.9271 16.1332 16.1335 14.9262 16.1335 13.4434V8.55496C16.1335 7.0729 14.9264 5.86655 13.4436 5.86655H8.55521ZM14.4233 7.0883C14.6932 7.0883 14.9117 7.30684 14.9117 7.57671C14.9117 7.84658 14.6932 8.06655 14.4233 8.06655C14.1534 8.06655 13.9335 7.84658 13.9335 7.57671C13.9335 7.30684 14.1534 7.0883 14.4233 7.0883ZM11.0001 7.33322C13.0219 7.33322 14.6668 8.97809 14.6668 10.9999C14.6668 13.0217 13.0219 14.6666 11.0001 14.6666C8.97833 14.6666 7.33346 13.0217 7.33346 10.9999C7.33346 8.97809 8.97833 7.33322 11.0001 7.33322ZM11.0001 8.79989C10.4167 8.79989 9.85708 9.03167 9.4445 9.44425C9.03192 9.85683 8.80013 10.4164 8.80013 10.9999C8.80013 11.5834 9.03192 12.1429 9.4445 12.5555C9.85708 12.9681 10.4167 13.1999 11.0001 13.1999C11.5836 13.1999 12.1432 12.9681 12.5558 12.5555C12.9683 12.1429 13.2001 11.5834 13.2001 10.9999C13.2001 10.4164 12.9683 9.85683 12.5558 9.44425C12.1432 9.03167 11.5836 8.79989 11.0001 8.79989Z" fill="#565656"/>
</svg>
