<svg width="11" height="10" viewBox="0 0 11 10" fill="none" xmlns="http://www.w3.org/2000/svg">
<path d="M5.5 0C5.29384 -3.14101e-09 5.08971 0.0415181 4.89924 0.122184C4.70878 0.202849 4.53572 0.321083 4.38994 0.470134C4.24417 0.619185 4.12853 0.796134 4.04964 0.990878C3.97075 1.18562 3.93014 1.39435 3.93014 1.60514C3.93014 1.81593 3.97075 2.02465 4.04964 2.2194C4.12853 2.41414 4.24417 2.59109 4.38994 2.74014C4.53572 2.88919 4.70878 3.00743 4.89924 3.08809C5.08971 3.16876 5.29384 3.21028 5.5 3.21028C5.91635 3.21028 6.31565 3.04116 6.61006 2.74014C6.90446 2.43912 7.06986 2.03085 7.06986 1.60514C7.06986 1.17943 6.90446 0.771156 6.61006 0.470134C6.31565 0.169112 5.91635 0 5.5 0ZM9.03571 0.801765C8.72314 0.801765 8.42336 0.928726 8.20234 1.15472C7.98131 1.38071 7.85714 1.68722 7.85714 2.00682C7.85714 2.32642 7.98131 2.63294 8.20234 2.85893C8.42336 3.08492 8.72314 3.21188 9.03571 3.21188C9.34829 3.21188 9.64806 3.08492 9.86909 2.85893C10.0901 2.63294 10.2143 2.32642 10.2143 2.00682C10.2143 1.68722 10.0901 1.38071 9.86909 1.15472C9.64806 0.928726 9.34829 0.801765 9.03571 0.801765ZM1.96429 0.801765C1.65171 0.801765 1.35193 0.928726 1.13091 1.15472C0.909885 1.38071 0.785714 1.68722 0.785714 2.00682C0.785714 2.32642 0.909885 2.63294 1.13091 2.85893C1.35193 3.08492 1.65171 3.21188 1.96429 3.21188C2.27686 3.21188 2.57664 3.08492 2.79766 2.85893C3.01869 2.63294 3.14286 2.32642 3.14286 2.00682C3.14286 1.68722 3.01869 1.38071 2.79766 1.15472C2.57664 0.928726 2.27686 0.801765 1.96429 0.801765ZM3.14286 4.813C3.14431 4.60091 3.22773 4.39801 3.37492 4.24856C3.52212 4.09912 3.72114 4.01525 3.92857 4.01525H7.07143C7.27981 4.01525 7.47966 4.0999 7.62701 4.25056C7.77436 4.40122 7.85714 4.60556 7.85714 4.81863V7.22874C7.85735 7.4816 7.81864 7.73292 7.74243 7.97347C7.56845 8.51872 7.21006 8.9827 6.73162 9.28208C6.25318 9.58147 5.68602 9.69665 5.13199 9.60694C4.57797 9.51724 4.07336 9.22853 3.70879 8.79265C3.34422 8.35677 3.14357 7.80228 3.14286 7.22874V4.813ZM2.35714 4.81863C2.35714 4.5254 2.43336 4.25145 2.56771 4.01525H0.785714C0.57733 4.01525 0.37748 4.0999 0.23013 4.25056C0.0827805 4.40122 1.08753e-07 4.60556 1.08753e-07 4.81863V6.82706C-0.000106895 7.15588 0.078749 7.4797 0.229643 7.77008C0.380537 8.06047 0.598853 8.30853 0.865419 8.49248C1.13198 8.67643 1.43865 8.79065 1.75847 8.8251C2.0783 8.85955 2.40151 8.81319 2.69971 8.69008C2.47405 8.23725 2.35665 7.73616 2.35714 7.22794V4.81863ZM8.64286 4.81863V7.22874C8.64286 7.75495 8.5195 8.25144 8.30029 8.69008C8.59849 8.81319 8.9217 8.85955 9.24153 8.8251C9.56135 8.79065 9.86801 8.67643 10.1346 8.49248C10.4011 8.30853 10.6195 8.06047 10.7704 7.77008C10.9213 7.4797 11.0001 7.15588 11 6.82706V4.81863C11 4.60556 10.9172 4.40122 10.7699 4.25056C10.6225 4.0999 10.4227 4.01525 10.2143 4.01525H8.43229C8.56586 4.25145 8.64286 4.5254 8.64286 4.81863Z" fill="black"/>
</svg>
