<svg width="65" height="22" viewBox="0 0 65 22" fill="none" xmlns="http://www.w3.org/2000/svg">
<path d="M28.3336 9.50185H30.3031V14.4634H30.7126V9.50185H32.6821V9.08563H28.3271V9.50185H28.3336Z" fill="white" fill-opacity="0.77"/>
<path d="M20.6053 12.3126H18.4668V9.68319L19.3118 9.60391V9.61051L19.4093 9.60391C19.4678 9.5973 19.5458 9.59069 19.6368 9.57748H19.6498C19.9618 9.54445 20.4233 9.49159 20.6118 9.49159C21.3463 9.49159 21.9443 10.0532 21.9443 10.7402C21.9443 11.6784 21.4438 12.273 20.6053 12.3126ZM20.6053 9.07538C20.3973 9.07538 19.9423 9.12162 19.6043 9.16126L18.0508 9.30661V14.4664H18.4603V12.742H20.6118C21.1903 12.709 21.6583 12.4778 21.9638 12.0616C22.2108 11.718 22.3473 11.2556 22.3473 10.7535C22.3538 9.82193 21.5673 9.07538 20.6053 9.07538Z" fill="white" fill-opacity="0.77"/>
<path d="M24.622 11.9868C24.622 11.9868 25.6035 9.6679 25.6165 9.65468C25.636 9.60844 25.636 9.5688 25.636 9.5688C25.636 9.5688 25.636 9.60844 25.6555 9.65468C25.662 9.6679 27.404 13.5592 27.43 13.6186C27.456 13.6781 27.4885 13.7244 27.5145 13.764C27.5145 13.764 27.4235 13.6781 27.3845 13.6583C27.2935 13.5922 24.622 11.9868 24.622 11.9868ZM25.5125 8.82886L23.127 14.4643H23.5755L24.4595 12.3766L27.924 14.4643H28.262L25.74 8.83546L25.5125 8.82886Z" fill="white" fill-opacity="0.77"/>
<path d="M34.5088 11.2552V9.69606L35.3538 9.61679V9.62339L35.4513 9.61679C35.5098 9.61018 35.5878 9.60357 35.6788 9.59036H35.6918C36.0038 9.55733 36.4653 9.50447 36.6538 9.50447C37.3883 9.50447 37.9863 10.066 37.9863 10.7531C37.9863 11.6979 37.4858 12.2859 36.6538 12.3321H35.8868L34.5088 11.2552ZM36.3808 12.7087C36.4458 12.7285 36.4718 12.7351 36.5108 12.7417C36.5758 12.7417 36.6603 12.7417 36.6603 12.7417C37.2388 12.7087 37.7068 12.4774 38.0123 12.0612C38.2593 11.7177 38.3958 11.2552 38.3958 10.7531C38.3958 9.8348 37.6093 9.08826 36.6473 9.08826C36.4393 9.08826 35.9843 9.1345 35.6463 9.17414L34.0928 9.31949V14.4792H34.5023V11.7904L35.2043 12.3321L35.7438 12.7483L37.9733 14.4726H38.6103C38.6103 14.4726 36.4978 12.8276 36.4523 12.7814C36.4133 12.7351 36.3808 12.7087 36.3808 12.7087Z" fill="white" fill-opacity="0.77"/>
<path d="M50.2385 13.7657L46.579 9.08826H46.189V14.4726H46.5985V9.78856L50.258 14.4726H50.648V9.09486H50.2385V13.7657Z" fill="white" fill-opacity="0.77"/>
<path d="M53.1766 9.08234H52.7671V14.4601H53.1766V9.08234Z" fill="white" fill-opacity="0.77"/>
<path d="M54.5415 9.49849H56.4655V14.4534H56.875V9.49849H58.8965V9.08228H54.5415V9.49849Z" fill="white" fill-opacity="0.77"/>
<path d="M60.5019 14.0332V12.1305H63.4789V11.7803C63.4789 11.7803 60.9829 9.60678 60.9374 9.57374C60.8464 9.49446 60.8139 9.48786 60.8139 9.48786C60.8139 9.48786 60.8984 9.49446 60.9894 9.49446H64.1289V9.07825H60.0859V9.37554C60.0859 9.37554 62.6534 11.6152 62.6924 11.6548C62.7314 11.6945 62.8094 11.7341 62.8094 11.7341C62.8094 11.7341 62.7509 11.7143 62.6729 11.7143H60.0859V14.4626H64.5254V14.0332H60.5019Z" fill="white" fill-opacity="0.77"/>
<path d="M44.1415 12.1235C44.1415 12.8833 43.7645 13.3524 43.628 13.5043L43.5435 13.5968C43.1795 13.9602 42.6985 14.1584 42.198 14.165H42.1655H42.133C41.626 14.1584 41.1515 13.9602 40.7875 13.5968L40.703 13.5043C40.5665 13.3524 40.1895 12.8833 40.1895 12.1235V11.41C40.1895 10.2737 41.067 9.34215 42.1525 9.32233H42.1655H42.1785C43.264 9.34215 44.1415 10.2737 44.1415 11.41V12.1235ZM42.3345 8.91933L42.2695 8.91272H42.185H42.172H42.159H42.0745L42.0095 8.91933C40.7615 9.01843 39.793 10.1019 39.793 11.4166V12.1301C39.793 12.6983 39.9815 13.2533 40.3325 13.6893L40.417 13.7818C40.872 14.2839 41.5025 14.5878 42.1655 14.5878C42.172 14.5878 42.1785 14.5878 42.185 14.5878C42.1915 14.5878 42.198 14.5878 42.2045 14.5878C42.8675 14.5878 43.498 14.2839 43.953 13.7818L44.0375 13.6893C44.382 13.2533 44.577 12.7049 44.577 12.1301V11.4166C44.551 10.1019 43.5825 9.01182 42.3345 8.91933Z" fill="white" fill-opacity="0.77"/>
<path d="M10.9851 16.8204L6.92911 18.591L4.04311 17.4216L3.99111 14.0325L4.48511 15.2018L6.89661 16.1796L9.28211 15.1358L12.3631 13.3057L10.9851 16.8204ZM1.13761 12.9424L4.09511 11.1718L3.46461 12.7838L3.49061 17.2036L2.83411 16.9394L1.13761 12.9424ZM2.67161 8.7736L5.95411 9.66549L4.42661 10.3328L1.34561 12.1628L2.67161 8.7736ZM6.77961 3.6733L10.7836 8.3772L9.88011 11.8126L9.22361 10.2535L6.38311 4.14897L6.77961 3.6733ZM10.2441 12.6847L11.1541 9.1766L12.5711 12.5261L9.62661 14.2703L10.2441 12.6847ZM6.81861 9.90993L8.79461 10.7093L9.63311 12.6979L8.84661 14.7129L6.89011 15.5586L4.91411 14.7592L4.07561 12.7706L4.86211 10.7556L6.81861 9.90993ZM6.81211 9.2823L3.00311 8.26489L5.98661 4.63786L8.45011 9.94957L6.81211 9.2823ZM11.3296 8.15918L6.76661 2.79462L2.25561 8.2781L0.474609 12.8168L2.40511 17.3754L6.94211 19.212L11.4271 17.2499L13.2341 12.6385L11.3296 8.15918Z" fill="white" fill-opacity="0.77"/>
</svg>
