<svg width="173" height="85" viewBox="0 0 173 85" fill="none" xmlns="http://www.w3.org/2000/svg">
<path d="M100.984 0.997319C99.531 1.98377 99.1891 2.06955 97.9924 1.59777C96.3255 0.997319 93.3338 0.997319 91.3678 1.59777C90.5557 1.81221 89.3163 2.11244 88.6324 2.19822C87.222 2.41266 85.3842 3.52778 85.3842 4.12823C85.3842 4.38556 84.8714 3.99956 84.2303 3.31333C82.9908 1.98377 78.2468 0.268203 75.8534 0.268203C75.1695 0.268203 72.7761 0.654206 70.5109 1.0831C68.203 1.55488 63.2025 2.2411 59.3132 2.62711C55.4239 3.01311 51.9193 3.39911 51.5346 3.52778C51.1073 3.65645 50.0815 3.22756 49.184 2.49844C48.2865 1.76932 46.8333 0.997319 45.893 0.697095C41.5764 -0.675359 35.6356 2.11244 33.6268 6.48713C32.6011 8.71737 32.6011 10.004 33.6696 11.7625C35.5929 14.8934 34.3534 15.5367 31.4471 12.9205C26.2329 8.2027 18.7963 4.12823 13.4111 2.97022C3.06817 0.825762 -3.77013 8.03114 2.25612 14.8076C3.36735 16.0514 3.66652 16.8234 3.88022 18.7963C4.00844 20.1688 3.9657 21.3697 3.752 21.4983C3.58104 21.5841 3.19639 22.5706 2.93995 23.6428C2.38434 25.873 2.81174 28.2319 4.13666 29.9046C4.60679 30.548 4.99144 31.9633 5.1624 33.5931C5.33336 35.8233 5.24788 36.338 4.56405 36.9813C1.82873 39.4689 3.28187 45.4305 7.0002 47.1032C8.88073 47.9181 9.00895 47.9181 13.6675 47.189C17.4286 46.6314 19.9502 46.5027 25.6346 46.7172C31.2762 46.9316 33.3277 46.8458 35.2509 46.3312C36.6186 45.9881 37.9008 45.5163 38.0717 45.3018C38.2854 45.1303 39.3112 45.3447 40.3369 45.7736C41.5764 46.3312 43.0295 46.5885 44.8673 46.5456C47.3462 46.5027 51.962 47.1032 52.7741 47.575C52.945 47.7036 56.9626 47.5321 61.6639 47.189C66.3652 46.8887 73.0326 46.4169 76.4945 46.2454C81.1103 45.9452 83.0763 45.6449 83.8456 45.1732C84.5722 44.6585 84.9996 44.6156 85.2133 44.9158C85.3415 45.1732 86.2818 45.7736 87.2648 46.2025C89.3163 47.1461 94.6587 47.3176 96.9666 46.5456C99.1036 45.8165 102.181 43.4147 103.548 41.4418C104.873 39.5118 105.472 39.7262 105.472 42.1709C105.472 44.058 107.865 46.7172 110.173 47.4034C112.438 48.0896 114.148 47.7036 116.669 46.0309C119.533 44.1009 120.217 42.514 120.217 37.6676C120.217 34.2793 120.302 33.8075 120.772 34.4509C121.798 35.8233 123.294 39.04 123.636 40.584C123.807 41.3989 124.363 42.9 124.918 43.8865L125.901 45.6878L124.918 47.575C124.405 48.6472 123.85 49.9339 123.721 50.4914L123.422 51.5208L122.781 50.5772C122.397 50.0196 121.114 49.3334 119.661 48.9474C117.396 48.2612 116.969 48.2612 113.592 48.9045C111.583 49.2476 107.865 49.7623 105.301 50.0196C102.736 50.277 100.3 50.663 99.8302 50.9203C99.3173 51.2205 98.7189 51.1348 97.8214 50.663C96.0691 49.7623 94.274 49.8481 92.9064 50.9203L91.7524 51.821L88.6752 50.4485C86.5382 49.505 84.7004 49.0332 82.5207 48.8616C79.4435 48.6043 79.4435 48.6043 77.9476 50.1054L76.4945 51.5636L75.0841 50.7916C72.9898 49.6765 66.3652 50.0196 61.4502 51.4779C59.4414 52.0783 57.7746 52.3785 57.6891 52.1641C57.219 50.7916 55.5949 49.505 53.5007 48.9045C51.3637 48.3041 50.8081 48.3041 47.4317 48.9045C45.3802 49.2476 41.6191 49.7623 39.012 50.0625C36.4476 50.3199 33.9688 50.7488 33.5414 50.9632C32.4729 51.5208 31.5326 53.8797 31.5326 55.9812V57.6539L30.2932 56.5388C28.5409 54.8661 22.8565 51.5208 18.8817 49.8052C14.3514 47.8323 11.2314 47.7036 9.26538 49.505C7.94046 50.7059 7.89772 50.8774 7.81225 54.3514C7.81225 56.3243 7.55581 58.5117 7.25663 59.155C6.95746 59.8413 6.74376 60.6561 6.74376 60.9993C6.74376 61.9857 7.94046 64.0444 8.66703 64.3017C9.00895 64.4733 9.30812 64.988 9.30812 65.4597C9.30812 65.9315 9.47908 66.3175 9.69278 66.3175C10.0347 66.3175 10.3339 67.8186 11.0177 73.7802C11.3596 76.7825 11.6161 77.3829 12.8128 78.6267C14.6933 80.5567 16.7875 80.5996 18.6681 78.7125C19.3946 77.9834 19.993 76.954 19.993 76.3965C19.993 75.8818 20.2921 74.8954 20.6341 74.2091L21.2324 73.0082L21.6598 74.0805C23.7968 79.6132 24.3524 80.1278 27.9425 79.7847C30.9343 79.4845 31.1052 79.5274 33.6268 80.0421C35.3792 80.4281 38.0717 80.3852 45.7221 79.8276L55.5522 79.1414L56.5779 80.2565C57.9883 81.8005 59.7834 81.629 65.425 79.4416C70.0408 77.6403 76.409 75.7531 77.7766 75.7531C78.1613 75.7531 78.6742 76.3107 78.9733 77.0398C80.2128 79.9992 83.1191 81.3716 85.0851 79.8705C85.6407 79.4416 86.3245 79.3987 87.8631 79.6989C90.1711 80.1278 93.1628 79.7847 94.9151 78.884C95.9409 78.3694 96.1546 78.3694 96.9666 79.1414C97.4795 79.6132 98.7617 80.0849 100.044 80.2136C102.736 80.5567 121.755 79.3129 122.311 78.7554C122.525 78.5409 123.337 78.7125 124.32 79.2272C126.072 80.1278 129.876 80.3423 131.671 79.6561C133.509 78.9698 135.902 76.4823 136.928 74.3378L137.868 72.2362L138.125 73.5658C138.253 74.2949 138.509 75.4958 138.638 76.182C138.766 76.9111 139.321 78.0263 139.877 78.7125C140.86 79.8705 140.903 79.9992 140.304 82.1436L139.706 84.4167L142.441 81.8005C144.621 79.6989 145.39 79.1843 146.16 79.3987C147.014 79.6132 147.314 79.27 148.724 76.3107C149.579 74.4665 150.519 72.1933 150.818 71.2498L151.331 69.5342L153.383 73.9089C155.434 78.2836 156.674 79.6132 158.725 79.6132C160.007 79.6132 163.982 77.4687 164.495 76.5251C165.563 74.5094 163.939 52.7645 162.572 50.4914C162.016 49.6336 159.537 48.733 157.571 48.733C156.161 48.733 155.562 48.9903 154.366 50.1912C153.425 51.1348 152.912 52.0783 152.912 52.8074V53.9654L151.801 52.6359C151.203 51.9068 150.134 50.9203 149.451 50.4056C148.254 49.5479 148.083 49.5479 146.502 50.1912C144.92 50.8345 144.749 50.8345 143.339 49.9767C141.33 48.7759 138.424 49.2047 136.714 50.9203C135.603 51.9925 135.475 52.0354 134.834 51.435C134.235 50.8345 134.235 50.6201 134.791 49.5479C135.133 48.8616 135.347 48.1754 135.304 48.0038C135.09 47.1461 135.988 45.6449 136.971 45.2589L138.082 44.83L137.783 35.3087C137.655 30.0762 137.27 23.9859 136.971 21.7986C136.672 19.6541 136.501 17.8528 136.586 17.8528C137.013 17.8528 143.424 21.3697 144.365 22.1417L145.433 22.9566L144.322 25.0153C143.681 26.1304 142.27 29.2184 141.202 31.8775C139.236 36.5095 139.193 36.7669 139.492 39.6833C139.834 43.286 140.774 44.9587 143.04 46.1596C144.877 47.0603 148.254 47.3176 150.049 46.6314C152.015 45.8594 153.639 43.5863 157.443 36.2951C160.093 31.1913 161.589 28.7466 162.315 28.3606C164.837 27.031 167.145 23.3855 166.931 20.9408C166.888 20.1259 167.572 18.7105 169.111 16.4374C172.102 11.9341 173 9.91827 173 7.30203C173 4.6429 171.803 2.62711 169.367 1.25465C167.999 0.482649 167.059 0.353981 163.854 0.353981C161.247 0.353981 159.708 0.568427 159.067 0.997319C158.554 1.34043 157.101 3.09889 155.862 4.90023C154.622 6.70158 153.596 8.24559 153.511 8.33137C153.468 8.41714 151.801 7.64514 149.878 6.65869C142.057 2.75577 139.663 1.89799 136.8 2.06955C134.791 2.19822 133.893 2.45555 133.124 3.18467L132.141 4.12823L130.175 3.056C127.098 1.42621 123.251 1.72643 121.713 3.69934C121.585 3.87089 121.072 4.51423 120.559 5.20046L119.576 6.40135L117.866 4.6429C115.686 2.49844 112.908 1.34043 110.729 1.68355C109.447 1.89799 108.549 2.54133 106.455 4.77157C104.959 6.31558 103.762 7.3878 103.762 7.17336C103.762 6.91602 103.164 6.05824 102.437 5.24335L101.155 3.74223L102.053 1.98377C102.565 0.997319 102.907 0.0966465 102.822 0.0108681C102.736 -0.0749102 101.924 0.353981 100.984 0.997319ZM46.3632 5.32912C47.3889 5.97246 48.03 7.60225 47.6026 8.33137C47.4744 8.54581 46.3204 9.23204 45.081 9.83249C43.2005 10.7332 42.4739 10.8618 40.9353 10.5616C39.7813 10.3472 38.7556 9.83249 38.2854 9.23204C37.5589 8.28848 37.4734 8.28848 37.6016 9.06048C37.6871 9.53226 38.2 10.1327 38.7983 10.4329C39.3967 10.7332 39.6104 10.9905 39.3112 10.9905C38.1145 10.9905 37.0887 10.0898 37.0887 8.9747C37.0887 7.60225 39.5676 5.15757 41.4909 4.60001C43.0722 4.12823 44.9955 4.42845 46.3632 5.32912ZM78.1613 4.81445C79.4435 5.20046 80.7257 5.58646 81.0248 5.67224C82.4352 6.05824 81.1958 7.94536 74.9986 14.7647C67.5619 22.9137 56.5779 35.8233 56.8343 36.0807C56.9198 36.1664 58.9286 33.8933 61.322 31.0197C67.4764 23.557 76.5372 14.2072 77.1783 14.5932C77.5202 14.8076 75.5542 17.1665 71.1948 21.8415C63.0743 30.4622 58.7149 35.3944 58.9713 35.6518C59.0568 35.7375 60.6809 35.6518 62.5614 35.4373C64.3992 35.2229 69.5279 34.8798 73.8874 34.7511C81.8369 34.4509 81.8369 34.4509 82.8199 35.4373C83.6319 36.2522 83.7602 36.2951 83.5037 35.6518C82.1361 32.092 81.9224 23.5141 83.0336 18.8392C83.4182 17.2523 84.6149 14.1214 85.6834 11.9341C87.4357 8.24559 88.376 6.87313 87.7349 8.84604C87.3075 10.1756 87.7776 9.87538 88.7607 8.2027C89.7864 6.44424 92.479 5.0289 94.8724 4.98601C96.0691 4.98601 96.6674 5.28624 97.4795 6.27269C98.0778 6.95891 98.8044 7.55936 99.0609 7.55936C99.7874 7.55936 101.967 12.6203 102.779 16.1801C103.249 18.3245 103.506 21.3268 103.506 25.3584C103.548 33.1642 102.608 36.5524 99.5737 39.8549C97.2658 42.2996 95.599 43.1574 92.9919 43.1574C89.4445 43.1574 87.2648 42.0423 85.1706 39.2116C84.6577 38.5253 84.3585 38.3967 84.2303 38.7827C84.1021 39.0829 83.7174 39.5547 83.4182 39.8549C83.0763 40.1551 82.4352 40.7127 82.0506 41.0987C81.324 41.8278 74.2293 42.4711 57.1762 43.3718C53.2442 43.5434 53.1587 43.5434 55.0393 42.9858C57.4754 42.2138 56.7061 42.1709 52.8596 42.7714C50.167 43.2431 49.8251 43.2003 49.013 42.4711C48.3292 41.8707 48.201 41.356 48.3719 40.3696C48.5429 39.6833 48.6711 38.3109 48.7566 37.3673C48.8421 36.0378 49.5259 34.6224 51.9193 31.1055C55.082 26.4306 60.168 19.8257 63.8009 15.7083C64.9121 14.4216 65.6814 13.3494 65.425 13.2636C65.2113 13.1778 62.5614 13.6925 59.5697 14.4216L54.1418 15.7083L52.6459 14.5932C51.5346 13.7354 51.1927 13.135 51.1927 12.1056C51.1927 10.0898 52.0048 7.68803 52.7314 7.3878C53.116 7.21625 55.8513 6.91602 58.8431 6.65869C64.1428 6.2298 74.2293 4.77157 74.6139 4.34267C74.9986 3.99956 75.7679 4.08534 78.1613 4.81445ZM162.315 5.0289C162.315 5.24335 160.99 7.47358 159.323 9.91827C157.699 12.3629 156.332 14.6361 156.332 14.9363C156.332 15.1936 157.699 13.4352 159.366 10.9476C162.914 5.67224 163.768 4.72868 165.093 4.38556C166.461 4.04245 168.128 4.72868 168.726 5.88668C169.581 7.43069 168.812 9.48937 165.563 14.4645C162.828 18.6248 162.443 19.4825 162.614 20.6834C162.871 22.3561 161.503 24.5864 159.964 24.9724C158.682 25.2726 158.469 25.6586 154.152 33.9362C149.878 42.1709 149.109 43.1574 146.972 43.1574C145.219 43.1574 143.51 41.9136 143.51 40.6698C143.51 40.2838 144.365 38.0536 145.39 35.7375C146.416 33.4644 147.143 31.5773 146.972 31.5773C146.843 31.5773 145.903 33.25 144.92 35.3087C142.826 39.6833 142.954 38.1822 145.091 32.864C146.587 29.1755 146.843 28.7037 149.365 23.9859L150.818 21.3268L149.109 20.2546C148.211 19.6541 145.732 18.1959 143.638 17.0379C138.979 14.3787 135.945 12.2772 135.603 11.4194C135.09 10.1756 135.005 7.43069 135.432 6.6158C135.817 5.88668 136.201 5.75802 137.697 5.92957C139.578 6.14402 149.066 10.5187 152.613 12.7918C153.725 13.521 154.708 14.0356 154.75 13.9498C154.836 13.8641 155.904 12.1485 157.186 10.1327C158.469 8.11692 159.964 5.97246 160.52 5.32912C161.546 4.21401 162.315 4.08534 162.315 5.0289ZM113.122 6.05824C115.729 7.3878 119.362 12.6203 123.978 21.7128C125.132 23.943 126.115 25.8301 126.2 25.9159C126.542 26.3019 124.576 15.7512 123.123 9.44648C122.867 8.28848 124.918 5.84379 126.158 5.84379C127.91 5.84379 128.466 6.78736 129.577 11.8912C130.175 14.6361 130.731 17.3381 130.731 17.8957C130.773 18.6248 130.859 18.7105 130.987 18.1959C131.073 17.767 130.773 15.4939 130.303 13.0921C129.235 7.94536 129.235 7.55936 130.004 7.55936C130.603 7.55936 131.457 11.4194 132.611 19.7399C133.338 24.8866 134.278 38.654 133.979 40.1551C133.851 40.8842 133.765 40.584 133.68 39.2973C133.552 37.4102 133.509 37.4102 133.295 39.9407L133.039 42.514L130.816 42.6427C128.337 42.7714 127.995 42.4711 127.483 39.5118C127.312 38.5253 124.833 33.5073 121.798 27.9746L116.37 18.153L116.242 29.7759L116.157 41.356L114.703 42.4711C113.079 43.7149 111.583 43.8865 110.387 43.0287C109.746 42.514 109.575 41.5705 109.318 36.4667C109.062 31.0197 109.019 30.8482 108.891 34.1506L108.763 37.7962L108.464 33.2929C108.036 26.9453 107.651 8.9747 108.036 11.8483L108.335 14.2072L108.378 11.2907C108.464 9.14626 108.634 8.33137 109.105 8.15981C109.447 7.98825 109.746 7.64514 109.746 7.30203C109.746 6.87313 111.284 5.4149 111.797 5.4149C111.883 5.4149 112.481 5.71513 113.122 6.05824ZM12.1289 6.74447C17.3004 7.68803 25.4209 12.4916 30.7633 17.767C34.6098 21.5412 35.4646 24.1146 33.4131 26.0446C32.2592 27.1597 30.3786 27.2884 26.0192 26.645L24.0532 26.3448L27.0877 28.5322C30.5069 30.934 36.9178 37.1958 37.3024 38.4825C37.8153 40.0693 37.1315 41.4847 35.5929 42.128C34.3961 42.5998 32.2164 42.7285 25.4209 42.6427C19.6083 42.5569 15.4626 42.7285 12.77 43.1145L8.75251 43.7149L7.94046 42.7285C6.87198 41.3989 7.08568 39.6405 8.4106 39.0829C9.3936 38.654 9.3936 38.654 9.13717 33.5073C8.88073 28.7037 8.79525 28.3177 7.81225 27.5886C6.53006 26.645 6.40185 24.6292 7.51307 23.5141C8.15416 22.8708 8.1969 22.3561 7.81225 18.4961C7.38485 14.3358 7.34211 14.1643 5.80349 12.5774C2.68352 9.4036 3.92296 7.25914 9.35086 6.31558C9.47908 6.27269 10.7185 6.48713 12.1289 6.74447ZM41.4909 11.2907C41.1917 11.3765 40.6788 11.3765 40.4224 11.2907C40.1232 11.1621 40.3369 11.0763 40.9353 11.0763C41.5336 11.0763 41.7473 11.1621 41.4909 11.2907ZM44.5681 12.5345C45.5939 13.2207 45.6366 13.3494 45.3802 16.7376C45.252 18.6248 45.3374 22.0559 45.5511 24.2861L45.9358 28.3606L46.064 21.7128L46.1922 15.065L46.5341 23.4284C46.7051 28.0175 47.047 33.4215 47.3034 35.4373C47.9445 40.2838 47.9018 40.7127 47.1325 40.4125C46.7478 40.2838 46.235 40.584 45.8076 41.2274C44.269 43.5863 39.6958 41.8278 38.841 38.5253C38.0717 35.6518 37.3879 26.1304 37.6016 20.9408C37.7726 15.2794 38.2 14.1643 40.6361 12.7061C42.3029 11.6767 43.2005 11.6338 44.5681 12.5345ZM54.1845 19.5683C54.6546 19.5683 55.0393 19.6541 55.0393 19.7399C55.0393 19.8686 54.099 21.1981 52.945 22.6992L50.8508 25.487L50.5944 23.557C50.4662 22.4848 50.3379 20.855 50.3379 19.9543V18.3245L51.8338 18.9679C52.6459 19.2681 53.7144 19.5683 54.1845 19.5683ZM78.204 25.2297C78.1186 27.8888 77.9476 30.162 77.8194 30.2906C77.6057 30.5051 68.6304 31.0626 68.3312 30.8482C68.203 30.7624 78.1186 20.4261 78.3322 20.4261C78.375 20.4261 78.2895 22.6135 78.204 25.2297ZM131.286 45.5592C132.483 46.0309 132.013 47.2747 130.047 49.119C128.252 50.7916 127.312 51.2205 126.713 50.6201C126.115 50.0196 129.235 45.3018 130.261 45.3018C130.432 45.3018 130.902 45.4305 131.286 45.5592ZM17.685 52.0783C21.7025 53.751 27.9852 57.7397 29.9513 59.8841C31.2762 61.2995 31.4899 61.8142 31.2762 62.8006C30.806 64.6877 30.7206 64.7306 27.3441 64.4304L24.1387 64.1302L24.7798 65.1166C27.0022 68.5906 29.3956 74.0805 29.3956 75.7102C29.3956 76.6109 28.1562 77.34 26.9168 77.1256C25.8483 76.9969 25.5064 76.6109 24.908 74.9811C24.4806 73.866 23.2412 70.9924 22.0872 68.5478C20.0785 64.216 20.0357 64.1731 18.5398 64.1731H17.044L17.1294 70.4349C17.2149 75.9676 17.1294 76.7825 16.4883 77.2114C15.0779 78.0692 13.9667 76.3107 13.5821 72.6222C12.8128 65.7171 12.3426 64.0873 10.7613 62.5862C9.47908 61.3853 9.35086 61.0422 9.73552 60.313C9.99195 59.8413 10.5048 59.4553 10.8467 59.4553C11.3169 59.4553 11.4451 59.2408 11.2314 58.6832C10.633 57.225 10.5476 51.6065 11.1459 51.2205C12.1717 50.5343 14.8215 50.9203 17.685 52.0783ZM53.6289 51.7781C54.099 51.9496 54.6546 52.3357 54.8256 52.593C54.9538 52.8503 53.116 55.2092 50.7226 57.8684C43.6279 65.6313 43.0722 66.3175 47.3034 62.1144C49.4832 59.9699 51.4919 58.1686 51.7483 58.1686C52.2612 58.1686 52.0903 58.383 44.91 66.0602C42.0038 69.1482 39.6531 71.8502 39.6531 72.0647C39.6531 72.2791 40.7643 72.322 42.132 72.1933C43.4569 72.0218 46.8333 71.8073 49.6114 71.6358C54.099 71.3784 54.7401 71.4213 55.4667 72.1076C56.3215 72.8796 56.3215 72.8367 56.3215 71.55C56.3215 69.0624 55.3812 61.3853 54.9538 60.6133C54.3982 59.5839 55.3812 57.6539 56.8771 56.9677C57.5182 56.6675 61.3647 55.5523 65.3395 54.523C73.0326 52.5501 74.3575 52.5072 74.8276 54.2657C75.2123 55.7239 74.2293 56.3243 68.8014 57.9541C61.2792 60.1844 59.7406 60.8706 60.0398 62.0286C60.2107 62.6719 60.4672 62.8435 60.9801 62.6291C64.9548 60.8706 69.7844 59.3266 71.7504 59.155C74.0583 58.9406 74.1865 58.9835 75.0841 60.2701C76.8791 62.8006 76.0243 63.5726 69.8271 64.988C65.425 66.0173 60.5954 68.1189 60.5954 69.0624C60.5954 70.8638 60.9801 70.9924 63.288 70.006C68.0748 67.9044 74.6567 65.8028 75.6824 66.0602C77.5629 66.532 79.0161 71.5071 77.6057 72.6651C77.3065 72.8796 75.5114 73.48 73.6309 73.9518C71.7504 74.4236 67.8611 75.7102 64.9548 76.7825C62.0485 77.8547 59.5269 78.7554 59.3132 78.7554C58.5439 78.7554 56.7489 76.3965 56.7489 75.41V74.4236L55.7658 75.4958C54.7828 76.5251 54.3982 76.6109 47.7308 77.0398C43.8843 77.2543 39.5676 77.5545 38.1572 77.6831C36.4049 77.8118 35.8493 77.7689 36.4476 77.5116C37.0887 77.2114 36.7041 77.1256 34.9945 77.1685C32.4729 77.2543 31.5326 76.568 32.1737 75.0669C32.3447 74.5951 32.4729 73.9089 32.4301 73.4371C32.3447 73.0082 33.1567 71.3784 34.2252 69.7915C36.2767 66.6606 42.7303 58.4259 43.4569 57.9541C44.7818 57.1821 43.5851 57.0963 40.6361 57.7826C36.4476 58.8119 35.6783 58.8119 34.7381 57.7397C34.1825 57.0963 34.0542 56.4959 34.2252 55.3379C34.3961 54.4372 34.6526 53.5794 34.8235 53.4079C35.0372 53.1934 37.3879 52.8503 40.0805 52.593C42.7731 52.3357 46.1495 51.8639 47.5599 51.5636C50.0388 51.0061 51.7483 51.049 53.6289 51.7781ZM118.721 51.4779C119.918 51.821 120.687 52.3357 120.772 52.8074C120.901 53.2792 119.789 54.7374 117.781 56.839C112.139 62.7148 110.13 65.0737 113.891 61.4282C115.815 59.541 117.524 58.1257 117.695 58.2972C117.866 58.4259 115.9 60.7419 113.379 63.4011C110.857 66.0602 107.993 69.1911 107.053 70.3491L105.258 72.4507L108.036 72.1933C114.96 71.5071 120.302 71.3784 121.157 71.8073C121.969 72.2791 122.012 72.1933 121.67 70.4778C120.602 64.9451 122.097 57.2679 124.704 54.8232C125.303 54.2657 125.517 53.7081 125.303 53.365C125.132 53.0648 125.132 52.9361 125.346 53.1077C125.517 53.2792 126.158 53.0219 126.756 52.593C127.397 52.0783 128.466 51.7352 129.491 51.7352C133.167 51.7352 135.389 56.1099 135.731 64.0015C135.988 69.9631 135.261 72.8796 132.868 75.41C131.5 76.9111 130.944 77.1685 129.149 77.34C126.67 77.5974 124.704 76.7825 123.593 75.1098L122.952 74.0805L121.798 75.3671C120.644 76.6109 120.602 76.6109 113.806 77.0398C110.045 77.2543 105.728 77.5545 104.19 77.6831C102.181 77.8118 101.625 77.7689 102.266 77.4687C102.907 77.1256 102.736 77.0827 101.497 77.2543C98.6335 77.6831 98.1633 77.2971 98.377 74.7238C98.548 71.7644 100.642 68.5906 109.19 58.1686L110.13 57.0106L106.839 57.7826C102.608 58.8119 101.796 58.769 100.728 57.6968C100.044 57.0106 99.9156 56.5388 100.129 55.4666C100.3 54.6946 100.642 53.8368 100.941 53.5365C101.241 53.2363 103.548 52.8074 106.327 52.5501C109.019 52.2928 112.396 51.821 113.806 51.5208C115.216 51.2205 116.456 50.9632 116.584 50.9203C116.712 50.9203 117.652 51.1348 118.721 51.4779ZM87.8631 53.0219C89.4017 53.751 91.325 54.8232 92.0943 55.4237L93.5047 56.4959V55.2092C93.5047 53.0219 95.2998 51.9068 96.6674 53.2792C97.2231 53.7939 97.3085 54.9519 97.2231 60.0128L97.0948 66.1031H96.0691C95.2143 66.1031 94.8724 65.7171 94.2313 63.9586C93.291 61.3853 92.5645 60.5704 90.2993 59.2408C86.2818 56.9248 86.41 57.5252 90.9831 62.5433C95.599 67.6042 96.4965 69.234 96.4965 72.3649C96.4965 75.2814 94.1031 77.0827 90.2565 77.0827C88.9744 77.0827 87.2648 76.8683 86.4527 76.6109C85.0851 76.1391 84.8714 76.182 84.1448 77.0827C82.478 79.1414 81.4095 77.1685 79.8709 69.1053C78.4605 61.6426 78.6742 59.4553 80.9821 59.4553C82.2215 59.4553 82.5634 60.1844 83.4182 64.3875C84.3158 68.6764 85.427 71.0353 87.0511 72.0218C88.6324 72.9653 91.496 72.9653 92.3935 72.0647C93.0346 71.4642 92.9919 71.2498 92.1371 69.6629C91.5815 68.6764 88.8461 65.5884 86.0253 62.8006C83.2473 59.9699 80.4692 57.0535 79.9563 56.3243C78.8024 54.7374 78.7169 53.1934 79.7426 52.0354C80.7684 50.8774 84.1448 51.2634 87.8631 53.0219ZM159.238 51.821C159.537 52.1212 159.751 52.8074 159.794 53.4079L159.836 54.523L160.135 53.4508C160.392 52.6359 160.563 53.1077 160.947 55.5952C161.76 60.7848 162.315 66.3175 162.315 69.5771C162.315 71.7644 162.486 72.7938 162.956 73.1798C163.939 73.9947 163.726 74.7667 162.486 75.0669C161.888 75.2385 160.862 75.7531 160.221 76.2249C159.494 76.7396 158.768 76.954 158.298 76.7825C157.913 76.6109 156.802 74.8954 155.904 72.9653C153.895 68.5478 150.391 63.0579 149.963 63.5726C149.793 63.7871 149.28 65.5884 148.895 67.6042C148.168 71.1211 145.86 76.9969 145.433 76.5251C145.305 76.3965 145.39 75.7531 145.647 75.1098C146.373 73.1369 145.818 73.4371 144.835 75.5387C143.766 77.8118 142.57 78.112 141.672 76.2678C141.33 75.6245 140.433 70.1347 139.621 64.0444C138.082 51.8639 138.125 51.3063 140.518 52.7217C141.843 53.4937 142.228 53.2363 141.287 52.207C140.817 51.7352 140.903 51.6923 141.629 52.0783C142.826 52.7217 143.724 56.3672 144.407 63.1008C145.134 70.006 145.818 68.2046 145.519 60.2273C145.262 53.365 145.519 52.6788 148.51 52.979C148.98 53.0219 150.946 55.9383 154.708 62.243C155.819 64.1302 156.759 65.4597 156.759 65.2453C156.759 64.988 156.46 62.2002 156.118 59.0264C155.605 54.0083 155.605 53.1077 156.161 52.2499C156.845 51.2205 158.426 51.0061 159.238 51.821ZM69.357 52.8503C69.1433 52.9361 66.4507 53.6652 63.3735 54.4372C60.339 55.2521 57.4327 56.0241 56.9626 56.1957C56.2787 56.453 56.236 56.453 56.7489 56.067C58.1593 55.0377 66.6644 52.6788 68.9296 52.6788C69.3997 52.6788 69.6134 52.7217 69.357 52.8503ZM36.5759 61.5997C36.2767 62.3717 30.8488 70.1347 30.5923 70.1775C30.3786 70.1775 29.3956 67.8615 29.3956 67.3469C29.3956 67.2611 29.823 67.1753 30.3786 67.1753C31.9173 67.1753 33.6268 65.0737 33.926 62.8435C34.1825 60.9993 34.2252 60.9135 35.4646 61.085C36.1485 61.1708 36.6613 61.4282 36.5759 61.5997ZM102.907 61.5568C102.865 61.6855 102.224 62.5862 101.412 63.5297L99.9156 65.2453V63.1008V60.9135L101.412 61.085C102.224 61.1708 102.907 61.3853 102.907 61.5568ZM118.806 65.2024L118.678 68.7622L115.387 69.0195C113.592 69.1053 112.011 69.1482 111.925 69.0624C111.797 68.9338 118.678 61.5997 118.892 61.5997C118.935 61.5997 118.892 63.2295 118.806 65.2024ZM53.116 65.2453C53.287 67.0466 53.3724 68.5478 53.287 68.6335C53.2015 68.7193 51.4064 68.8909 49.3549 69.0195L45.5939 69.2769L48.8848 65.6742C50.7226 63.6584 52.3467 62.0286 52.5177 62.0286C52.6886 62.0286 52.945 63.4868 53.116 65.2453ZM18.2407 68.462C18.4544 70.4349 18.4544 72.4507 18.2834 72.9225C18.027 73.5658 17.8987 72.8796 17.8987 70.8209C17.856 69.1482 17.7278 67.0466 17.5568 66.1031C17.4286 65.1595 17.4286 64.4733 17.5568 64.6448C17.7278 64.7735 18.027 66.4891 18.2407 68.462ZM88.1623 68.8909C88.5897 69.3627 88.7179 69.7487 88.4615 69.7487C88.205 69.7487 87.7777 69.3627 87.5212 68.8909C87.2648 68.4191 87.1366 68.0331 87.222 68.0331C87.3075 68.0331 87.7349 68.4191 88.1623 68.8909Z" fill="white"/>
<path d="M93.5041 11.4619C93.5041 11.6763 93.2904 11.7621 92.9912 11.5905C92.7348 11.419 92.6493 11.4619 92.7775 11.7621C92.9485 11.9765 92.6921 13.8208 92.2219 15.8365C91.3244 19.6108 91.0252 26.3444 91.5381 31.3624C91.7518 33.5498 91.7091 33.7642 91.2817 32.8635C90.9825 32.1773 90.7688 29.3466 90.7688 25.3579C90.726 19.1819 90.8543 18.1955 92.3929 12.9201C92.5638 12.4483 92.2647 12.8343 91.8373 13.7779C91.3671 14.7214 90.6406 16.9088 90.2559 18.6672C89.5721 21.7124 89.5721 23.4279 90.2132 33.7213C90.2987 35.008 90.1704 35.2225 89.3584 35.1796C88.0335 35.1367 88.1189 35.5656 89.7003 37.1525C91.5381 38.9538 93.7178 38.868 95.0427 36.8522C97.6498 32.9493 97.6926 20.1255 95.1709 13.3061C94.4016 11.2474 93.5041 10.261 93.5041 11.4619Z" fill="white"/>
<path d="M59.1853 12.4921C57.7749 12.7923 56.3645 13.3499 55.9799 13.7359C55.0396 14.6795 55.5097 14.5937 59.9546 13.1355C63.9294 11.8488 63.5447 11.5057 59.1853 12.4921Z" fill="white"/>
<path d="M108.634 23.2137C108.634 26.988 108.719 28.4891 108.762 26.5162C108.847 24.5433 108.847 21.4553 108.762 19.6539C108.719 17.8526 108.634 19.4395 108.634 23.2137Z" fill="white"/>
<path d="M131.201 20.2127C131.201 20.8983 131.287 21.1553 131.415 20.7269C131.5 20.3413 131.5 19.7414 131.415 19.4415C131.287 19.1845 131.201 19.4844 131.201 20.2127Z" fill="white"/>
<path d="M131.629 23.2147C131.629 23.9003 131.714 24.1573 131.843 23.7289C131.928 23.3433 131.928 22.7435 131.843 22.4435C131.714 22.1865 131.629 22.4864 131.629 23.2147Z" fill="white"/>
<path d="M132.098 26.2163C132.098 27.1599 132.184 27.503 132.269 26.9454C132.354 26.4308 132.354 25.6588 132.269 25.2299C132.141 24.8439 132.055 25.2728 132.098 26.2163Z" fill="white"/>
<path d="M132.526 30.076C132.526 31.0196 132.611 31.3627 132.697 30.8051C132.782 30.2905 132.782 29.5185 132.697 29.0896C132.569 28.7036 132.483 29.1325 132.526 30.076Z" fill="white"/>
<path d="M132.954 34.5797C132.954 35.8664 133.04 36.4239 133.125 35.7377C133.211 35.0944 133.211 34.065 133.125 33.3788C133.04 32.7355 132.954 33.293 132.954 34.5797Z" fill="white"/>
<path d="M115.003 37.5833C115.003 39.341 115.088 40.0698 115.174 39.1695C115.259 38.3121 115.259 36.8544 115.174 35.9541C115.088 35.0967 115.003 35.8255 115.003 37.5833Z" fill="white"/>
<path d="M13.583 14.2074C13.583 14.5505 13.7967 16.2232 14.0531 17.9387L14.5233 21.0696L19.481 20.8981C22.2591 20.8552 24.567 20.6836 24.6952 20.555C24.8235 20.4263 24.0542 19.5685 23.0284 18.6678C19.6093 15.6227 13.583 12.792 13.583 14.2074Z" fill="white"/>
<path d="M15.889 31.6201C16.06 33.1213 16.3164 35.0942 16.4446 35.952L16.6583 37.5389L19.9493 37.3244C21.7443 37.1528 24.7361 37.2815 26.5739 37.5389C28.4544 37.7962 30.0358 37.9249 30.1212 37.8391C30.2067 37.7533 29.0955 36.6811 27.5996 35.4802C25.078 33.4215 18.9663 29.9475 16.6156 29.2184L15.5898 28.9181L15.889 31.6201Z" fill="white"/>
<path d="M39.9086 18.325C39.7804 19.0541 39.6949 21.8419 39.7377 24.4581L39.7804 29.2188L40.0796 23.2143C40.2078 19.9119 40.2933 17.167 40.2506 17.0812C40.2078 17.0383 40.0796 17.5958 39.9086 18.325Z" fill="white"/>
<path d="M15.5476 56.3266C15.804 56.498 16.1886 57.3126 16.3596 58.0843C16.5733 59.1561 16.787 59.4133 17.1289 59.0703C17.77 58.4273 19.1804 58.4701 20.2061 59.1989C20.6763 59.499 21.8302 59.8849 22.7705 60.0564C24.3946 60.3136 24.4373 60.3136 23.6253 59.6277C22.4713 58.6845 17.941 56.5838 16.3596 56.2408C15.633 56.0693 15.2911 56.1122 15.5476 56.3266Z" fill="white"/>
<path d="M39.0112 56.7542C37.9427 57.0113 37.1307 57.7396 37.9855 57.6968C39.0112 57.654 41.6611 56.4971 40.7208 56.54C40.2507 56.54 39.4814 56.6257 39.0112 56.7542Z" fill="white"/>
<path d="M63.7155 65.591C62.0487 66.2337 61.2366 66.962 62.7325 66.5336C64.0147 66.148 66.1089 65.0769 65.5106 65.0769C65.2969 65.0769 64.4848 65.3339 63.7155 65.591Z" fill="white"/>
<path d="M41.748 67.9052C41.1924 68.5908 41.2351 68.6336 41.919 68.0766C42.3036 67.7767 42.6455 67.4339 42.6455 67.3482C42.6455 67.0055 42.3036 67.2197 41.748 67.9052Z" fill="white"/>
<path d="M39.397 70.6935L38.585 71.6789L39.568 70.8648C40.4655 70.0936 40.7219 69.7509 40.38 69.7509C40.2945 69.7509 39.8671 70.1793 39.397 70.6935Z" fill="white"/>
<path d="M60.8102 77.4691C60.2546 77.7261 60.1691 77.8547 60.5965 77.8547C60.9384 77.8547 61.5367 77.6833 61.8786 77.4691C62.648 76.9549 61.9641 76.9549 60.8102 77.4691Z" fill="white"/>
<path d="M128.723 56.1526C128.467 56.4529 128.381 56.9675 128.467 57.2678C128.595 57.6109 128.467 57.7395 128.253 57.6109C127.783 57.3106 127.783 57.8253 127.612 65.4596C127.569 69.8772 127.484 70.4776 127.142 68.8907C126.971 67.8185 126.885 65.3309 126.971 63.3151C127.099 61.2136 127.013 60.1413 126.842 60.7418C126.372 62.2429 126.372 68.3332 126.8 70.3061C127.142 71.7643 127.099 71.9787 126.33 72.279C125.475 72.5792 125.475 72.6221 126.629 73.5228C128.509 75.0239 129.407 74.6808 130.433 72.279C131.458 69.8772 131.672 66.7892 131.159 62.586C130.774 59.4122 129.749 55.5522 129.279 55.5951C129.236 55.638 128.979 55.8524 128.723 56.1526Z" fill="white"/>
<path d="M105.044 56.7543C103.848 56.9685 102.779 57.7397 103.805 57.6969C104.104 57.6969 105.087 57.397 105.899 57.0971C107.395 56.5401 107.053 56.4115 105.044 56.7543Z" fill="white"/>
<path d="M109.275 66.1885L108.249 67.3894L109.446 66.3601C110.514 65.3736 110.813 65.0305 110.471 65.0305C110.386 65.0305 109.873 65.5452 109.275 66.1885Z" fill="white"/>
<path d="M106.71 69.1927C106.154 69.8782 106.197 69.9211 106.881 69.3641C107.565 68.8071 107.778 68.4643 107.436 68.4643C107.351 68.4643 107.009 68.8071 106.71 69.1927Z" fill="white"/>
<path d="M104.361 71.9801L103.549 72.9655L104.532 72.1515C105.429 71.3802 105.686 71.0375 105.344 71.0375C105.258 71.0375 104.831 71.4659 104.361 71.9801Z" fill="white"/>
<path d="M160.221 56.7108C160.221 57.1821 160.349 57.3106 160.478 56.9678C160.606 56.6679 160.563 56.2823 160.435 56.1538C160.307 55.9824 160.179 56.2395 160.221 56.7108Z" fill="white"/>
</svg>
