<svg width="165" height="89" viewBox="0 0 165 89" fill="none" xmlns="http://www.w3.org/2000/svg">
<path d="M130.449 19.0416C129.752 19.4965 129.588 19.536 129.014 19.3185C128.214 19.0416 126.779 19.0416 125.835 19.3185C125.446 19.4174 124.851 19.5558 124.523 19.5954C123.846 19.6943 122.965 20.2085 122.965 20.4854C122.965 20.604 122.719 20.426 122.411 20.1096C121.816 19.4965 119.54 18.7054 118.392 18.7054C118.064 18.7054 116.916 18.8834 115.829 19.0811C114.722 19.2987 112.323 19.6151 110.457 19.7931C108.591 19.9711 106.909 20.1491 106.725 20.2085C106.52 20.2678 106.028 20.07 105.597 19.7338C105.166 19.3976 104.469 19.0416 104.018 18.9031C101.947 18.2702 99.0968 19.5558 98.1331 21.5732C97.641 22.6016 97.641 23.195 98.1536 24.0059C99.0763 25.4496 98.4817 25.7463 97.0874 24.5399C94.5857 22.3643 91.0179 20.4854 88.4342 19.9514C83.472 18.9625 80.1912 22.2852 83.0824 25.4101C83.6155 25.9837 83.7591 26.3397 83.8616 27.2494C83.9231 27.8823 83.9026 28.4361 83.8001 28.4955C83.7181 28.535 83.5335 28.9899 83.4105 29.4844C83.1439 30.5128 83.349 31.6006 83.9846 32.3719C84.2102 32.6686 84.3947 33.3213 84.4768 34.0729C84.5588 35.1013 84.5178 35.3386 84.1897 35.6353C82.8774 36.7824 83.5745 39.5316 85.3585 40.3029C86.2607 40.6787 86.3222 40.6787 88.5573 40.3425C90.3617 40.0854 91.5715 40.026 94.2987 40.1249C97.0053 40.2238 97.9896 40.1842 98.9123 39.9469C99.5685 39.7887 100.184 39.5711 100.266 39.4722C100.368 39.3931 100.86 39.492 101.352 39.6898C101.947 39.9469 102.644 40.0656 103.526 40.0458C104.715 40.026 106.93 40.3029 107.319 40.5205C107.401 40.5798 109.329 40.5007 111.584 40.3425C113.84 40.204 117.039 39.9865 118.7 39.9074C120.914 39.7689 121.857 39.6305 122.227 39.4129C122.575 39.1756 122.78 39.1558 122.883 39.2942C122.944 39.4129 123.395 39.6898 123.867 39.8876C124.851 40.3227 127.414 40.4018 128.522 40.0458C129.547 39.7096 131.023 38.602 131.679 37.6922C132.315 36.8022 132.602 36.9011 132.602 38.0284C132.602 38.8987 133.75 40.1249 134.858 40.4414C135.944 40.7578 136.765 40.5798 137.974 39.8085C139.348 38.9185 139.676 38.1867 139.676 35.9518C139.676 34.3893 139.717 34.1717 139.943 34.4684C140.435 35.1013 141.153 36.5847 141.317 37.2967C141.399 37.6724 141.665 38.3647 141.932 38.8196L142.403 39.6502L141.932 40.5205C141.686 41.0149 141.419 41.6083 141.358 41.8654L141.214 42.34L140.907 41.9049C140.722 41.6478 140.107 41.3314 139.41 41.1534C138.323 40.8369 138.118 40.8369 136.498 41.1336C135.534 41.2918 133.75 41.5292 132.52 41.6478C131.29 41.7665 130.121 41.9445 129.895 42.0632C129.649 42.2016 129.362 42.162 128.932 41.9445C128.091 41.5292 127.23 41.5687 126.574 42.0632L126.02 42.4785L124.544 41.8456C123.518 41.4105 122.637 41.1929 121.591 41.1138C120.114 40.9951 120.114 40.9951 119.397 41.6874L118.7 42.3598L118.023 42.0038C117.018 41.4896 113.84 41.6478 111.482 42.3203C110.518 42.5972 109.718 42.7356 109.677 42.6367C109.452 42.0038 108.673 41.4105 107.668 41.1336C106.643 40.8567 106.376 40.8567 104.756 41.1336C103.772 41.2918 101.968 41.5292 100.717 41.6676C99.4864 41.7863 98.2971 41.984 98.0921 42.0829C97.5795 42.34 97.1284 43.4278 97.1284 44.397V45.1683L96.5337 44.6541C95.693 43.8827 92.9658 42.34 91.0589 41.5489C88.8853 40.6391 87.3885 40.5798 86.4452 41.4105C85.8096 41.9643 85.7891 42.0434 85.7481 43.6454C85.7481 44.5552 85.625 45.5639 85.4815 45.8605C85.338 46.177 85.2354 46.5528 85.2354 46.711C85.2354 47.1659 85.8096 48.1152 86.1582 48.2339C86.3222 48.313 86.4657 48.5503 86.4657 48.7679C86.4657 48.9855 86.5478 49.1635 86.6503 49.1635C86.8143 49.1635 86.9579 49.8557 87.2859 52.6048C87.45 53.9893 87.573 54.2662 88.1472 54.8397C89.0494 55.7297 90.0541 55.7495 90.9563 54.8793C91.3049 54.5431 91.592 54.0684 91.592 53.8113C91.592 53.5739 91.7355 53.1191 91.8996 52.8026L92.1866 52.2488L92.3917 52.7433C93.417 55.2946 93.6835 55.532 95.4059 55.3737C96.8413 55.2353 96.9233 55.2551 98.1331 55.4924C98.9738 55.6704 100.266 55.6506 103.936 55.3935L108.652 55.0771L109.144 55.5913C109.821 56.3033 110.682 56.2242 113.389 55.2155C115.603 54.3848 118.659 53.5146 119.315 53.5146C119.499 53.5146 119.745 53.7717 119.889 54.108C120.484 55.4726 121.878 56.1055 122.821 55.4133C123.088 55.2155 123.416 55.1957 124.154 55.3342C125.261 55.532 126.697 55.3737 127.537 54.9584C128.029 54.7211 128.132 54.7211 128.522 55.0771C128.768 55.2946 129.383 55.5122 129.998 55.5715C131.29 55.7297 140.414 55.1562 140.681 54.8991C140.784 54.8002 141.173 54.8793 141.645 55.1166C142.485 55.532 144.31 55.6309 145.172 55.3144C146.053 54.998 147.202 53.8508 147.694 52.8619L148.145 51.8928L148.268 52.5059C148.329 52.8422 148.452 53.3959 148.514 53.7124C148.575 54.0486 148.842 54.5628 149.109 54.8793C149.58 55.4133 149.601 55.4726 149.314 56.4615L149.027 57.5098L150.339 56.3033C151.385 55.3342 151.754 55.0969 152.123 55.1957C152.533 55.2946 152.676 55.1364 153.353 53.7717C153.763 52.9213 154.214 51.873 154.358 51.4379L154.604 50.6468L155.588 52.6642C156.572 54.6815 157.167 55.2946 158.151 55.2946C158.766 55.2946 160.673 54.3057 160.92 53.8706C161.432 52.9411 160.653 42.9136 159.997 41.8654C159.73 41.4698 158.541 41.0545 157.598 41.0545C156.921 41.0545 156.634 41.1731 156.06 41.7269C155.609 42.162 155.363 42.5972 155.363 42.9334V43.4674L154.83 42.8543C154.542 42.5181 154.03 42.0632 153.702 41.8258C153.128 41.4303 153.046 41.4303 152.287 41.7269C151.528 42.0236 151.446 42.0236 150.77 41.628C149.806 41.0743 148.411 41.272 147.591 42.0632C147.058 42.5576 146.997 42.5774 146.689 42.3005C146.402 42.0236 146.402 41.9247 146.669 41.4303C146.833 41.1138 146.935 40.7974 146.915 40.7183C146.812 40.3227 147.243 39.6305 147.714 39.4525L148.247 39.2547L148.104 34.864C148.042 32.4511 147.858 29.6426 147.714 28.6339C147.571 27.645 147.489 26.8143 147.53 26.8143C147.735 26.8143 150.811 28.4361 151.262 28.7921L151.774 29.1679L151.241 30.1173C150.934 30.6315 150.257 32.0555 149.744 33.2817C148.801 35.4178 148.781 35.5364 148.924 36.8813C149.088 38.5427 149.539 39.314 150.626 39.8678C151.508 40.2831 153.128 40.4018 153.989 40.0854C154.932 39.7294 155.711 38.6811 157.536 35.3189C158.807 32.9653 159.525 31.8379 159.874 31.6599C161.084 31.0468 162.191 29.3657 162.088 28.2383C162.068 27.8626 162.396 27.2099 163.134 26.1617C164.569 24.085 165 23.1554 165 21.9489C165 20.7227 164.426 19.7931 163.257 19.1602C162.601 18.8042 162.15 18.7449 160.612 18.7449C159.361 18.7449 158.623 18.8438 158.315 19.0416C158.069 19.1998 157.372 20.0107 156.777 20.8414C156.183 21.6721 155.691 22.3841 155.65 22.4236C155.629 22.4632 154.83 22.1072 153.907 21.6523C150.154 19.8525 149.006 19.4569 147.632 19.536C146.669 19.5954 146.238 19.714 145.869 20.0503L145.397 20.4854L144.454 19.9909C142.978 19.2394 141.132 19.3778 140.394 20.2876C140.332 20.3667 140.086 20.6634 139.84 20.9798L139.369 21.5336L138.549 20.7227C137.503 19.7338 136.17 19.1998 135.124 19.358C134.509 19.4569 134.078 19.7536 133.074 20.782C132.356 21.4941 131.782 21.9885 131.782 21.8896C131.782 21.7709 131.495 21.3754 131.146 20.9996L130.531 20.3074L130.962 19.4965C131.208 19.0416 131.372 18.6262 131.331 18.5867C131.29 18.5471 130.9 18.7449 130.449 19.0416ZM104.244 21.0392C104.736 21.3358 105.043 22.0874 104.838 22.4236C104.777 22.5225 104.223 22.839 103.628 23.1158C102.726 23.5312 102.378 23.5905 101.639 23.4521C101.086 23.3532 100.594 23.1158 100.368 22.839C100.02 22.4038 99.9786 22.4038 100.04 22.7598C100.081 22.9774 100.327 23.2543 100.614 23.3927C100.901 23.5312 101.004 23.6499 100.86 23.6499C100.286 23.6499 99.794 23.2345 99.794 22.7203C99.794 22.0874 100.983 20.96 101.906 20.7029C102.665 20.4854 103.587 20.6238 104.244 21.0392ZM119.499 20.8018C120.114 20.9798 120.73 21.1578 120.873 21.1974C121.55 21.3754 120.955 22.2456 117.982 25.3903C114.414 29.1481 109.144 35.1013 109.267 35.22C109.308 35.2595 110.272 34.2113 111.42 32.8862C114.373 29.4448 118.72 25.1332 119.028 25.3112C119.192 25.4101 118.249 26.4979 116.157 28.6537C112.261 32.6291 110.17 34.9035 110.293 35.0222C110.334 35.0618 111.113 35.0222 112.015 34.9233C112.897 34.8244 115.357 34.6662 117.449 34.6069C121.263 34.4684 121.263 34.4684 121.734 34.9233C122.124 35.2991 122.186 35.3189 122.062 35.0222C121.406 33.3806 121.304 29.425 121.837 27.2692C122.021 26.5374 122.596 25.0936 123.108 24.085C123.949 22.3841 124.4 21.7512 124.092 22.661C123.887 23.2741 124.113 23.1356 124.585 22.3643C125.077 21.5534 126.369 20.9007 127.517 20.8809C128.091 20.8809 128.378 21.0194 128.768 21.4743C129.055 21.7907 129.403 22.0676 129.526 22.0676C129.875 22.0676 130.921 24.4014 131.31 26.043C131.536 27.0319 131.659 28.4163 131.659 30.2755C131.679 33.8751 131.228 35.4375 129.772 36.9604C128.665 38.0878 127.865 38.4833 126.615 38.4833C124.913 38.4833 123.867 37.9691 122.862 36.6638C122.616 36.3473 122.473 36.288 122.411 36.466C122.35 36.6044 122.165 36.822 122.021 36.9604C121.857 37.0989 121.55 37.356 121.365 37.534C121.017 37.8702 117.613 38.1669 109.431 38.5822C107.545 38.6613 107.504 38.6613 108.406 38.4042C109.575 38.0482 109.206 38.0284 107.36 38.3053C106.069 38.5229 105.905 38.5031 105.515 38.1669C105.187 37.89 105.125 37.6527 105.207 37.1978C105.289 36.8813 105.351 36.2484 105.392 35.8133C105.433 35.2002 105.761 34.5475 106.909 32.9257C108.427 30.7699 110.867 27.7241 112.61 25.8254C113.143 25.2321 113.512 24.7376 113.389 24.6981C113.286 24.6585 112.015 24.8959 110.58 25.2321L107.976 25.8254L107.258 25.3112C106.725 24.9156 106.561 24.6388 106.561 24.1641C106.561 23.2345 106.95 22.1269 107.299 21.9885C107.483 21.9094 108.796 21.7709 110.231 21.6523C112.774 21.4545 117.613 20.782 117.797 20.5843C117.982 20.426 118.351 20.4656 119.499 20.8018ZM159.874 20.9007C159.874 20.9996 159.238 22.0281 158.438 23.1554C157.659 24.2827 157.003 25.331 157.003 25.4694C157.003 25.5881 157.659 24.7772 158.459 23.6301C160.161 21.1974 160.571 20.7623 161.207 20.604C161.863 20.4458 162.662 20.7623 162.95 21.2963C163.36 22.0083 162.991 22.9576 161.432 25.2519C160.12 27.1703 159.935 27.5659 160.017 28.1197C160.14 28.891 159.484 29.9195 158.746 30.0975C158.131 30.2359 158.028 30.4139 155.957 34.2311C153.907 38.0284 153.538 38.4833 152.512 38.4833C151.672 38.4833 150.852 37.9098 150.852 37.3362C150.852 37.1582 151.262 36.1298 151.754 35.0618C152.246 34.0135 152.594 33.1433 152.512 33.1433C152.451 33.1433 152 33.9146 151.528 34.864C150.523 36.8813 150.585 36.1891 151.61 33.7366C152.328 32.0357 152.451 31.8182 153.661 29.6426L154.358 28.4163L153.538 27.9219C153.107 27.645 151.918 26.9726 150.913 26.4385C148.678 25.2123 147.222 24.2432 147.058 23.8476C146.812 23.2741 146.771 22.0083 146.976 21.6325C147.161 21.2963 147.345 21.2369 148.063 21.316C148.965 21.4149 153.517 23.4323 155.219 24.4805C155.752 24.8168 156.224 25.0541 156.244 25.0145C156.285 24.975 156.798 24.1839 157.413 23.2543C158.028 22.3247 158.746 21.3358 159.013 21.0392C159.505 20.5249 159.874 20.4656 159.874 20.9007ZM136.272 21.3754C137.523 21.9885 139.266 24.4014 141.481 28.5943C142.034 29.6228 142.506 30.493 142.547 30.5326C142.711 30.7106 141.768 25.8452 141.071 22.9378C140.948 22.4038 141.932 21.2765 142.526 21.2765C143.367 21.2765 143.634 21.7116 144.167 24.0652C144.454 25.331 144.721 26.577 144.721 26.8341C144.741 27.1703 144.782 27.2099 144.844 26.9726C144.885 26.7748 144.741 25.7265 144.515 24.619C144.003 22.2456 144.003 22.0676 144.372 22.0676C144.659 22.0676 145.069 23.8476 145.623 27.6846C145.971 30.0579 146.422 36.4067 146.279 37.0989C146.217 37.4351 146.176 37.2967 146.135 36.7033C146.074 35.8331 146.053 35.8331 145.951 37L145.828 38.1867L144.762 38.246C143.572 38.3053 143.408 38.1669 143.162 36.8022C143.08 36.3473 141.891 34.0333 140.435 31.4819L137.831 26.9528L137.769 32.3126L137.728 37.6527L137.031 38.1669C136.252 38.7405 135.534 38.8196 134.96 38.424C134.653 38.1867 134.571 37.7516 134.448 35.398C134.324 32.8862 134.304 32.8071 134.242 34.33L134.181 36.0111L134.037 33.9344C133.832 31.0073 133.648 22.7203 133.832 24.0454L133.976 25.1332L133.996 23.7883C134.037 22.7994 134.119 22.4236 134.345 22.3445C134.509 22.2654 134.653 22.1072 134.653 21.9489C134.653 21.7512 135.391 21.0787 135.637 21.0787C135.678 21.0787 135.965 21.2172 136.272 21.3754ZM87.8191 21.6918C90.3002 22.1269 94.1961 24.3421 96.7593 26.7748C98.6047 28.5152 99.0148 29.7019 98.0306 30.5919C97.4769 31.1062 96.5747 31.1655 94.4832 30.8688L93.54 30.7304L94.9958 31.739C96.6362 32.8466 99.712 35.7342 99.8965 36.3275C100.143 37.0593 99.8145 37.712 99.0763 38.0087C98.5022 38.2262 97.4564 38.2856 94.1961 38.246C91.4075 38.2064 89.4185 38.2856 88.1267 38.4636L86.1992 38.7405L85.8096 38.2856C85.297 37.6724 85.3995 36.8615 86.0351 36.6044C86.5068 36.4067 86.5068 36.4067 86.3837 34.0333C86.2607 31.8182 86.2197 31.6402 85.7481 31.3039C85.1329 30.8688 85.0714 29.9393 85.6045 29.425C85.9121 29.1284 85.9326 28.891 85.7481 27.111C85.543 25.1925 85.5225 25.1134 84.7843 24.3816C83.2875 22.9181 83.8821 21.9292 86.4863 21.4941C86.5478 21.4743 87.1424 21.5732 87.8191 21.6918ZM101.906 23.7883C101.762 23.8279 101.516 23.8279 101.393 23.7883C101.25 23.729 101.352 23.6894 101.639 23.6894C101.927 23.6894 102.029 23.729 101.906 23.7883ZM103.382 24.3619C103.875 24.6783 103.895 24.7376 103.772 26.3001C103.71 27.1703 103.751 28.7526 103.854 29.781L104.039 31.6599L104.1 28.5943L104.162 25.5288L104.326 29.3855C104.408 31.5017 104.572 33.9937 104.695 34.9233C105.002 37.1582 104.982 37.356 104.613 37.2176C104.428 37.1582 104.182 37.2967 103.977 37.5933C103.239 38.6811 101.045 37.8702 100.635 36.3473C100.266 35.0222 99.9375 30.6315 100.04 28.2383C100.122 25.6277 100.327 25.1134 101.496 24.441C102.296 23.9663 102.726 23.9465 103.382 24.3619ZM107.996 27.6054C108.222 27.6054 108.406 27.645 108.406 27.6846C108.406 27.7439 107.955 28.357 107.401 29.0492L106.397 30.3348L106.274 29.4448C106.212 28.9504 106.151 28.1988 106.151 27.7835V27.0319L106.868 27.3286C107.258 27.467 107.77 27.6054 107.996 27.6054ZM119.52 30.2161C119.479 31.4424 119.397 32.4906 119.335 32.5499C119.233 32.6488 114.927 32.906 114.783 32.8071C114.722 32.7675 119.479 28.001 119.581 28.001C119.602 28.001 119.561 29.0097 119.52 30.2161ZM144.987 39.5909C145.561 39.8085 145.336 40.382 144.392 41.2325C143.531 42.0038 143.08 42.2016 142.793 41.9247C142.506 41.6478 144.003 39.4722 144.495 39.4722C144.577 39.4722 144.803 39.5316 144.987 39.5909ZM90.4847 42.5972C92.4122 43.3685 95.4264 45.2079 96.3697 46.1968C97.0053 46.8494 97.1079 47.0868 97.0053 47.5417C96.7798 48.4119 96.7388 48.4317 95.1189 48.2932L93.581 48.1548L93.8886 48.6097C94.9548 50.2117 96.1031 52.7433 96.1031 53.4948C96.1031 53.9102 95.5085 54.2464 94.9138 54.1475C94.4012 54.0882 94.2372 53.9102 93.9501 53.1586C93.745 52.6444 93.1504 51.3193 92.5968 50.1919C91.633 48.1943 91.6125 48.1746 90.8948 48.1746H90.1772L90.2182 51.0621C90.2592 53.6135 90.2182 53.9893 89.9106 54.1871C89.2339 54.5826 88.7008 53.7717 88.5162 52.0708C88.1472 48.8866 87.9216 48.135 87.1629 47.4428C86.5478 46.889 86.4863 46.7308 86.6708 46.3945C86.7938 46.177 87.0399 45.999 87.2039 45.999C87.4295 45.999 87.491 45.9001 87.3885 45.643C87.1014 44.9705 87.0604 42.3796 87.3475 42.2016C87.8396 41.8852 89.1109 42.0632 90.4847 42.5972ZM107.729 42.4587C107.955 42.5378 108.222 42.7158 108.304 42.8345C108.365 42.9532 107.483 44.041 106.335 45.2672C102.931 48.847 102.665 49.1635 104.695 47.2252C105.74 46.2363 106.704 45.4056 106.827 45.4056C107.073 45.4056 106.991 45.5045 103.546 49.0448C102.152 50.4688 101.024 51.7148 101.024 51.8137C101.024 51.9126 101.557 51.9324 102.214 51.873C102.849 51.7939 104.469 51.695 105.802 51.6159C107.955 51.4973 108.263 51.517 108.611 51.8335C109.021 52.1895 109.021 52.1697 109.021 51.5764C109.021 50.4292 108.57 46.889 108.365 46.533C108.099 46.0583 108.57 45.1683 109.288 44.8519C109.595 44.7134 111.441 44.1992 113.348 43.7245C117.039 42.8147 117.674 42.7949 117.9 43.6058C118.084 44.2783 117.613 44.5552 115.009 45.3067C111.4 46.3352 110.662 46.6517 110.805 47.1857C110.887 47.4823 111.01 47.5614 111.256 47.4625C113.163 46.6517 115.48 45.9396 116.424 45.8605C117.531 45.7616 117.592 45.7814 118.023 46.3748C118.884 47.5417 118.474 47.8977 115.501 48.5503C113.389 49.025 111.072 49.9941 111.072 50.4292C111.072 51.2599 111.256 51.3193 112.364 50.8644C114.66 49.8952 117.818 48.9261 118.31 49.0448C119.212 49.2623 119.909 51.5566 119.233 52.0906C119.089 52.1895 118.228 52.4664 117.326 52.6839C116.424 52.9015 114.558 53.4948 113.163 53.9893C111.769 54.4837 110.559 54.8991 110.457 54.8991C110.088 54.8991 109.226 53.8113 109.226 53.3564V52.9015L108.755 53.3959C108.283 53.8706 108.099 53.9102 104.9 54.108C103.054 54.2068 100.983 54.3453 100.307 54.4046C99.4659 54.464 99.1994 54.4442 99.4864 54.3255C99.794 54.1871 99.6095 54.1475 98.7893 54.1673C97.5795 54.2068 97.1284 53.8904 97.4359 53.1982C97.518 52.9806 97.5795 52.6642 97.559 52.4466C97.518 52.2488 97.9076 51.4973 98.4202 50.7655C99.4044 49.3217 102.501 45.5243 102.849 45.3067C103.485 44.9507 102.911 44.9112 101.496 45.2276C99.4864 45.7023 99.1173 45.7023 98.6662 45.2079C98.3997 44.9112 98.3382 44.6343 98.4202 44.1003C98.5022 43.685 98.6252 43.2894 98.7072 43.2103C98.8098 43.1114 99.9375 42.9532 101.229 42.8345C102.521 42.7158 104.141 42.4983 104.818 42.3598C106.007 42.1027 106.827 42.1225 107.729 42.4587ZM138.959 42.3203C139.533 42.4785 139.902 42.7158 139.943 42.9334C140.004 43.1509 139.471 43.8234 138.508 44.7925C135.801 47.5021 134.837 48.5899 136.642 46.9088C137.564 46.0385 138.384 45.3859 138.466 45.465C138.549 45.5243 137.605 46.5923 136.395 47.8186C135.186 49.0448 133.812 50.4886 133.361 51.0226L132.5 51.9917L133.832 51.873C137.154 51.5566 139.717 51.4973 140.127 51.695C140.517 51.9126 140.538 51.873 140.373 51.0819C139.861 48.5306 140.579 44.9903 141.829 43.863C142.116 43.6058 142.219 43.3487 142.116 43.1905C142.034 43.0521 142.034 42.9927 142.137 43.0718C142.219 43.1509 142.526 43.0323 142.814 42.8345C143.121 42.5972 143.634 42.4389 144.126 42.4389C145.889 42.4389 146.956 44.4563 147.12 48.0954C147.243 50.8446 146.894 52.1895 145.746 53.3564C145.09 54.0486 144.823 54.1673 143.962 54.2464C142.773 54.3651 141.829 53.9893 141.296 53.2179L140.989 52.7433L140.435 53.3366C139.881 53.9102 139.861 53.9102 136.601 54.108C134.796 54.2068 132.725 54.3453 131.987 54.4046C131.023 54.464 130.757 54.4442 131.064 54.3057C131.372 54.1475 131.29 54.1277 130.695 54.2068C129.321 54.4046 129.096 54.2266 129.198 53.0399C129.28 51.6753 130.285 50.2117 134.386 45.4056L134.837 44.8716L133.258 45.2276C131.228 45.7023 130.839 45.6825 130.326 45.1881C129.998 44.8716 129.936 44.6541 130.039 44.1596C130.121 43.8036 130.285 43.4081 130.429 43.2696C130.572 43.1312 131.679 42.9334 133.012 42.8147C134.304 42.6961 135.924 42.4785 136.601 42.34C137.277 42.2016 137.872 42.0829 137.933 42.0632C137.995 42.0632 138.446 42.162 138.959 42.3203ZM124.154 43.0323C124.892 43.3685 125.815 43.863 126.184 44.1398L126.861 44.6343V44.041C126.861 43.0323 127.722 42.5181 128.378 43.1509C128.645 43.3883 128.686 43.9223 128.645 46.2561L128.583 49.0646H128.091C127.681 49.0646 127.517 48.8866 127.209 48.0757C126.758 46.889 126.41 46.5132 125.323 45.9001C123.395 44.8321 123.457 45.109 125.651 47.423C127.865 49.7568 128.296 50.5084 128.296 51.9522C128.296 53.2971 127.148 54.1277 125.302 54.1277C124.687 54.1277 123.867 54.0288 123.477 53.9102C122.821 53.6926 122.719 53.7124 122.37 54.1277C121.57 55.0771 121.058 54.1673 120.32 50.449C119.643 47.0077 119.745 45.999 120.853 45.999C121.447 45.999 121.611 46.3352 122.021 48.2734C122.452 50.2512 122.985 51.339 123.764 51.7939C124.523 52.229 125.897 52.229 126.328 51.8137C126.635 51.5368 126.615 51.4379 126.204 50.7061C125.938 50.2512 124.626 48.8272 123.272 47.5417C121.939 46.2363 120.607 44.8914 120.361 44.5552C119.807 43.8234 119.766 43.1114 120.258 42.5774C120.75 42.0434 122.37 42.2214 124.154 43.0323ZM158.397 42.4785C158.541 42.6169 158.643 42.9334 158.664 43.2103L158.684 43.7245L158.828 43.2301C158.951 42.8543 159.033 43.0718 159.218 44.219C159.607 46.6121 159.874 49.1635 159.874 50.6666C159.874 51.6753 159.956 52.1499 160.181 52.3279C160.653 52.7037 160.55 53.0597 159.956 53.1982C159.669 53.2773 159.177 53.5146 158.869 53.7322C158.52 53.9695 158.172 54.0684 157.946 53.9893C157.762 53.9102 157.229 53.1191 156.798 52.229C155.834 50.1919 154.153 47.6603 153.948 47.8977C153.866 47.9966 153.62 48.8272 153.435 49.7568C153.087 51.3786 151.979 54.0882 151.774 53.8706C151.713 53.8113 151.754 53.5146 151.877 53.2179C152.225 52.3082 151.959 52.4466 151.487 53.4157C150.975 54.464 150.4 54.6024 149.97 53.7519C149.806 53.4553 149.375 50.9237 148.986 48.1152C148.247 42.4983 148.268 42.2412 149.416 42.8938C150.052 43.2498 150.236 43.1312 149.785 42.6565C149.56 42.4389 149.601 42.4192 149.949 42.5972C150.523 42.8938 150.954 44.575 151.282 47.6801C151.631 50.8644 151.959 50.0337 151.815 46.355C151.692 43.1905 151.815 42.8741 153.251 43.0125C153.476 43.0323 154.419 44.3772 156.224 47.2845C156.757 48.1548 157.208 48.7679 157.208 48.669C157.208 48.5503 157.065 47.2648 156.901 45.8012C156.654 43.4872 156.654 43.0718 156.921 42.6763C157.249 42.2016 158.008 42.1027 158.397 42.4785ZM115.275 42.9532C115.173 42.9927 113.881 43.3289 112.405 43.685C110.949 44.0607 109.554 44.4167 109.329 44.4958C109.001 44.6145 108.98 44.6145 109.226 44.4365C109.903 43.9618 113.983 42.8741 115.07 42.8741C115.296 42.8741 115.398 42.8938 115.275 42.9532ZM99.548 46.9879C99.4044 47.3439 96.8003 50.9237 96.6773 50.9435C96.5747 50.9435 96.1031 49.8755 96.1031 49.6381C96.1031 49.5986 96.3082 49.559 96.5747 49.559C97.3129 49.559 98.1331 48.5899 98.2766 47.5614C98.3997 46.711 98.4202 46.6714 99.0148 46.7505C99.3429 46.7901 99.589 46.9088 99.548 46.9879ZM131.372 46.9681C131.351 47.0274 131.044 47.4428 130.654 47.8779L129.936 48.669V47.6801V46.6714L130.654 46.7505C131.044 46.7901 131.372 46.889 131.372 46.9681ZM139 48.6492L138.938 50.2908L137.359 50.4095C136.498 50.449 135.739 50.4688 135.698 50.4292C135.637 50.3699 138.938 46.9879 139.041 46.9879C139.061 46.9879 139.041 47.7394 139 48.6492ZM107.483 48.669C107.565 49.4997 107.606 50.1919 107.565 50.2315C107.524 50.271 106.663 50.3501 105.679 50.4095L103.875 50.5281L105.453 48.8668C106.335 47.9372 107.114 47.1857 107.196 47.1857C107.278 47.1857 107.401 47.8581 107.483 48.669ZM90.7513 50.1524C90.8538 51.0621 90.8538 51.9917 90.7718 52.2093C90.6488 52.5059 90.5873 52.1895 90.5873 51.2401C90.5668 50.4688 90.5052 49.4997 90.4232 49.0646C90.3617 48.6294 90.3617 48.313 90.4232 48.3921C90.5052 48.4514 90.6488 49.2426 90.7513 50.1524ZM124.298 50.3501C124.503 50.5677 124.564 50.7457 124.441 50.7457C124.318 50.7457 124.113 50.5677 123.99 50.3501C123.867 50.1326 123.805 49.9546 123.846 49.9546C123.887 49.9546 124.092 50.1326 124.298 50.3501Z" fill="#AC1213"/>
<path d="M126.86 23.8671C126.86 23.966 126.758 24.0055 126.614 23.9264C126.491 23.8473 126.45 23.8671 126.512 24.0055C126.594 24.1044 126.471 24.9549 126.245 25.8844C125.815 27.6249 125.671 30.73 125.917 33.0441C126.02 34.0527 125.999 34.1516 125.794 33.7363C125.651 33.4198 125.548 32.1145 125.548 30.2751C125.528 27.4271 125.589 26.9722 126.327 24.5395C126.409 24.322 126.266 24.5 126.061 24.9351C125.835 25.3702 125.487 26.3789 125.302 27.1898C124.974 28.594 124.974 29.3851 125.282 34.1318C125.323 34.7252 125.261 34.8241 124.871 34.8043C124.236 34.7845 124.277 34.9823 125.035 35.7141C125.917 36.5448 126.963 36.5052 127.599 35.5756C128.849 33.7758 128.87 27.8622 127.66 24.7175C127.291 23.7682 126.86 23.3133 126.86 23.8671Z" fill="#AC1213"/>
<path d="M110.395 24.3415C109.718 24.48 109.042 24.7373 108.857 24.9155C108.406 25.351 108.632 25.3114 110.764 24.6384C112.671 24.0445 112.487 23.8862 110.395 24.3415Z" fill="#AC1213"/>
<path d="M134.119 29.2863C134.119 31.0268 134.16 31.719 134.181 30.8092C134.222 29.8994 134.222 28.4754 134.181 27.6448C134.16 26.8141 134.119 27.5459 134.119 29.2863Z" fill="#AC1213"/>
<path d="M144.946 27.9024C144.946 28.2188 144.987 28.3374 145.049 28.1397C145.09 27.9617 145.09 27.6848 145.049 27.5464C144.987 27.4278 144.946 27.5662 144.946 27.9024Z" fill="#AC1213"/>
<path d="M145.151 29.2866C145.151 29.603 145.192 29.7217 145.254 29.5239C145.295 29.346 145.295 29.0691 145.254 28.9307C145.192 28.812 145.151 28.9505 145.151 29.2866Z" fill="#AC1213"/>
<path d="M145.377 30.6707C145.377 31.1061 145.418 31.2645 145.459 31.0072C145.5 30.7696 145.5 30.4133 145.459 30.2154C145.397 30.0372 145.356 30.2352 145.377 30.6707Z" fill="#AC1213"/>
<path d="M145.582 32.4504C145.582 32.8859 145.623 33.0443 145.664 32.7869C145.705 32.5494 145.705 32.1931 145.664 31.9952C145.602 31.817 145.561 32.015 145.582 32.4504Z" fill="#AC1213"/>
<path d="M145.787 34.5278C145.787 35.1212 145.828 35.3783 145.869 35.0618C145.91 34.7652 145.91 34.2905 145.869 33.974C145.828 33.6774 145.787 33.9345 145.787 34.5278Z" fill="#AC1213"/>
<path d="M137.175 35.9129C137.175 36.7234 137.216 37.0595 137.257 36.6443C137.298 36.2489 137.298 35.5768 137.257 35.1616C137.216 34.7662 137.175 35.1023 137.175 35.9129Z" fill="#AC1213"/>
<path d="M88.5161 25.1331C88.5161 25.2914 88.6186 26.0627 88.7417 26.8538L88.9672 28.2976L91.3458 28.2185C92.6786 28.1987 93.7859 28.1196 93.8474 28.0603C93.9089 28.0009 93.5398 27.6054 93.0477 27.19C91.4073 25.7858 88.5161 24.4805 88.5161 25.1331Z" fill="#AC1213"/>
<path d="M89.6235 33.163C89.7055 33.8552 89.8286 34.765 89.8901 35.1605L89.9926 35.8923L91.5715 35.7934C92.4327 35.7143 93.8681 35.7737 94.7498 35.8923C95.652 36.011 96.4107 36.0703 96.4517 36.0308C96.4927 35.9912 95.9596 35.4968 95.2419 34.943C94.0321 33.9936 91.0999 32.3916 89.9721 32.0554L89.48 31.9169L89.6235 33.163Z" fill="#AC1213"/>
<path d="M101.147 27.0321C101.086 27.3683 101.045 28.6539 101.065 29.8603L101.086 32.0557L101.229 29.2867C101.291 27.7638 101.332 26.4981 101.311 26.4585C101.291 26.4387 101.229 26.6958 101.147 27.0321Z" fill="#AC1213"/>
<path d="M89.4596 44.5562C89.5826 44.6352 89.7671 45.0109 89.8492 45.3667C89.9517 45.861 90.0542 45.9796 90.2182 45.8214C90.5258 45.5249 91.2025 45.5446 91.6946 45.8807C91.9202 46.0191 92.4738 46.197 92.9249 46.2761C93.7041 46.3947 93.7246 46.3947 93.335 46.0784C92.7814 45.6435 90.6078 44.6748 89.8492 44.5166C89.5006 44.4375 89.3365 44.4573 89.4596 44.5562Z" fill="#AC1213"/>
<path d="M100.717 44.7528C100.204 44.8715 99.8147 45.2077 100.225 45.1879C100.717 45.1681 101.988 44.6342 101.537 44.654C101.312 44.654 100.942 44.6935 100.717 44.7528Z" fill="#AC1213"/>
<path d="M112.569 48.828C111.769 49.1246 111.38 49.4608 112.097 49.263C112.712 49.085 113.717 48.5907 113.43 48.5907C113.327 48.5907 112.938 48.7093 112.569 48.828Z" fill="#AC1213"/>
<path d="M102.029 49.8954C101.763 50.2118 101.783 50.2316 102.111 49.9745C102.296 49.8361 102.46 49.6779 102.46 49.6383C102.46 49.4802 102.296 49.579 102.029 49.8954Z" fill="#AC1213"/>
<path d="M100.901 51.1809L100.512 51.6357L100.983 51.26C101.414 50.9041 101.537 50.7459 101.373 50.7459C101.332 50.7459 101.127 50.9436 100.901 51.1809Z" fill="#AC1213"/>
<path d="M111.174 54.3053C110.908 54.4242 110.867 54.4836 111.072 54.4836C111.236 54.4836 111.523 54.4044 111.687 54.3053C112.056 54.0676 111.728 54.0676 111.174 54.3053Z" fill="#AC1213"/>
<path d="M143.757 44.4759C143.634 44.6143 143.593 44.8517 143.634 44.9901C143.696 45.1483 143.634 45.2077 143.532 45.1483C143.306 45.0099 143.306 45.2472 143.224 48.7677C143.203 50.8048 143.162 51.0817 142.998 50.3499C142.916 49.8555 142.875 48.7084 142.916 47.7788C142.978 46.8097 142.937 46.3152 142.855 46.5921C142.629 47.2843 142.629 50.0928 142.834 51.0026C142.998 51.6751 142.978 51.7739 142.609 51.9124C142.199 52.0508 142.199 52.0706 142.752 52.486C143.655 53.1782 144.085 53.02 144.577 51.9124C145.069 50.8048 145.172 49.3808 144.926 47.4426C144.741 45.979 144.249 44.199 144.024 44.2188C144.003 44.2385 143.88 44.3374 143.757 44.4759Z" fill="#AC1213"/>
<path d="M132.397 44.7529C131.823 44.8518 131.31 45.2077 131.802 45.1879C131.946 45.1879 132.417 45.0495 132.807 44.9111C133.525 44.654 133.361 44.5947 132.397 44.7529Z" fill="#AC1213"/>
<path d="M134.427 49.1035L133.935 49.6577L134.509 49.1826C135.022 48.7274 135.165 48.569 135.001 48.569C134.96 48.569 134.714 48.8065 134.427 49.1035Z" fill="#AC1213"/>
<path d="M133.197 50.4889C132.93 50.8053 132.951 50.8251 133.279 50.568C133.607 50.311 133.709 50.1528 133.545 50.1528C133.504 50.1528 133.34 50.311 133.197 50.4889Z" fill="#AC1213"/>
<path d="M132.069 51.7742L131.679 52.229L132.151 51.8533C132.582 51.4973 132.705 51.3392 132.541 51.3392C132.5 51.3392 132.295 51.5369 132.069 51.7742Z" fill="#AC1213"/>
<path d="M158.869 44.7331C158.869 44.9507 158.931 45.01 158.992 44.8518C159.054 44.7134 159.033 44.5354 158.972 44.4761C158.91 44.397 158.849 44.5156 158.869 44.7331Z" fill="#AC1213"/>
<path fill-rule="evenodd" clip-rule="evenodd" d="M62.6991 4.02869C62.5171 4.02869 62.3351 4.02869 62.1531 4.02869C61.9711 4.02869 61.7891 4.02869 61.6071 4.02869C61.6597 3.39586 61.5991 2.7817 61.4251 2.18621C60.6996 2.09868 59.9716 2.06943 59.2411 2.09847C59.0061 2.14011 58.8241 2.08162 58.6951 1.92299C59.6506 1.72737 60.6212 1.69813 61.6071 1.83526C61.6981 1.92299 61.7891 2.01073 61.8801 2.09847C61.9707 2.68048 62.0011 3.26539 61.9711 3.85322C62.2621 3.80622 62.5047 3.86471 62.6991 4.02869Z" fill="#F9E322"/>
<path fill-rule="evenodd" clip-rule="evenodd" d="M58.6949 1.9231C58.824 2.08179 59.006 2.1403 59.2409 2.09864C57.9697 2.46834 56.6957 2.87795 55.4189 3.32747C56.421 2.69208 57.513 2.22395 58.6949 1.9231Z" fill="#F8C62E"/>
<path fill-rule="evenodd" clip-rule="evenodd" d="M59.2409 2.0985C59.9715 2.06945 60.6995 2.09871 61.4249 2.18628C61.5989 2.78201 61.6595 3.39643 61.6069 4.02952C61.7889 4.02952 61.9709 4.02952 62.1529 4.02952C62.3995 4.62104 62.6423 5.20619 62.8809 5.78499C62.7626 5.83834 62.6412 5.89686 62.5169 5.96053C62.0528 5.70747 61.5676 5.50265 61.0609 5.34612C60.8201 5.20289 60.6989 4.99808 60.6969 4.73171C60.8578 4.03134 60.6152 3.53397 59.9689 3.23956C58.4967 3.18954 57.0407 3.33584 55.6009 3.67842C55.4189 3.64916 55.2369 3.61991 55.0549 3.59065C55.2216 3.54178 55.3429 3.45401 55.4189 3.32733C56.6957 2.87781 57.9697 2.4682 59.2409 2.0985Z" fill="#93100A"/>
<path fill-rule="evenodd" clip-rule="evenodd" d="M60.6969 4.73193C60.215 5.19225 60.215 5.66038 60.6969 6.1363C60.3156 6.0907 60.073 5.8859 59.9689 5.52189C60.4204 4.85711 60.4204 4.21343 59.9689 3.59087C59.2409 3.47384 58.5129 3.47384 57.7849 3.59087C56.5324 3.95071 55.2584 4.06775 53.9629 3.94197C54.3848 3.59216 54.87 3.38735 55.4189 3.32755C55.3428 3.45423 55.2216 3.542 55.0549 3.59087C55.2369 3.62014 55.4189 3.64938 55.6009 3.67865C57.0407 3.33607 58.4967 3.18977 59.9689 3.23978C60.6152 3.53419 60.8578 4.03157 60.6969 4.73193Z" fill="#F9B62A"/>
<path fill-rule="evenodd" clip-rule="evenodd" d="M62.1531 4.02954C62.3351 4.02954 62.5171 4.02954 62.6991 4.02954C63.1901 4.93599 63.3721 5.93075 63.2451 7.01384C63.1237 6.72125 63.0025 6.42869 62.8811 6.1361C62.8811 6.01907 62.8811 5.90205 62.8811 5.78501C62.6425 5.20621 62.3997 4.62106 62.1531 4.02954Z" fill="#FAC52E"/>
<path fill-rule="evenodd" clip-rule="evenodd" d="M61.607 8.41828C61.9938 8.85943 62.2972 9.35681 62.517 9.91043C65.512 11.334 68.151 13.2358 70.434 15.6157C71.2385 16.8277 71.9969 18.0565 72.709 19.3022C72.2493 19.1323 72.1281 19.2787 72.345 19.7411C72.1164 19.8143 71.995 19.9605 71.981 20.1799C69.6625 16.0133 66.2045 13.0875 61.607 11.4026C59.8394 8.85218 57.3522 7.47707 54.145 7.27722C52.5689 8.35391 50.8097 8.76353 48.867 8.50605C48.1601 8.12898 47.4321 8.0412 46.683 8.24273C46.0054 8.19281 45.3078 8.01726 44.59 7.71609C44.3933 8.11407 44.1203 8.14334 43.771 7.80387C43.8924 7.74536 44.0136 7.68683 44.135 7.62832C43.9013 7.50828 43.689 7.53754 43.498 7.71609C43.4136 7.61175 43.3832 7.49471 43.407 7.365C44.6718 7.01571 45.9458 6.72313 47.229 6.48726C48.1823 6.59273 49.1227 6.76828 50.05 7.0139C51.4092 7.112 52.5314 6.67313 53.417 5.6973C56.335 5.58346 58.883 6.46119 61.061 8.33051C61.2336 8.41526 61.4156 8.44452 61.607 8.41828Z" fill="#730703"/>
<path fill-rule="evenodd" clip-rule="evenodd" d="M43.4069 7.36499C43.3831 7.4947 43.4135 7.61174 43.4979 7.71608C43.6889 7.53754 43.9012 7.50827 44.1349 7.62831C44.0135 7.68682 43.8923 7.74535 43.7709 7.80386C44.1202 8.14333 44.3932 8.11407 44.5899 7.71608C45.3077 8.01725 46.0054 8.1928 46.6829 8.24272C45.8476 8.48184 44.9982 8.74516 44.1349 9.03269C44.484 9.96721 44.7266 10.9327 44.8629 11.9292C43.3791 11.9973 41.8625 12.1436 40.3129 12.3681C39.0892 13.093 37.7546 13.5026 36.3089 13.5969C35.9591 14.0234 35.5345 14.3452 35.0349 14.5624C34.8704 14.4379 34.8098 14.2624 34.8529 14.0358C35.1447 14.0688 35.3875 13.981 35.5809 13.7725C35.3076 13.6701 35.065 13.5238 34.8529 13.3336C34.9887 13.1166 35.0493 12.8825 35.0349 12.6314C35.1685 12.4194 35.2291 12.1853 35.2169 11.9292C36.9195 12.028 38.4969 11.6476 39.9489 10.7882C40.9758 10.801 41.9464 10.5962 42.8609 10.1737C42.5381 10.0532 42.2347 9.90689 41.9509 9.73487C40.7792 9.60121 39.6266 9.39642 38.4929 9.12046C37.1547 9.41457 35.8201 9.70715 34.4889 9.99819C34.2713 9.93751 34.2713 9.84973 34.4889 9.73487C35.6002 9.47907 36.6922 9.18648 37.7649 8.85714C38.3757 8.81943 38.9823 8.81943 39.5849 8.85714C40.9041 8.45461 42.1781 7.95723 43.4069 7.36499Z" fill="#7E0C04"/>
<path fill-rule="evenodd" clip-rule="evenodd" d="M61.607 11.4027C58.8736 10.5181 56.0828 10.2255 53.235 10.525C50.7074 10.733 48.3414 11.4352 46.137 12.6315C45.5977 12.5924 45.0517 12.5339 44.499 12.456C44.681 12.3389 44.863 12.2219 45.045 12.1049C45.0224 11.9984 44.9618 11.9399 44.863 11.9293C44.7267 10.9328 44.4841 9.96734 44.135 9.03281C44.9982 8.74528 45.8476 8.48196 46.683 8.24285C47.4321 8.04132 48.1601 8.1291 48.867 8.50617C50.8097 8.76365 52.5689 8.35403 54.145 7.27734C57.3522 7.47719 59.8394 8.8523 61.607 11.4027Z" fill="#E31B21"/>
<path fill-rule="evenodd" clip-rule="evenodd" d="M60.6969 4.73193C60.6989 4.99831 60.8201 5.20312 61.0609 5.34635C61.5676 5.50288 62.0528 5.70769 62.5169 5.96076C62.6412 5.89709 62.7626 5.83856 62.8809 5.78521C62.8809 5.90225 62.8809 6.01927 62.8809 6.13631C62.8512 6.55004 62.8814 6.95966 62.9719 7.36514C64.0492 8.01624 65.1108 8.68918 66.1569 9.38393C66.3389 9.55947 66.5209 9.73502 66.7029 9.91057C65.8317 9.66747 64.9823 9.31638 64.1549 8.85729C63.337 8.25795 62.4878 7.70205 61.6069 7.18959C61.4617 6.91263 61.3707 6.62005 61.3339 6.31186C61.1499 6.16499 60.9375 6.10647 60.6969 6.13631C60.215 5.66038 60.215 5.19225 60.6969 4.73193Z" fill="#D6241D"/>
<path fill-rule="evenodd" clip-rule="evenodd" d="M61.6069 8.41826C61.4154 8.44451 61.2334 8.41524 61.0609 8.33049C58.8829 6.46118 56.3349 5.58344 53.4169 5.69729C52.5313 6.67312 51.4091 7.11198 50.0499 7.01389C49.1226 6.76826 48.1822 6.59272 47.2289 6.48725C45.9456 6.72311 44.6716 7.0157 43.4069 7.36498C42.178 7.95722 40.904 8.4546 39.5849 8.85713C38.9823 8.81942 38.3757 8.81942 37.7649 8.85713C36.6922 9.18647 35.6002 9.47906 34.4889 9.73486C34.2712 9.84972 34.2712 9.9375 34.4889 9.99818C35.82 9.70715 37.1547 9.41456 38.4929 9.12045C39.6266 9.39641 40.7792 9.6012 41.9509 9.73486C42.2346 9.90688 42.538 10.0532 42.8609 10.1737C41.9463 10.5962 40.9757 10.801 39.9489 10.7881C38.4969 11.6476 36.9195 12.028 35.2169 11.9292C35.2291 12.1853 35.1685 12.4193 35.0349 12.6314C33.9039 13.5907 32.5693 14.0881 31.0309 14.1235C30.2017 14.669 29.3523 15.1663 28.4829 15.6157C28.3615 15.6157 28.2403 15.6157 28.1189 15.6157C29.1305 14.8495 30.2225 14.1765 31.3949 13.5969C32.6838 13.6112 33.7758 13.1723 34.6709 12.2803C34.3209 12.1385 33.9569 12.0507 33.5789 12.017C33.7296 11.8564 33.9116 11.7394 34.1249 11.6659C35.3237 11.4531 36.5371 11.3361 37.7649 11.3148C38.4126 11.0993 39.0192 10.8067 39.5849 10.4371C40.3204 10.4066 41.0484 10.3188 41.7689 10.1737C40.7297 10.0417 39.7287 9.80761 38.7659 9.47154C36.4691 10.0762 34.1335 10.3981 31.7589 10.4371C34.3347 9.22548 37.0647 8.52329 39.9489 8.33049C41.082 7.95977 42.174 7.49164 43.2249 6.92611C44.5517 6.80191 45.8257 6.48008 47.0469 5.96061C48.6583 6.5314 50.2963 6.61917 51.9609 6.22393C52.3993 6.01315 52.7633 5.72056 53.0529 5.34619C54.275 5.2214 55.4884 5.27991 56.6929 5.52174C57.7035 5.97985 58.7348 6.38945 59.7869 6.75057C60.3746 7.34718 60.9812 7.90308 61.6069 8.41826Z" fill="#F6DF25"/>
<path fill-rule="evenodd" clip-rule="evenodd" d="M60.697 6.13622C60.9376 6.10638 61.15 6.16491 61.334 6.31177C61.3708 6.61996 61.4618 6.91254 61.607 7.1895C62.4879 7.70196 63.3371 8.25786 64.155 8.8572C64.9824 9.31629 65.8318 9.66738 66.703 9.91048C66.521 9.73493 66.339 9.55939 66.157 9.38384C65.1109 8.68909 64.0493 8.01615 62.972 7.36505C62.8816 6.95957 62.8514 6.54995 62.881 6.13622C63.0024 6.4288 63.1236 6.72137 63.245 7.01396C63.2294 7.18878 63.2902 7.33507 63.427 7.45282C65.8536 8.53956 67.6736 10.1487 68.887 12.2804C68.4282 11.6915 67.8822 11.1941 67.249 10.7882C65.152 9.80708 63.15 8.69527 61.243 7.45282C61.1395 6.9762 60.9575 6.53733 60.697 6.13622Z" fill="#F78C31"/>
<path fill-rule="evenodd" clip-rule="evenodd" d="M53.2351 10.5249C53.1838 10.7492 53.0624 10.9247 52.8711 11.0515C52.8554 11.2264 52.9162 11.3727 53.0531 11.4904C50.9406 11.6841 51.0014 11.8889 53.2351 12.1048C53.2207 12.3559 53.2813 12.59 53.4171 12.807C52.9426 12.9507 52.4572 13.0385 51.9611 13.0703C52.5182 13.2662 53.0946 13.4125 53.6901 13.5092C53.9061 13.7803 53.9667 14.0729 53.8721 14.3869C53.4233 14.1628 52.9683 14.1628 52.5071 14.3869C53.1137 14.5625 53.7205 14.738 54.3271 14.9136C54.4629 15.1306 54.5235 15.3646 54.5091 15.6158C54.0237 15.6158 53.5385 15.6158 53.0531 15.6158C49.7258 16.8064 47.4508 19.03 46.2281 22.2865C45.8592 22.6573 45.465 22.8328 45.0451 22.8132C44.6909 22.9071 44.5089 23.1411 44.4991 23.5154C44.2798 23.8029 44.0372 23.8614 43.7711 23.6909C43.7811 22.9403 44.0237 22.2672 44.4991 21.6721C44.4385 21.5844 44.3777 21.4966 44.3171 21.4088C43.998 21.8486 43.725 22.3166 43.4981 22.8132C43.25 22.5686 43.0984 22.2762 43.0431 21.9354C43.2353 21.389 43.4779 20.8623 43.7711 20.3555C43.6497 20.1215 43.5285 20.1215 43.4071 20.3555C43.2482 20.6913 43.0662 21.0133 42.8611 21.321C42.7097 21.4418 42.5885 21.4125 42.4971 21.2333C42.4021 21.0389 42.3415 20.8341 42.3151 20.6188C42.557 20.071 42.7086 19.5152 42.7701 18.9512C42.4971 19.3607 42.2241 19.7704 41.9511 20.18C41.6286 20.0448 41.4466 19.8108 41.4051 19.4778C41.6732 18.967 41.8248 18.4403 41.8601 17.8979C41.5871 18.3074 41.3141 18.7171 41.0411 19.1267C40.302 18.168 40.1806 18.2267 40.6771 19.3022C40.2893 19.4197 39.9253 19.5366 39.5851 19.6533C38.1376 22.1473 37.349 24.839 37.2191 27.7285C36.89 27.4796 36.7686 27.1285 36.8551 26.6752C37.0424 24.2611 37.7096 21.979 38.8571 19.8289C40.6633 16.8577 43.0901 14.4586 46.1371 12.6315C48.3415 11.4351 50.7075 10.733 53.2351 10.5249Z" fill="#ECE9E8"/>
<path fill-rule="evenodd" clip-rule="evenodd" d="M68.3409 16.3179C68.1484 16.5111 67.9966 16.7451 67.8859 17.0201C67.1538 16.3011 66.2742 15.833 65.2469 15.6157C65.121 15.708 65.03 15.825 64.9739 15.9668C63.8452 16.0725 62.7228 15.9555 61.6069 15.6157C61.6361 15.914 61.6059 16.2066 61.5159 16.4935C60.8467 16.1386 60.1491 16.0801 59.4229 16.3179C59.6423 16.5803 59.6423 16.8144 59.4229 17.0201C59.2737 16.7322 59.1221 16.4396 58.9679 16.1424C58.7788 16.273 58.6878 16.4485 58.6949 16.669C58.0741 16.4267 57.4675 16.1926 56.8749 15.9668C56.8196 15.5638 56.6376 15.5053 56.3289 15.7913C55.9804 15.8412 55.6772 15.7827 55.4189 15.6157C56.3996 14.2207 56.2782 14.1037 55.0549 15.2647C54.7121 15.0553 54.6211 14.7627 54.7819 14.3869C55.0908 14.0009 55.3638 13.5913 55.6009 13.1581C55.5096 12.9789 55.3884 12.9496 55.2369 13.0703C54.9639 13.4507 54.6909 13.831 54.4179 14.2114C54.2663 13.9188 54.1146 13.6262 53.9629 13.3336C54.3269 12.8655 54.6909 12.3974 55.0549 11.9293C54.9636 11.75 54.8424 11.7208 54.6909 11.8415C54.4398 12.1795 54.1668 12.5013 53.8719 12.807C53.4819 12.1513 53.5729 11.5662 54.1449 11.0515C59.744 10.6771 64.5366 12.4033 68.5229 16.2302C68.4815 16.3002 68.4207 16.3294 68.3409 16.3179Z" fill="#EDECEC"/>
<path fill-rule="evenodd" clip-rule="evenodd" d="M44.863 11.9292C44.9618 11.9397 45.0224 11.9982 45.045 12.1047C44.863 12.2218 44.681 12.3388 44.499 12.4558C45.0517 12.5338 45.5977 12.5923 46.137 12.6314C43.0899 14.4585 40.6632 16.8576 38.857 19.8288C38.646 19.9966 38.4337 20.1722 38.22 20.3555C37.8755 20.2333 37.5419 20.0869 37.219 19.9166C37.2796 19.8581 37.3404 19.7995 37.401 19.741C37.0872 19.6624 36.9658 19.516 37.037 19.3022C36.855 19.4193 36.673 19.5362 36.491 19.6533C36.1026 19.3964 35.7386 19.2795 35.399 19.3022C35.7315 19.0508 36.0349 18.7582 36.309 18.4244C35.7595 17.748 35.1225 17.1629 34.398 16.669C34.3563 16.1498 34.1439 15.7109 33.761 15.3524C34.2595 15.1723 34.6841 14.909 35.035 14.5624C35.5346 14.3452 35.9592 14.0234 36.309 13.5969C37.7546 13.5026 39.0892 13.093 40.313 12.3681C41.8625 12.1436 43.3791 11.9973 44.863 11.9292Z" fill="#D41C1D"/>
<path fill-rule="evenodd" clip-rule="evenodd" d="M54.145 11.0515C53.573 11.5662 53.482 12.1513 53.872 12.807C54.1669 12.5013 54.4399 12.1794 54.691 11.8415C54.8424 11.7208 54.9637 11.75 55.055 11.9292C54.691 12.3974 54.327 12.8655 53.963 13.3336C54.1146 13.6262 54.2664 13.9188 54.418 14.2114C54.691 13.831 54.964 13.4507 55.237 13.0703C55.3884 12.9496 55.5097 12.9788 55.601 13.1581C55.3639 13.5913 55.0909 14.0009 54.782 14.3869C54.6211 14.7627 54.7121 15.0553 55.055 15.2646C56.2782 14.1037 56.3996 14.2207 55.419 15.6157C54.612 15.8429 53.8234 15.8429 53.053 15.6157C53.5384 15.6157 54.0236 15.6157 54.509 15.6157C54.5234 15.3646 54.4628 15.1306 54.327 14.9135C53.7204 14.738 53.1136 14.5625 52.507 14.3869C52.9682 14.1628 53.4232 14.1628 53.872 14.3869C53.9667 14.0729 53.9061 13.7803 53.69 13.5092C53.0945 13.4125 52.5181 13.2662 51.961 13.0703C52.4572 13.0384 52.9425 12.9506 53.417 12.807C53.2812 12.59 53.2206 12.3559 53.235 12.1048C51.0013 11.8889 50.9405 11.6841 53.053 11.4904C52.9162 11.3726 52.8554 11.2263 52.871 11.0515C53.3429 11.1975 53.7677 11.1975 54.145 11.0515Z" fill="#EB3335"/>
<path fill-rule="evenodd" clip-rule="evenodd" d="M53.0531 15.6157C53.8235 15.8429 54.6121 15.8429 55.4191 15.6157C55.6773 15.7827 55.9806 15.8412 56.3291 15.7913C56.4581 15.95 56.6401 16.0085 56.8751 15.9668C57.4677 16.1926 58.0743 16.4267 58.6951 16.669C58.6285 16.8787 58.4769 16.9957 58.2401 17.0201C54.6123 15.5144 51.4577 16.1581 48.7761 18.9511C47.8859 20.2298 47.0669 21.5464 46.3191 22.9009C43.6268 24.7945 40.836 26.55 37.9471 28.1673C36.3138 28.1456 34.9184 28.6722 33.7611 29.7472C32.4511 30.0734 31.4501 30.8049 30.7581 31.9416C29.9173 33.6526 28.9163 35.2617 27.7551 36.7691C26.9368 37.0993 26.0874 37.3335 25.2071 37.4713C25.2903 37.544 25.3511 37.6318 25.3891 37.7346C23.8736 38.497 23.9646 38.9652 25.6621 39.139C26.2316 39.169 26.7474 39.0228 27.2091 38.7001C28.0281 37.7931 28.8471 36.8862 29.6661 35.9792C30.4401 34.5434 31.3501 33.1974 32.3961 31.9416C31.8961 34.0122 31.4715 36.1187 31.1221 38.2613C30.9148 38.8953 30.6114 39.4806 30.2121 40.0167C30.4021 41.4664 30.4627 42.9294 30.3941 44.4054C30.3335 44.6394 30.2727 44.8736 30.2121 45.1076C29.7553 45.2145 29.3913 45.4485 29.1201 45.8098C28.6383 48.1612 29.2147 48.483 30.8491 46.7753C31.572 45.0344 32.1484 43.2496 32.5781 41.4211C34.1906 40.7026 35.6466 39.7664 36.9461 38.6124C36.5608 39.6976 35.8934 40.6338 34.9441 41.4211C34.9233 42.6638 34.8019 43.8926 34.5801 45.1076C34.2408 45.3646 33.8464 45.5402 33.3971 45.6342C33.1053 46.1335 33.0143 46.6601 33.1241 47.2142C33.2262 47.3058 33.3476 47.3643 33.4881 47.3897C34.1202 47.1434 34.7268 46.8508 35.3081 46.512C35.8157 45.042 36.3919 43.6083 37.0371 42.2111C39.0074 41.6959 40.797 40.8474 42.4061 39.6656C42.7717 39.192 43.1357 38.724 43.4981 38.2613C46.3691 38.6229 49.1901 38.3887 51.9611 37.5591C53.03 38.039 54.122 38.4486 55.2371 38.7879C55.2371 38.5539 55.2371 38.3197 55.2371 38.0857C55.6617 38.0857 56.0865 38.0857 56.5111 38.0857C56.5111 37.9102 56.5111 37.7346 56.5111 37.5591C57.1852 37.5984 57.8526 37.6276 58.5131 37.6469C58.3608 37.4694 58.3002 37.2645 58.3311 37.0324C58.831 36.9775 59.3164 37.036 59.7871 37.208C59.5911 37.5993 59.4697 38.009 59.4231 38.4368C57.3516 38.1821 56.472 39.0598 56.7841 41.07C56.8862 41.1617 57.0076 41.2201 57.1481 41.2456C57.5958 41.0528 58.0508 40.8773 58.5131 40.7189C58.6128 41.3821 58.9162 41.5286 59.4231 41.1578C60.6516 39.5199 61.6222 37.7352 62.3351 35.8036C62.7193 35.5492 63.1439 35.3737 63.6091 35.277C63.7565 36.3569 63.6049 37.4102 63.1541 38.4368C62.7901 38.5539 62.4261 38.6708 62.0621 38.7879C61.6178 39.5724 61.5268 40.3915 61.7891 41.2456C62.2037 40.9431 62.6587 40.7091 63.1541 40.5434C63.3261 40.6145 63.4475 40.7316 63.5181 40.8945C63.7001 40.7189 63.8821 40.5434 64.0641 40.3678C64.9337 38.1442 65.6921 35.8912 66.3391 33.6093C66.3251 32.5725 65.7791 32.1336 64.7011 32.2927C64.5961 31.5257 64.7479 30.8235 65.1561 30.1861C65.4231 30.7658 65.8781 31.1169 66.5211 31.2394C67.4191 30.8699 68.3291 30.4895 69.2511 30.0983C69.533 29.8852 69.7452 29.6219 69.8881 29.3084C69.7343 28.0102 69.6433 26.6936 69.6151 25.3586C69.6762 23.7453 69.7976 22.1361 69.9791 20.531C70.1214 19.1312 69.6664 17.9609 68.6141 17.0201C68.528 17.4202 68.346 17.7713 68.0681 18.0734C67.5508 17.1938 66.7926 16.6087 65.7931 16.3179C65.6509 16.5336 65.5599 16.7677 65.5201 17.0201C65.0911 16.5652 64.5753 16.2726 63.9731 16.1424C64.0208 16.4018 63.9602 16.6359 63.7911 16.8446C63.3092 16.4657 62.7632 16.2316 62.1531 16.1424C62.1531 16.4349 62.1531 16.7275 62.1531 17.0201C61.4933 16.9214 60.8563 16.7458 60.2421 16.4935C60.164 16.8742 60.255 17.2253 60.5151 17.5467C59.9132 17.8399 59.5492 17.6644 59.4231 17.0201C59.6424 16.8144 59.6424 16.5803 59.4231 16.3179C60.1493 16.08 60.8469 16.1385 61.5161 16.4935C61.606 16.2066 61.6362 15.914 61.6071 15.6157C62.7229 15.9555 63.8453 16.0725 64.9741 15.9668C65.0301 15.825 65.1211 15.7079 65.2471 15.6157C66.2743 15.833 67.1539 16.3011 67.8861 17.0201C67.9967 16.7451 68.1485 16.511 68.3411 16.3179C69.3457 16.8176 70.0129 17.5783 70.3431 18.6C70.4337 19.1209 70.4943 19.6475 70.5251 20.1799C70.1083 22.9388 70.1083 25.6891 70.5251 28.4306C70.4774 29.261 70.2346 30.0218 69.7971 30.7128C69.3985 30.9413 69.0345 31.234 68.7051 31.5905C68.5619 31.4602 68.4406 31.314 68.3411 31.1516C68.1706 31.0301 68.0493 31.0595 67.9771 31.2394C67.5225 31.4372 67.0372 31.5543 66.5211 31.5905C66.0796 31.6073 65.6852 31.4904 65.3381 31.2394C65.2502 31.4058 65.22 31.5814 65.2471 31.766C66.3842 31.9279 66.9302 32.5714 66.8851 33.6971C66.4608 35.1002 66.0362 36.5046 65.6111 37.9102C65.2393 38.836 64.8451 39.7722 64.4281 40.7189C64.0699 41.3676 63.5541 41.5431 62.8811 41.2456C62.4312 41.553 61.9458 41.6994 61.4251 41.6844C61.28 41.027 61.189 40.354 61.1521 39.6656C60.7066 40.388 60.1909 41.0609 59.6051 41.6844C59.2486 41.8479 58.8846 41.9941 58.5131 42.1233C58.3952 41.8338 58.2132 41.5998 57.9671 41.4211C57.5574 41.6309 57.1326 41.8064 56.6931 41.9478C55.9775 40.9231 55.9775 39.8991 56.6931 38.8757C56.3746 38.6441 56.0106 38.5564 55.6011 38.6124C55.6011 38.905 55.6011 39.1975 55.6011 39.4901C54.3251 39.0939 53.0815 38.6257 51.8701 38.0857C51.0899 38.2227 50.3316 38.4273 49.5951 38.7001C49.7618 38.7489 49.883 38.8367 49.9591 38.9635C49.7778 38.9484 49.6262 39.007 49.5041 39.139C48.8795 40.4951 48.5457 40.4365 48.5031 38.9635C48.3852 38.7388 48.1425 38.7388 47.7751 38.9635C46.3761 38.9299 44.9808 38.9006 43.5891 38.8757C43.1457 39.5916 42.5997 40.206 41.9511 40.7189C40.4913 41.4624 38.9747 42.1059 37.4011 42.6499C36.8063 43.9035 36.3209 45.1908 35.9451 46.512C35.8253 46.6696 35.7041 46.8452 35.5811 47.0386C32.7368 48.5675 31.948 47.8653 33.2151 44.9321C33.4473 44.7311 33.6899 44.7311 33.9431 44.9321C34.069 44.8399 34.16 44.7228 34.2161 44.581C34.2501 43.4257 34.3411 42.2846 34.4891 41.1578C33.9342 41.2944 33.4186 41.5577 32.9421 41.9478C32.5315 43.7505 31.9551 45.5059 31.2131 47.2142C29.1532 49.1935 28.2736 48.7253 28.5741 45.8098C28.7088 45.1824 29.1032 44.8313 29.7571 44.7565C29.9043 44.4807 29.9651 44.1881 29.9391 43.8788C29.8135 42.4753 29.7831 41.0709 29.8481 39.6656C30.8567 37.9846 31.3419 36.1705 31.3041 34.2237C30.2079 36.4503 28.6003 38.2351 26.4811 39.5779C25.3339 39.851 24.3633 39.5877 23.5691 38.7879C23.7404 38.3891 23.983 38.038 24.2971 37.7346C24.1897 37.5066 24.0077 37.3604 23.7511 37.2958C24.2567 37.0514 24.8027 36.9636 25.3891 37.0324C25.3891 36.8569 25.3891 36.6814 25.3891 36.5058C26.2696 36.526 27.0886 36.3504 27.8461 35.9792C28.864 34.19 29.9256 32.4345 31.0311 30.7128C31.7378 29.9914 32.587 29.4941 33.5791 29.2206C34.4347 28.3983 35.4661 27.9595 36.6731 27.904C36.6181 27.4548 36.6789 27.0451 36.8551 26.6752C36.7686 27.1284 36.89 27.4795 37.2191 27.7285C37.9982 27.6168 38.7262 27.3535 39.4031 26.9385C40.498 26.3272 41.4686 25.5957 42.3151 24.7442C42.6573 24.7917 42.8999 24.6746 43.0431 24.3931C43.321 24.4059 43.503 24.2888 43.5891 24.042C43.7416 23.9819 43.8024 23.865 43.7711 23.6909C44.0372 23.8613 44.2798 23.8029 44.4991 23.5153C44.8198 23.3816 45.0018 23.1474 45.0451 22.8131C45.465 22.8328 45.8592 22.6573 46.2281 22.2865C47.4508 19.0299 49.7258 16.8064 53.0531 15.6157Z" fill="#B6B2B3"/>
<path fill-rule="evenodd" clip-rule="evenodd" d="M56.8751 15.9675C56.6401 16.0092 56.4581 15.9506 56.3291 15.7916C56.6378 15.5052 56.8198 15.5638 56.8751 15.9675Z" fill="#DA3C3F"/>
<path fill-rule="evenodd" clip-rule="evenodd" d="M58.6949 16.669C58.6878 16.4485 58.7788 16.2729 58.9679 16.1423C59.1221 16.4396 59.2737 16.7322 59.4229 17.0201C59.549 17.6644 59.913 17.8399 60.5149 17.5467C60.2548 17.2252 60.1638 16.8741 60.2419 16.4934C60.8561 16.7458 61.4931 16.9213 62.1529 17.0201C62.1529 16.7275 62.1529 16.4349 62.1529 16.1423C62.763 16.2316 63.309 16.4657 63.7909 16.8445C63.96 16.6358 64.0206 16.4018 63.9729 16.1423C64.5751 16.2726 65.0909 16.5652 65.5199 17.0201C65.5598 16.7676 65.6508 16.5336 65.7929 16.3179C66.7924 16.6087 67.5507 17.1938 68.0679 18.0733C68.3458 17.7712 68.5278 17.4201 68.6139 17.0201C69.6662 17.9608 70.1212 19.1312 69.9789 20.531C69.7974 22.136 69.676 23.7453 69.6149 25.3585C69.6431 26.6936 69.7341 28.0102 69.8879 29.3084C69.745 29.6219 69.5328 29.8852 69.2509 30.0983C68.3289 30.4894 67.4189 30.8698 66.5209 31.2394C65.8779 31.1168 65.4229 30.7657 65.1559 30.1861C64.7477 30.8235 64.5959 31.5257 64.7009 32.2926C65.7789 32.1336 66.3249 32.5725 66.3389 33.6093C65.6919 35.8912 64.9335 38.1442 64.0639 40.3678C63.8819 40.5434 63.6999 40.7189 63.5179 40.8944C63.4473 40.7315 63.3259 40.6144 63.1539 40.5434C62.6585 40.7091 62.2035 40.9431 61.7889 41.2455C61.5266 40.3915 61.6176 39.5724 62.0619 38.7879C62.4259 38.6708 62.7899 38.5539 63.1539 38.4368C63.6047 37.4102 63.7563 36.3569 63.6089 35.2769C63.1437 35.3737 62.7191 35.5492 62.3349 35.8036C61.622 37.7351 60.6514 39.5199 59.4229 41.1578C58.916 41.5285 58.6126 41.3821 58.5129 40.7189C58.0506 40.8772 57.5956 41.0528 57.1479 41.2455C57.0074 41.2201 56.886 41.1616 56.7839 41.07C56.4718 39.0598 57.3514 38.1821 59.4229 38.4368C59.4695 38.009 59.5909 37.5993 59.7869 37.208C59.3162 37.0359 58.8308 36.9775 58.3309 37.0324C58.3 37.2645 58.3606 37.4694 58.5129 37.6468C57.8524 37.6275 57.185 37.5984 56.5109 37.5591C56.5109 37.7346 56.5109 37.9101 56.5109 38.0857C56.0863 38.0857 55.6615 38.0857 55.2369 38.0857C55.2369 38.3197 55.2369 38.5539 55.2369 38.7879C54.1218 38.4486 53.0298 38.039 51.9609 37.5591C49.1899 38.3887 46.3689 38.6229 43.4979 38.2612C43.1355 38.724 42.7715 39.192 42.4059 39.6656C40.7968 40.8474 39.0072 41.6958 37.0369 42.211C36.3917 43.6082 35.8155 45.0419 35.3079 46.5119C34.7266 46.8508 34.12 47.1434 33.4879 47.3897C33.3474 47.3642 33.226 47.3058 33.1239 47.2141C33.0142 46.6601 33.1052 46.1335 33.3969 45.6342C33.8463 45.5401 34.2407 45.3646 34.5799 45.1076C34.8018 43.8926 34.9232 42.6638 34.9439 41.4211C35.8932 40.6338 36.5606 39.6976 36.9459 38.6123C35.6464 39.7664 34.1904 40.7026 32.5779 41.4211C32.1482 43.2496 31.5718 45.0344 30.8489 46.7753C29.2145 48.483 28.6381 48.1612 29.1199 45.8098C29.3911 45.4485 29.7551 45.2145 30.2119 45.1076C30.2725 44.8736 30.3333 44.6394 30.3939 44.4054C30.4625 42.9294 30.4019 41.4664 30.2119 40.0167C30.6112 39.4806 30.9146 38.8953 31.1219 38.2612C31.4713 36.1187 31.8959 34.0121 32.3959 31.9416C31.3499 33.1974 30.4399 34.5433 29.6659 35.9791C28.8469 36.8862 28.0279 37.7931 27.2089 38.7001C26.7472 39.0228 26.2314 39.169 25.6619 39.139C23.9644 38.9652 23.8734 38.497 25.3889 37.7346C25.3509 37.6317 25.2901 37.544 25.2069 37.4713C26.0872 37.3335 26.9366 37.0993 27.7549 36.7691C28.9161 35.2617 29.9171 33.6526 30.7579 31.9416C31.4499 30.8049 32.4509 30.0734 33.7609 29.7472C34.9182 28.6722 36.3136 28.1455 37.9469 28.1673C40.8358 26.55 43.6266 24.7945 46.3189 22.9009C47.0667 21.5464 47.8857 20.2298 48.7759 18.9511C51.4575 16.1581 54.6121 15.5144 58.2399 17.0201C58.4767 16.9957 58.6283 16.8787 58.6949 16.669Z" fill="#262020"/>
<path fill-rule="evenodd" clip-rule="evenodd" d="M58.3311 21.0576C58.2774 20.6653 58.3382 20.3142 58.5131 20.0043C59.007 21.9717 60.3113 23.025 62.4261 23.1642C63.5993 22.8348 64.0847 22.0742 63.8821 20.8821C62.1786 20.5136 60.8742 19.6065 59.9691 18.1611C60.4115 18.1168 60.8363 18.2046 61.2431 18.4244C61.3747 18.1323 61.3141 17.8397 61.0611 17.5467C61.7481 17.4327 62.4155 17.5498 63.0631 17.8978C63.1237 17.8393 63.1845 17.7807 63.2451 17.7222C63.0376 17.4452 62.9466 17.1527 62.9721 16.8445C63.5037 17.174 64.0193 17.5251 64.5191 17.8978C64.6307 17.638 64.6913 17.4039 64.7011 17.1956C65.2937 17.5838 65.8699 17.9934 66.4301 18.4244C66.4907 18.1318 66.5515 17.8393 66.6121 17.5467C67.2282 18.1992 67.7742 18.9014 68.2501 19.6532C68.3362 19.2532 68.5182 18.9021 68.7961 18.6C68.9976 19.3703 69.0886 20.1602 69.0691 20.9698C68.9473 22.5822 68.7653 24.1913 68.5231 25.7974C68.5639 26.3863 68.6245 26.9714 68.7051 27.5528C68.1183 27.605 67.5723 27.4879 67.0671 27.2017C66.5089 27.5474 66.2663 28.0447 66.3391 28.6939C66.3163 29.1519 66.4377 29.5614 66.7031 29.9227C66.4401 30.4734 66.1065 30.5026 65.7021 30.0105C65.47 29.6213 65.288 29.2116 65.1561 28.7817C64.0732 29.5486 63.5878 30.6019 63.7001 31.9415C63.1452 31.2135 62.8418 30.3944 62.7901 29.4839C62.4714 29.8332 62.2894 30.2427 62.2441 30.7127C62.0776 30.5673 61.9564 30.3918 61.8801 30.186C61.9704 28.084 61.667 27.9671 60.9701 29.835C60.4874 29.1268 60.3964 28.3661 60.6971 27.5528C60.5757 27.3188 60.4545 27.3188 60.3331 27.5528C60.1507 27.9057 59.9687 28.2568 59.7871 28.6061C59.2507 27.998 59.1295 27.3252 59.4231 26.5873C57.3661 25.8062 57.3661 25.3381 59.4231 25.183C59.7481 25.1486 59.9908 25.0023 60.1511 24.7441C59.2011 23.672 58.5943 22.4432 58.3311 21.0576Z" fill="#E32029"/>
<path fill-rule="evenodd" clip-rule="evenodd" d="M58.3311 18.9511C58.1671 19.0898 58.0457 19.2653 57.9671 19.4777C57.6009 20.1594 57.4189 20.8907 57.4211 21.6721C57.5025 22.6002 57.6845 23.507 57.9671 24.393C57.2728 24.3548 56.6662 24.5303 56.1471 24.9197C56.6325 25.739 57.2997 26.3825 58.1491 26.8507C58.274 27.6443 58.6076 28.3465 59.1501 28.9573C59.2715 29.5423 59.2715 30.1276 59.1501 30.7127C58.4434 31.3359 57.6852 31.8919 56.8751 32.3804C56.1666 32.9755 55.5598 33.6484 55.0551 34.3992C55.1157 34.4577 55.1765 34.5163 55.2371 34.5748C56.6361 33.752 58.1527 33.4886 59.7871 33.7848C60.3491 33.8864 60.8345 34.1206 61.2431 34.487C59.7185 34.754 58.2625 35.2222 56.8751 35.8914C57.9369 36.728 57.8155 37.0206 56.5111 36.7691C56.1436 36.6901 55.81 36.5439 55.5101 36.3302C55.5136 36.6123 55.5438 36.905 55.6011 37.208C55.078 37.1864 54.623 37.0108 54.2361 36.6813C54.2106 36.9896 54.3016 37.282 54.5091 37.559C53.3157 37.3229 52.4359 36.6208 51.8701 35.4525C51.853 34.0411 51.8226 32.6367 51.7791 31.2394C51.2382 31.5564 50.7226 31.9075 50.2321 32.2926C50.0729 32.0516 49.9819 31.7883 49.9591 31.5027C50.1009 30.9392 50.1919 30.3832 50.2321 29.835C49.7467 30.1861 49.2615 30.5372 48.7761 30.8883C48.5903 29.9554 48.7419 29.0777 49.2311 28.2551C49.1705 28.1966 49.1097 28.138 49.0491 28.0795C48.6434 28.2686 48.2186 28.3857 47.7751 28.4306C47.6581 26.2523 48.1435 24.2043 49.2311 22.2865C48.8427 22.306 48.4181 22.2475 47.9571 22.1109C49.2839 20.0995 51.0433 18.5489 53.2351 17.4589C54.8547 17.0527 56.4319 17.1698 57.9671 17.81C58.2818 18.1241 58.4032 18.5045 58.3311 18.9511Z" fill="#E72029"/>
<path fill-rule="evenodd" clip-rule="evenodd" d="M35.035 12.6313C35.0494 12.8825 34.9888 13.1165 34.853 13.3335C35.0651 13.5238 35.3077 13.67 35.581 13.7724C35.3876 13.981 35.1448 14.0688 34.853 14.0357C34.8099 14.2624 34.8705 14.4379 35.035 14.5624C34.6841 14.9089 34.2595 15.1722 33.761 15.3523C34.144 15.7109 34.3563 16.1497 34.398 16.6689C35.1226 17.1628 35.7596 17.748 36.309 18.4244C36.0349 18.7581 35.7315 19.0507 35.399 19.3021C34.5165 19.8881 33.6065 20.4439 32.669 20.9698C31.7374 21.3392 30.8274 21.31 29.939 20.8821C29.5244 21.1845 29.0694 21.4185 28.574 21.5842C27.9414 22.3122 27.3044 23.0436 26.663 23.7786C25.869 24.3361 25.0804 24.8921 24.297 25.4463C23.8238 25.3223 23.3992 25.4687 23.023 25.8851C23.2331 26.0456 23.2027 26.1918 22.932 26.324C22.5575 26.2171 22.4059 26.0415 22.477 25.7974C22.2319 25.7881 21.9893 25.7881 21.749 25.7974C22.5393 24.6523 23.5707 23.7452 24.843 23.0764C25.8435 22.2889 26.6323 21.3525 27.209 20.2676C28.1356 19.8649 29.076 19.4845 30.03 19.1266C30.685 19.4506 31.3826 19.5384 32.123 19.3899C32.5973 19.2509 32.9613 18.9875 33.215 18.5999C33.6054 18.5267 33.7268 18.3512 33.579 18.0733C32.977 17.9162 32.3704 17.7698 31.759 17.6344C32.1485 17.4636 32.4519 17.2003 32.669 16.8445C31.8873 16.6407 31.0985 16.6114 30.303 16.7567C27.9769 17.698 25.6717 18.6342 23.387 19.5654C23.7039 19.2811 24.0377 19.0177 24.388 18.7755C24.5191 18.4925 24.4889 18.2292 24.297 17.9855C25.2957 16.977 26.5091 16.3333 27.937 16.0545C28.1995 15.9884 28.3815 15.8421 28.483 15.6156C29.3524 15.1663 30.2018 14.6689 31.031 14.1235C32.5695 14.0881 33.9041 13.5907 35.035 12.6313Z" fill="#900D09"/>
<path fill-rule="evenodd" clip-rule="evenodd" d="M61.6069 11.4025C66.2044 13.0874 69.6624 16.0132 71.9809 20.1798C73.5703 23.4092 74.1769 26.803 73.8009 30.3615C72.8766 36.3953 69.7219 40.9595 64.3369 44.0542C56.0428 47.8587 48.5808 46.7467 41.9509 40.7188C42.5996 40.2059 43.1456 39.5915 43.5889 38.8756C44.9807 38.9005 46.3759 38.9298 47.7749 38.9633C47.2895 39.0804 46.8043 39.1973 46.3189 39.3144C46.8993 39.4314 47.5061 39.5484 48.1389 39.6655C48.253 39.8265 48.3138 40.0021 48.3209 40.1922C47.9569 40.3093 47.5929 40.4262 47.2289 40.5433C47.1301 40.5538 47.0695 40.6123 47.0469 40.7188C47.6535 40.8359 48.2603 40.9528 48.8669 41.0699C49.0027 41.2869 49.0633 41.5211 49.0489 41.7721C48.6078 41.718 48.1832 41.7767 47.7749 41.9476C48.3728 42.0923 48.9794 42.1801 49.5949 42.211C49.7163 42.3865 49.8375 42.5621 49.9589 42.7376C49.4628 42.7696 48.9774 42.8573 48.5029 43.0009C49.1008 43.1456 49.7074 43.2333 50.3229 43.2642C50.5049 43.4398 50.6869 43.6153 50.8689 43.7909C50.3728 43.8228 49.8874 43.9106 49.4129 44.0542C50.0721 44.199 50.7395 44.2868 51.4149 44.3175C51.5969 44.4931 51.7789 44.6686 51.9609 44.8442C51.4755 44.9026 50.9903 44.9613 50.5049 45.0197C50.5655 45.0782 50.6263 45.1368 50.6869 45.1953C51.6375 45.2109 52.5475 45.3571 53.4169 45.6341C53.6595 45.8681 53.9023 45.8681 54.1449 45.6341C60.492 45.9369 65.6486 43.7135 69.6149 38.9633C70.0011 37.9982 70.4865 37.0618 71.0709 36.1546C71.2023 36.228 71.2933 36.3449 71.3439 36.5057C73.9944 31.3039 74.1156 26.0375 71.7079 20.7065C71.2962 19.9692 70.8412 19.267 70.3429 18.5999C70.0128 17.5782 69.3456 16.8174 68.3409 16.3178C68.4206 16.3293 68.4814 16.3 68.5229 16.23C64.5366 12.4031 59.744 10.6769 54.1449 11.0514C53.7676 11.1974 53.3429 11.1974 52.8709 11.0514C53.0622 10.9246 53.1836 10.749 53.2349 10.5247C56.0827 10.2253 58.8735 10.5178 61.6069 11.4025Z" fill="#E4DDDD"/>
<path fill-rule="evenodd" clip-rule="evenodd" d="M59.0589 17.5466C59.5219 18.7284 60.2499 19.7524 61.2429 20.6187C61.8604 20.9831 62.5278 21.1878 63.2449 21.2331C63.317 21.6797 63.1956 22.0601 62.8809 22.3742C61.1643 22.5938 59.9813 21.9207 59.3319 20.3554C59.1006 19.4331 59.0096 18.4969 59.0589 17.5466Z" fill="#F7F6F6"/>
<path fill-rule="evenodd" clip-rule="evenodd" d="M58.331 18.9512C58.3916 19.3021 58.4524 19.6531 58.513 20.004C58.3381 20.3137 58.2774 20.6647 58.331 21.0569C58.2096 20.5304 58.0884 20.004 57.967 19.4776C58.0457 19.2653 58.1671 19.0898 58.331 18.9512Z" fill="#731F22"/>
<path fill-rule="evenodd" clip-rule="evenodd" d="M61.6069 8.41821C61.9012 8.51266 62.2046 8.57117 62.5169 8.59376C62.4734 8.9391 62.534 9.26093 62.6989 9.55927C70.5502 13.4226 75.0394 19.596 76.1669 28.0795C76.1387 30.0584 75.7139 31.931 74.8929 33.697C74.7404 33.6369 74.6796 33.52 74.7109 33.3459C74.9503 32.5392 75.1323 31.7201 75.2569 30.8882C76.0763 26.6774 75.2269 22.8153 72.7089 19.3021C71.9968 18.0564 71.2384 16.8276 70.4339 15.6156C68.1509 13.2357 65.5119 11.334 62.5169 9.91036C62.2971 9.35674 61.9937 8.85936 61.6069 8.41821Z" fill="#F7E22A"/>
<path fill-rule="evenodd" clip-rule="evenodd" d="M28.119 15.6157C28.2403 15.6157 28.3616 15.6157 28.483 15.6157C28.3814 15.8422 28.1994 15.9884 27.937 16.0546C26.509 16.3334 25.2956 16.9771 24.297 17.9856C24.4888 18.2293 24.519 18.4926 24.388 18.7756C24.0376 19.0178 23.7038 19.2811 23.387 19.5655C25.6716 18.6343 27.9768 17.698 30.303 16.7568C31.0985 16.6115 31.8873 16.6408 32.669 16.8446C32.4518 17.2003 32.1484 17.4637 31.759 17.6345C32.3703 17.7699 32.9769 17.9163 33.579 18.0734C33.7267 18.3513 33.6053 18.5268 33.215 18.6C33.2306 18.4252 33.1698 18.2789 33.033 18.1612C32.3576 18.1304 31.6902 18.0427 31.031 17.8978C31.3269 17.6362 31.6301 17.3729 31.941 17.1079C31.1999 16.9923 30.4719 17.0509 29.757 17.2834C26.151 18.4366 22.9356 20.2214 20.111 22.6376C20.0503 22.5791 19.9896 22.5205 19.929 22.4621C21.0259 21.0529 22.2999 19.8241 23.751 18.7756C23.1225 18.6037 23.0619 18.3404 23.569 17.9856C24.297 17.459 25.025 16.9323 25.753 16.4057C26.525 16.0875 27.3136 15.8241 28.119 15.6157Z" fill="#F9CE2A"/>
<path fill-rule="evenodd" clip-rule="evenodd" d="M39.585 19.6533C40.1051 19.7702 40.6511 19.8873 41.223 20.0044C41.3098 20.1761 41.431 20.3223 41.587 20.4433C41.0656 20.4754 40.5804 20.5632 40.131 20.7066C40.0322 20.7171 39.9716 20.7756 39.949 20.8821C40.6055 21.0558 41.2729 21.1144 41.951 21.0577C42.0471 21.272 42.1685 21.4767 42.315 21.6721C41.8189 21.7041 41.3335 21.7918 40.859 21.9354C41.4656 22.0525 42.0724 22.1694 42.679 22.2865C42.7773 22.5056 42.8987 22.7105 43.043 22.9009C42.5469 22.9329 42.0615 23.0207 41.587 23.1643C42.1818 23.3375 42.7886 23.396 43.407 23.3398C43.3948 23.5959 43.4554 23.8299 43.589 24.042C43.5029 24.2888 43.3209 24.4059 43.043 24.3931C42.7176 24.3431 42.4142 24.4015 42.133 24.5686C42.1556 24.6752 42.2162 24.7336 42.315 24.7442C41.4685 25.5958 40.4979 26.3273 39.403 26.9385C38.7261 27.3535 37.9981 27.6168 37.219 27.7285C37.3489 24.839 38.1375 22.1473 39.585 19.6533Z" fill="#DCDADA"/>
<path fill-rule="evenodd" clip-rule="evenodd" d="M40.131 20.7065C40.7376 20.8238 41.3444 20.941 41.951 21.0582C41.2728 21.1151 40.6054 21.0563 39.949 20.8824C39.9715 20.7757 40.0321 20.7171 40.131 20.7065Z" fill="#E18689"/>
<path fill-rule="evenodd" clip-rule="evenodd" d="M43.771 23.691C43.8023 23.8651 43.7415 23.9821 43.589 24.0421C43.4554 23.83 43.3948 23.596 43.407 23.3399C42.7885 23.3961 42.1817 23.3376 41.587 23.1644C42.0614 23.0208 42.5468 22.933 43.043 22.901C42.8986 22.7106 42.7772 22.5057 42.679 22.2866C42.0724 22.1695 41.4656 22.0526 40.859 21.9355C41.3334 21.7919 41.8188 21.7042 42.315 21.6722C42.1685 21.4768 42.0471 21.2721 41.951 21.0578C41.3444 20.9407 40.7376 20.8238 40.131 20.7067C40.5803 20.5633 41.0655 20.4755 41.587 20.4434C41.431 20.3224 41.3098 20.1762 41.223 20.0045C40.6511 19.8874 40.1051 19.7703 39.585 19.6534C39.9251 19.5367 40.2891 19.4198 40.677 19.3023C40.1805 18.2267 40.3019 18.1681 41.041 19.1268C41.314 18.7172 41.587 18.3075 41.86 17.8979C41.8247 18.4404 41.673 18.967 41.405 19.4779C41.4465 19.8109 41.6285 20.0449 41.951 20.1801C42.224 19.7705 42.497 19.3608 42.77 18.9512C42.7084 19.5153 42.5568 20.071 42.315 20.6189C42.3414 20.8341 42.402 21.039 42.497 21.2333C42.5883 21.4126 42.7095 21.4419 42.861 21.3211C43.0661 21.0134 43.2481 20.6914 43.407 20.3556C43.5284 20.1216 43.6496 20.1216 43.771 20.3556C43.4778 20.8624 43.2352 21.3891 43.043 21.9355C43.0983 22.2763 43.2499 22.5687 43.498 22.8133C43.7249 22.3166 43.9979 21.8486 44.317 21.4089C44.3776 21.4967 44.4384 21.5844 44.499 21.6722C44.0236 22.2673 43.781 22.9404 43.771 23.691Z" fill="#EA3235"/>
<path fill-rule="evenodd" clip-rule="evenodd" d="M70.343 18.6001C70.8413 19.2672 71.2963 19.9694 71.708 20.7067C74.1156 26.0377 73.9944 31.3041 71.344 36.5059C71.2934 36.3451 71.2024 36.2282 71.071 36.1548C70.7197 36.3765 70.4163 36.6691 70.161 37.0325C70.1004 36.8863 70.0396 36.7399 69.979 36.5937C70.201 35.9322 70.565 35.3469 71.071 34.8382C70.5776 34.8552 70.244 35.1185 70.07 35.6281C69.7993 35.3171 69.7387 34.966 69.888 34.5749C70.3362 34.1783 70.579 33.7101 70.616 33.1705C70.3126 33.5216 70.0094 33.8727 69.706 34.2238C69.5638 34.008 69.4728 33.774 69.433 33.5216C69.6424 33.0011 69.9458 32.5331 70.343 32.1172C70.2516 31.938 70.1304 31.9087 69.979 32.0294C69.7558 32.3165 69.5132 32.5798 69.251 32.8194C69.0844 32.674 68.9632 32.4985 68.887 32.2928C69.241 31.7849 69.5442 31.2583 69.797 30.7128C70.2345 30.0219 70.4773 29.2611 70.525 28.4307C70.1082 25.6892 70.1082 22.9389 70.525 20.18C70.4942 19.6476 70.4336 19.1209 70.343 18.6001Z" fill="#EEECEC"/>
<path fill-rule="evenodd" clip-rule="evenodd" d="M65.7931 21.9353C66.1336 21.9983 66.4066 22.1739 66.6121 22.4619C66.7604 22.8346 66.9424 23.1857 67.1581 23.5152C67.3057 23.2589 67.4575 23.2005 67.6131 23.3397C67.1679 24.472 66.8949 25.6423 66.7941 26.8506C66.5558 26.416 66.2222 26.0649 65.7931 25.7973C66.0963 25.5354 66.2783 25.2136 66.3391 24.8318C65.9545 24.0598 65.5905 23.2698 65.2471 22.4619C65.2775 22.4035 65.3077 22.3449 65.3381 22.2864C65.9638 22.984 66.1156 22.8671 65.7931 21.9353Z" fill="#2A1D1D"/>
<path fill-rule="evenodd" clip-rule="evenodd" d="M63.9729 22.6377C64.4501 23.1215 64.9657 23.5895 65.5199 24.0415C65.6322 24.208 65.602 24.3542 65.4289 24.4802C64.9821 24.7664 64.5271 24.7955 64.0639 24.5679C63.9731 23.9271 63.9429 23.2838 63.9729 22.6377Z" fill="#292020"/>
<path fill-rule="evenodd" clip-rule="evenodd" d="M45.045 22.8132C45.0017 23.1474 44.8197 23.3816 44.499 23.5153C44.5089 23.1411 44.6909 22.9071 45.045 22.8132Z" fill="#DF383D"/>
<path fill-rule="evenodd" clip-rule="evenodd" d="M47.0469 23.5154C47.2064 23.4924 47.3278 23.5508 47.4109 23.6909C46.6092 25.7015 46.4878 27.7496 47.0469 29.8351C47.3909 29.8707 47.6639 29.7538 47.8659 29.484C47.9003 30.318 48.0215 31.1371 48.2299 31.9416C48.5857 31.7743 48.8891 31.5401 49.1399 31.2394C49.16 32.0039 49.3116 32.7354 49.5949 33.4338C49.7163 33.5509 49.8375 33.5509 49.9589 33.4338C50.2398 33.1041 50.5734 32.8408 50.9599 32.6438C50.8762 33.8289 50.8458 34.9991 50.8689 36.1547C46.3044 37.1543 42.3914 36.0426 39.1299 32.8194C38.2137 36.5713 35.9084 39.2045 32.2139 40.719C31.9105 41.4796 31.6073 42.2404 31.3039 43.0011C31.1825 41.9478 31.1825 40.8945 31.3039 39.8412C31.7484 39.3939 32.0516 38.8673 32.2139 38.2613C32.4904 36.8633 32.733 35.4589 32.9419 34.0482C33.5293 30.8534 35.5009 29.1273 38.8569 28.8695C41.7249 27.2545 44.4549 25.4699 47.0469 23.5154Z" fill="#F8F8F8"/>
<path fill-rule="evenodd" clip-rule="evenodd" d="M64.3371 23.5154C64.6119 23.7499 64.9153 23.9547 65.2471 24.1297C64.6236 24.347 64.3203 24.1421 64.3371 23.5154Z" fill="#DFDEDE"/>
<path fill-rule="evenodd" clip-rule="evenodd" d="M35.399 19.3023C35.7386 19.2797 36.1026 19.3966 36.491 19.6534C36.673 19.5363 36.855 19.4194 37.037 19.3023C36.9658 19.5161 37.0872 19.6625 37.401 19.7412C37.3404 19.7996 37.2796 19.8583 37.219 19.9167C37.5418 20.087 37.8754 20.2334 38.22 20.3556C38.4336 20.1723 38.646 19.9968 38.857 19.829C37.7095 21.9791 37.0422 24.2612 36.855 26.6753C36.6788 27.0452 36.618 27.4549 36.673 27.9041C35.4659 27.9596 34.4345 28.3985 33.579 29.2207C32.5869 29.4942 31.7377 29.9915 31.031 30.7129C29.0286 29.9668 27.057 29.1475 25.116 28.2552C25.0463 28.3528 24.9553 28.4113 24.843 28.4308C24.6981 27.4988 24.2129 26.7674 23.387 26.2364C23.7724 26.0523 24.0757 25.7889 24.297 25.4465C25.0803 24.8923 25.8689 24.3363 26.663 23.7788C27.3043 23.0437 27.9413 22.3124 28.574 21.5844C29.0694 21.4187 29.5244 21.1847 29.939 20.8822C30.8273 21.3102 31.7373 21.3394 32.669 20.97C33.6064 20.4441 34.5164 19.8883 35.399 19.3023Z" fill="#C21418"/>
<path fill-rule="evenodd" clip-rule="evenodd" d="M43.0431 24.3931C42.8998 24.6751 42.6572 24.7924 42.3151 24.7448C42.2162 24.7342 42.1556 24.6757 42.1331 24.5689C42.4142 24.4015 42.7176 24.3429 43.0431 24.3931Z" fill="#CF3036"/>
<path fill-rule="evenodd" clip-rule="evenodd" d="M72.709 19.3021C75.2269 22.8153 76.0763 26.6774 75.257 30.8882C75.1097 30.7181 74.9277 30.5719 74.711 30.4493C74.3757 30.4613 74.0723 30.432 73.801 30.3616C74.177 26.8031 73.5704 23.4092 71.981 20.1798C71.995 19.9604 72.1164 19.8142 72.345 19.741C72.128 19.2786 72.2492 19.1322 72.709 19.3021Z" fill="#800D07"/>
<path fill-rule="evenodd" clip-rule="evenodd" d="M46.1369 24.9197C46.3346 24.9407 46.456 25.0578 46.5009 25.2708C46.4081 25.7811 46.2867 26.2786 46.1369 26.7629C44.879 27.2267 43.605 27.5778 42.3149 27.8162C43.6676 26.932 44.9416 25.9665 46.1369 24.9197Z" fill="#272424"/>
<path fill-rule="evenodd" clip-rule="evenodd" d="M33.215 18.6001C32.9613 18.9877 32.5973 19.251 32.123 19.3901C31.3826 19.5386 30.685 19.4508 30.03 19.1267C29.076 19.4847 28.1356 19.8651 27.209 20.2678C26.6322 21.3527 25.8435 22.289 24.843 23.0765C23.5706 23.7454 22.5392 24.6524 21.749 25.7975C20.9391 26.456 20.1505 27.1582 19.383 27.9041C19.4134 27.9625 19.4436 28.0212 19.474 28.0796C20.6139 27.154 21.7667 27.154 22.932 28.0796C22.9686 28.6089 22.908 29.1355 22.75 29.6596C22.1368 30.2805 21.4998 30.8657 20.839 31.415C20.985 30.607 21.44 30.0219 22.204 29.6596C22.3392 29.1742 22.4606 28.7062 22.568 28.2552C21.8835 27.8009 21.1253 27.6546 20.293 27.8163C19.7121 28.2889 19.1055 28.7277 18.473 29.1329C18.2759 28.9811 18.2457 28.8055 18.382 28.6063C19.7204 27.2479 21.0248 25.8728 22.295 24.4809C23.478 23.5739 24.661 22.667 25.844 21.7599C26.1243 21.072 26.5187 20.4576 27.027 19.9167C27.8848 19.7078 28.6736 19.3567 29.393 18.8634C29.6964 18.7463 29.9996 18.7463 30.303 18.8634C30.6694 19.0841 31.0636 19.2305 31.486 19.3023C32.101 19.1367 32.6774 18.9027 33.215 18.6001Z" fill="#F8C32B"/>
<path fill-rule="evenodd" clip-rule="evenodd" d="M67.2491 27.7285C67.8572 28.0795 68.5244 28.2549 69.2511 28.2549C69.1958 29.3652 68.5892 29.8623 67.4311 29.7465C67.086 29.4292 66.995 29.049 67.1581 28.6059C67.4316 29.3708 67.826 29.4585 68.3411 28.8691C67.8117 28.6224 67.4477 28.2423 67.2491 27.7285Z" fill="#EDEDED"/>
<path fill-rule="evenodd" clip-rule="evenodd" d="M31.0311 30.7128C29.9256 32.4345 28.864 34.19 27.8461 35.9792C27.0886 36.3505 26.2696 36.526 25.3891 36.5058C25.1752 36.5443 24.9932 36.4858 24.8431 36.3303C25.9181 34.9974 25.7967 33.7978 24.4791 32.7316C24.1433 32.5336 23.7793 32.4458 23.3871 32.4683C23.3561 32.2362 23.4167 32.0313 23.5691 31.8538C23.3265 31.8538 23.0837 31.8538 22.8411 31.8538C24.2082 31.0461 24.8755 29.9051 24.8431 28.4307C24.9554 28.4112 25.0464 28.3527 25.1161 28.2551C27.0571 29.1474 29.0287 29.9667 31.0311 30.7128Z" fill="#B71115"/>
<path fill-rule="evenodd" clip-rule="evenodd" d="M37.5831 31.9417C38.363 35.1521 37.2104 37.5804 34.1251 39.2268C33.9431 39.3439 33.7611 39.3439 33.5791 39.2268C35.6062 37.1598 36.941 34.7314 37.5831 31.9417Z" fill="#2A2726"/>
<path fill-rule="evenodd" clip-rule="evenodd" d="M40.313 32.8193C40.3239 32.724 40.3845 32.6656 40.495 32.6438C43.6627 34.1749 46.9995 34.6431 50.505 34.0482C50.505 34.6919 50.505 35.3355 50.505 35.9792C46.5853 36.4263 43.188 35.373 40.313 32.8193Z" fill="#252121"/>
<path fill-rule="evenodd" clip-rule="evenodd" d="M67.9769 31.2395C68.073 31.4538 68.1944 31.6585 68.3409 31.8539C66.2153 32.0612 66.2759 32.2368 68.5229 32.3806C68.6443 32.6146 68.7655 32.8487 68.8869 33.0827C68.3313 33.1142 67.7853 33.2019 67.2489 33.3461C67.8555 33.4632 68.4623 33.5801 69.0689 33.6972C69.2162 33.9729 69.2769 34.2656 69.2509 34.5749C68.672 34.5324 68.126 34.5324 67.6129 34.5749C67.7085 34.6964 67.8299 34.7841 67.9769 34.8382C68.4585 34.9255 68.9439 34.9548 69.4329 34.926C69.4935 35.2771 69.5543 35.6282 69.6149 35.9793C67.2333 35.9665 67.2333 36.142 69.6149 36.5059C69.7693 36.841 69.83 37.1921 69.7969 37.5592C69.1732 37.4756 68.5666 37.4756 67.9769 37.5592C68.5031 37.766 69.0491 37.8831 69.6149 37.9103C69.6149 38.1443 69.6149 38.3785 69.6149 38.6125C68.3349 38.6119 67.0609 38.5242 65.7929 38.3492C65.6561 38.2314 65.5953 38.0851 65.6109 37.9103C66.0361 36.5047 66.4607 35.1003 66.8849 33.6972C66.9301 32.5716 66.3841 31.928 65.2469 31.7661C65.2198 31.5815 65.25 31.4059 65.3379 31.2395C65.685 31.4905 66.0794 31.6074 66.5209 31.5906C67.0371 31.5544 67.5223 31.4373 67.9769 31.2395Z" fill="#EAE4E4"/>
<path fill-rule="evenodd" clip-rule="evenodd" d="M69.797 30.7126C69.5442 31.2581 69.241 31.7847 68.887 32.2926C68.9632 32.4983 69.0845 32.6739 69.251 32.8192C69.5132 32.5796 69.7559 32.3163 69.979 32.0292C70.1304 31.9085 70.2516 31.9378 70.343 32.117C69.9459 32.5329 69.6425 33.0009 69.433 33.5214C69.4728 33.7738 69.5638 34.0078 69.706 34.2236C70.0094 33.8725 70.3126 33.5214 70.616 33.1703C70.579 33.7099 70.3363 34.1781 69.888 34.5747C69.7387 34.9658 69.7994 35.3169 70.07 35.628C70.244 35.1183 70.5776 34.855 71.071 34.838C70.565 35.3467 70.201 35.932 69.979 36.5935C70.0396 36.7397 70.1004 36.8861 70.161 37.0323C70.4163 36.669 70.7197 36.3763 71.071 36.1546C70.4866 37.0618 70.0012 37.9982 69.615 38.9634C69.615 38.8463 69.615 38.7293 69.615 38.6123C69.615 38.3783 69.615 38.1441 69.615 37.9101C69.0491 37.8829 68.5031 37.7658 67.977 37.559C68.5667 37.4754 69.1733 37.4754 69.797 37.559C69.8301 37.1919 69.7693 36.8408 69.615 36.5057C67.2333 36.1418 67.2333 35.9662 69.615 35.9791C69.5544 35.628 69.4936 35.2769 69.433 34.9258C68.944 34.9546 68.4586 34.9252 67.977 34.838C67.8299 34.7839 67.7085 34.6962 67.613 34.5747C68.126 34.5322 68.672 34.5322 69.251 34.5747C69.277 34.2654 69.2162 33.9727 69.069 33.6969C68.4624 33.5799 67.8556 33.4629 67.249 33.3459C67.7853 33.2017 68.3313 33.114 68.887 33.0825C68.7656 32.8485 68.6444 32.6143 68.523 32.3803C66.276 32.2366 66.2154 32.061 68.341 31.8537C68.1945 31.6583 68.0731 31.4536 67.977 31.2393C68.0492 31.0594 68.1704 31.03 68.341 31.1515C68.4405 31.3139 68.5618 31.4601 68.705 31.5904C69.0344 31.2338 69.3984 30.9412 69.797 30.7126Z" fill="#EB2A2F"/>
<path fill-rule="evenodd" clip-rule="evenodd" d="M20.839 31.415C20.8685 31.7709 20.8381 32.122 20.748 32.4683C19.676 33.833 19.0086 35.3545 18.746 37.0325C19.154 36.0084 19.8214 35.1891 20.748 34.5749C21.0621 34.7638 21.3957 34.7931 21.749 34.6627C22.3048 34.046 22.972 33.8996 23.751 34.2238C23.7796 34.4648 23.7492 34.699 23.66 34.926C22.5141 35.9675 21.9681 37.2548 22.022 38.788C20.5372 41.1256 19.2936 43.5832 18.291 46.161C18.1697 46.2194 18.0483 46.2781 17.927 46.3365C18.8765 43.6854 20.1203 41.1693 21.658 38.788C21.6178 37.3987 22.103 36.2284 23.114 35.2771C23.2976 35.0094 23.3886 34.7167 23.387 34.3993C22.4952 34.8508 21.5244 35.1142 20.475 35.1893C19.4614 36.2947 18.7032 37.5529 18.2 38.9636C18.0571 37.8841 18.1785 36.8308 18.564 35.8037C19.2347 34.2758 19.9931 32.8129 20.839 31.415Z" fill="#F8B52E"/>
<path fill-rule="evenodd" clip-rule="evenodd" d="M65.6111 37.9102C65.5954 38.085 65.6562 38.2312 65.7931 38.349C67.0611 38.524 68.3351 38.6118 69.6151 38.6123C69.6151 38.7294 69.6151 38.8463 69.6151 38.9634C65.6487 43.7136 60.4921 45.937 54.1451 45.6342C53.9025 45.8682 53.6597 45.8682 53.4171 45.6342C53.2389 45.3454 52.9963 45.1113 52.6891 44.932C52.8554 44.5521 53.0678 44.2011 53.3261 43.8788C53.4624 43.6795 53.4322 43.504 53.2351 43.3521C52.916 43.7919 52.643 44.2599 52.4161 44.7565C52.1094 44.4902 51.8364 44.1975 51.5971 43.8788C51.8397 43.4106 52.0825 42.9426 52.3251 42.4744C52.2645 42.4159 52.2037 42.3573 52.1431 42.2988C51.824 42.7386 51.551 43.2066 51.3241 43.7032C50.7914 43.4276 50.6094 43.0179 50.7781 42.4744C51.0363 42.1521 51.2487 41.801 51.4151 41.4211C51.3237 41.2419 51.2025 41.2125 51.0511 41.3333C50.8312 41.7283 50.5886 42.1087 50.3231 42.4744C49.9689 42.2033 49.8779 41.8522 50.0501 41.4211C50.2164 41.0412 50.4288 40.6901 50.6871 40.3678C50.5957 40.1886 50.4745 40.1593 50.3231 40.28C50.1032 40.675 49.8606 41.0554 49.5951 41.4211C49.3268 41.2568 49.1448 41.0226 49.0491 40.7189C49.3572 40.1245 49.6606 39.5392 49.9591 38.9634C49.883 38.8367 49.7618 38.7489 49.5951 38.7001C50.3316 38.4273 51.0898 38.2226 51.8701 38.0857C53.0815 38.6257 54.3251 39.0939 55.6011 39.4901C55.6011 39.1974 55.6011 38.905 55.6011 38.6123C56.0106 38.5563 56.3746 38.6441 56.6931 38.8757C55.9774 39.8991 55.9774 40.9231 56.6931 41.9477C57.1326 41.8064 57.5574 41.6309 57.9671 41.4211C58.2131 41.5998 58.3951 41.8338 58.5131 42.1233C58.8845 41.9941 59.2485 41.8478 59.6051 41.6844C60.1909 41.0609 60.7065 40.388 61.1521 39.6656C61.189 40.3539 61.28 41.027 61.4251 41.6844C61.9458 41.6993 62.4312 41.5529 62.8811 41.2455C63.5541 41.5431 64.0699 41.3676 64.4281 40.7189C64.845 39.7722 65.2392 38.836 65.6111 37.9102Z" fill="#DAD9D9"/>
<path fill-rule="evenodd" clip-rule="evenodd" d="M24.297 25.4464C24.0757 25.7889 23.7725 26.0522 23.387 26.2364C24.2129 26.7674 24.6981 27.4987 24.843 28.4307C24.8754 29.9051 24.2082 31.0462 22.841 31.8539C23.0836 31.8539 23.3264 31.8539 23.569 31.8539C23.4167 32.0314 23.3561 32.2362 23.387 32.4683C23.7792 32.4458 24.1432 32.5336 24.479 32.7316C25.7967 33.7979 25.9181 34.9974 24.843 36.3303C24.9932 36.4859 25.1752 36.5443 25.389 36.5059C25.389 36.6814 25.389 36.857 25.389 37.0325C24.8026 36.9637 24.2566 37.0515 23.751 37.2958C24.0076 37.3604 24.1896 37.5067 24.297 37.7347C23.9829 38.0381 23.7403 38.3891 23.569 38.788C24.3633 39.5878 25.3339 39.8511 26.481 39.5779C28.6002 38.2352 30.2078 36.4504 31.304 34.2238C31.3419 36.1706 30.8567 37.9847 29.848 39.6657C29.783 41.071 29.8134 42.4753 29.939 43.8788C29.7021 43.6494 29.4594 43.6494 29.211 43.8788C28.9846 43.4884 28.56 43.196 27.937 43.0011C27.8156 43.0596 27.6944 43.1182 27.573 43.1767C27.3466 42.7862 26.922 42.4938 26.299 42.2989C26.1776 42.3574 26.0564 42.416 25.935 42.4745C25.7086 42.0841 25.284 41.7916 24.661 41.5967C24.5396 41.6552 24.4184 41.7138 24.297 41.7723C23.9936 41.5383 23.6904 41.3041 23.387 41.0701C23.165 41.2827 22.9526 41.2827 22.75 41.0701C22.051 42.0669 21.4443 43.1201 20.93 44.2299C20.528 45.3238 20.073 46.3771 19.565 47.3898C19.4826 47.2216 19.3614 47.0752 19.201 46.9509C19.383 46.8925 19.565 46.8338 19.747 46.7754C19.4101 46.6284 19.0765 46.482 18.746 46.3365C18.5935 46.5996 18.4419 46.6581 18.291 46.5121C18.291 46.395 18.291 46.278 18.291 46.161C19.2937 43.5832 20.5373 41.1256 22.022 38.788C21.9681 37.2548 22.5141 35.9675 23.66 34.926C23.7492 34.699 23.7796 34.4648 23.751 34.2238C22.9721 33.8995 22.3048 34.0459 21.749 34.6626C21.3958 34.7931 21.0621 34.7638 20.748 34.5749C19.8215 35.1891 19.1541 36.0084 18.746 37.0325C19.0086 35.3545 19.676 33.833 20.748 32.4683C20.8381 32.1219 20.8685 31.7709 20.839 31.415C21.4999 30.8657 22.1369 30.2805 22.75 29.6596C22.908 29.1355 22.9686 28.6089 22.932 28.0796C21.7667 27.154 20.6139 27.154 19.474 28.0796C19.4436 28.0212 19.4134 27.9625 19.383 27.9041C20.1505 27.1582 20.9391 26.456 21.749 25.7975C21.9893 25.7882 22.2319 25.7882 22.477 25.7975C22.4059 26.0417 22.5575 26.2173 22.932 26.3242C23.2027 26.192 23.233 26.0457 23.023 25.8853C23.3992 25.4689 23.8238 25.3225 24.297 25.4464Z" fill="#AC1213"/>
<path fill-rule="evenodd" clip-rule="evenodd" d="M74.7111 33.3459C74.6798 33.5201 74.7406 33.637 74.8931 33.697C73.6353 37.2627 71.5727 40.3348 68.7051 42.9133C67.8552 43.6728 66.9452 44.3457 65.9751 44.932C65.9751 44.7565 65.9751 44.5809 65.9751 44.4054C70.0768 41.5794 72.9888 37.893 74.7111 33.3459Z" fill="#F7C925"/>
<path fill-rule="evenodd" clip-rule="evenodd" d="M48.5031 38.9634C47.8082 39.229 47.0802 39.346 46.3191 39.3144C46.8045 39.1974 47.2897 39.0805 47.7751 38.9634C48.1426 38.7388 48.3852 38.7388 48.5031 38.9634Z" fill="#D85E61"/>
<path fill-rule="evenodd" clip-rule="evenodd" d="M57.603 39.49C57.9228 39.629 58.1656 39.863 58.331 40.1921C58.1146 40.3551 57.872 40.4136 57.603 40.3676C57.603 40.075 57.603 39.7826 57.603 39.49Z" fill="#D4D3D3"/>
<path fill-rule="evenodd" clip-rule="evenodd" d="M62.3351 39.49C63.0411 39.7245 63.0411 40.0169 62.3351 40.3676C62.2346 40.1038 62.2346 39.8114 62.3351 39.49Z" fill="#DFDFDF"/>
<path fill-rule="evenodd" clip-rule="evenodd" d="M48.321 40.1924C48.4198 40.2029 48.4804 40.2615 48.503 40.3682C48.0948 40.5395 47.6702 40.5983 47.229 40.5441C47.593 40.4268 47.957 40.3097 48.321 40.1924Z" fill="#DA8287"/>
<path fill-rule="evenodd" clip-rule="evenodd" d="M48.5031 38.9635C48.5457 40.4365 48.8795 40.4951 49.5041 39.139C49.6262 39.007 49.7778 38.9484 49.9591 38.9635C49.6606 39.5393 49.3572 40.1246 49.0491 40.719C49.1448 41.0227 49.3268 41.2568 49.5951 41.4212C49.8606 41.0555 50.1032 40.6751 50.3231 40.2801C50.4745 40.1593 50.5957 40.1886 50.6871 40.3679C50.4288 40.6902 50.2164 41.0413 50.0501 41.4212C49.8779 41.8523 49.9689 42.2034 50.3231 42.4744C50.5886 42.1088 50.8312 41.7284 51.0511 41.3334C51.2025 41.2126 51.3237 41.2419 51.4151 41.4212C51.2487 41.801 51.0363 42.1521 50.7781 42.4744C50.6094 43.0179 50.7914 43.4277 51.3241 43.7033C51.551 43.2066 51.824 42.7386 52.1431 42.2989C52.2037 42.3573 52.2645 42.416 52.3251 42.4744C52.0825 42.9426 51.8397 43.4106 51.5971 43.8788C51.8364 44.1976 52.1094 44.4902 52.4161 44.7565C52.643 44.2599 52.916 43.7919 53.2351 43.3522C53.4322 43.504 53.4624 43.6796 53.3261 43.8788C53.0678 44.2011 52.8554 44.5522 52.6891 44.9321C52.9963 45.1113 53.2389 45.3455 53.4171 45.6343C52.5477 45.3573 51.6377 45.211 50.6871 45.1954C50.6265 45.137 50.5657 45.0783 50.5051 45.0199C50.9905 44.9614 51.4757 44.9028 51.9611 44.8443C51.7791 44.6688 51.5971 44.4932 51.4151 44.3177C50.7397 44.287 50.0723 44.1992 49.4131 44.0544C49.8876 43.9108 50.373 43.823 50.8691 43.791C50.6871 43.6155 50.5051 43.4399 50.3231 43.2644C49.7076 43.2335 49.101 43.1457 48.5031 43.0011C48.9776 42.8575 49.463 42.7697 49.9591 42.7378C49.8377 42.5622 49.7165 42.3867 49.5951 42.2111C48.9796 42.1802 48.373 42.0924 47.7751 41.9478C48.1833 41.7768 48.6079 41.7182 49.0491 41.7723C49.0635 41.5212 49.0029 41.287 48.8671 41.0701C48.2605 40.953 47.6537 40.8361 47.0471 40.719C47.0697 40.6124 47.1303 40.554 47.2291 40.5434C47.6703 40.5975 48.0949 40.5389 48.5031 40.3679C48.4805 40.2613 48.4199 40.2029 48.3211 40.1923C48.314 40.0022 48.2532 39.8267 48.1391 39.6657C47.5063 39.5486 46.8995 39.4315 46.3191 39.3146C47.0802 39.3462 47.8082 39.2291 48.5031 38.9635Z" fill="#D92A2E"/>
<path fill-rule="evenodd" clip-rule="evenodd" d="M73.8009 30.3616C74.0723 30.432 74.3757 30.4613 74.7109 30.4493C74.9277 30.5719 75.1097 30.7181 75.2569 30.8882C75.1322 31.7201 74.9502 32.5392 74.7109 33.3459C72.9886 37.8929 70.0766 41.5794 65.9749 44.4053C66.002 44.2206 65.9718 44.0451 65.8839 43.8787C65.4062 43.8968 64.8904 43.9552 64.3369 44.0542C69.7219 40.9595 72.8765 36.3953 73.8009 30.3616Z" fill="#95130E"/>
<path fill-rule="evenodd" clip-rule="evenodd" d="M41.951 40.719C48.5809 46.7469 56.0429 47.8588 64.337 44.0544C64.8905 43.9554 65.4063 43.8969 65.884 43.8788C65.9719 44.0453 66.0021 44.2208 65.975 44.4055C64.6066 45.3292 63.1506 46.1192 61.607 46.7754C61.1007 47.6147 60.3727 48.1997 59.423 48.5308C56.1316 49.3526 52.7949 49.9083 49.413 50.1985C46.7391 50.6616 44.0697 51.1591 41.405 51.6907C40.154 51.9629 38.9406 52.3434 37.765 52.8317C37.5474 52.771 37.5474 52.6832 37.765 52.5684C38.3423 52.2609 38.8883 51.9098 39.403 51.5151C40.131 51.3396 40.859 51.164 41.587 50.9885C41.9319 50.4959 42.3565 50.0862 42.861 49.7597C42.6566 49.5764 42.414 49.4595 42.133 49.4086C40.9302 49.4154 39.717 49.4154 38.493 49.4086C37.1244 49.9995 35.6988 50.3797 34.216 50.5496C33.6884 50.2177 33.112 50.1299 32.487 50.2863C31.9532 50.5094 31.468 50.8021 31.031 51.164C30.6787 51.3068 30.3147 51.3945 29.939 51.4274C29.4786 50.8853 28.9326 50.5926 28.301 50.5496C29.6928 49.994 31.0274 49.321 32.305 48.5308C33.0106 48.4029 33.7084 48.4322 34.398 48.6186C35.4922 48.5496 36.5538 48.3449 37.583 48.0042C37.9277 47.8109 38.0491 47.5769 37.947 47.302C37.7561 47.2156 37.5741 47.2448 37.401 47.3898C36.7722 47.134 36.287 46.8414 35.945 46.512C36.3209 45.1909 36.8062 43.9036 37.401 42.65C38.9746 42.106 40.4912 41.4624 41.951 40.719Z" fill="#AE1113"/>
<path fill-rule="evenodd" clip-rule="evenodd" d="M29.9389 43.8788C29.965 44.1881 29.9042 44.4808 29.7569 44.7566C29.103 44.8313 28.7086 45.1824 28.5739 45.8098C28.2735 48.7253 29.1531 49.1935 31.2129 47.2142C31.955 45.506 32.5313 43.7505 32.9419 41.9478C33.4184 41.5577 33.934 41.2944 34.4889 41.1578C34.341 42.2847 34.25 43.4257 34.2159 44.581C34.1599 44.7228 34.0689 44.8399 33.9429 44.9321C33.6898 44.7311 33.4472 44.7311 33.2149 44.9321C31.9479 47.8653 32.7366 48.5675 35.5809 47.0387C35.704 46.8452 35.8252 46.6697 35.9449 46.512C36.2869 46.8413 36.7721 47.134 37.4009 47.3898C37.574 47.2448 37.756 47.2156 37.9469 47.302C38.049 47.5769 37.9276 47.8109 37.5829 48.0042C36.5537 48.3449 35.4921 48.5496 34.3979 48.6186C33.7083 48.4322 33.0106 48.4028 32.3049 48.5308C31.0273 49.3209 29.6927 49.994 28.3009 50.5496C27.639 50.8105 27.0324 51.1616 26.4809 51.6029C26.3275 51.3092 26.0849 51.1043 25.7529 50.9885C25.7529 50.8129 25.7529 50.6374 25.7529 50.4618C25.2603 50.0087 24.7749 49.9794 24.2969 50.3741C24.3681 50.1602 24.2467 50.0138 23.9329 49.9352C23.9935 49.8767 24.0543 49.8181 24.1149 49.7596C23.6223 49.3066 23.1369 49.2772 22.6589 49.6719C22.7301 49.4581 22.6087 49.3116 22.2949 49.233C22.3555 49.1745 22.4163 49.1159 22.4769 49.0575C21.9843 48.6044 21.4989 48.575 21.0209 48.9697C21.0921 48.7559 20.9707 48.6095 20.6569 48.5308C20.7175 48.4724 20.7783 48.4137 20.8389 48.3553C20.4094 48.1481 19.9848 47.9433 19.5649 47.7409C19.5649 47.6238 19.5649 47.5068 19.5649 47.3898C20.0729 46.377 20.5279 45.3237 20.9299 44.2299C21.4443 43.1201 22.0509 42.0668 22.7499 41.0701C22.9525 41.2827 23.1649 41.2827 23.3869 41.0701C23.6903 41.3041 23.9935 41.5383 24.2969 41.7723C24.4183 41.7138 24.5395 41.6552 24.6609 41.5967C25.2839 41.7916 25.7085 42.084 25.9349 42.4744C26.0563 42.416 26.1775 42.3574 26.2989 42.2989C26.9219 42.4938 27.3465 42.7862 27.5729 43.1766C27.6943 43.1182 27.8155 43.0595 27.9369 43.0011C28.5599 43.1959 28.9845 43.4884 29.2109 43.8788C29.4594 43.6494 29.702 43.6494 29.9389 43.8788Z" fill="#A20E10"/>
<path fill-rule="evenodd" clip-rule="evenodd" d="M54.145 45.6342C53.9856 45.6572 53.8642 45.5988 53.781 45.4587C54.7165 43.8447 54.8379 43.9032 54.145 45.6342Z" fill="#D91925"/>
<path fill-rule="evenodd" clip-rule="evenodd" d="M19.5649 47.7407C19.9848 47.9431 20.4094 48.148 20.8389 48.3551C20.7783 48.4136 20.7175 48.4722 20.6569 48.5307C20.9707 48.6093 21.0921 48.7557 21.0209 48.9696C21.4989 48.5749 21.9843 48.6042 22.4769 49.0573C22.4163 49.1158 22.3555 49.1744 22.2949 49.2329C22.6087 49.3115 22.7301 49.4579 22.6589 49.6717C23.1369 49.2771 23.6223 49.3064 24.1149 49.7595C24.0543 49.818 23.9935 49.8766 23.9329 49.9351C24.2467 50.0137 24.3681 50.1601 24.2969 50.3739C24.7749 49.9793 25.2603 50.0086 25.7529 50.4617C25.7529 50.6372 25.7529 50.8128 25.7529 50.9883C26.0849 51.1042 26.3275 51.3091 26.4809 51.6028C25.9111 52.0643 25.3651 52.5616 24.8429 53.0949C22.5359 53.7988 20.9281 55.2324 20.0199 57.3958C18.9765 58.3009 18.6125 58.0083 18.9279 56.5181C19.56 55.0647 20.288 53.6603 21.1119 52.3049C21.2568 51.558 21.2264 50.8267 21.0209 50.1106C20.4089 49.7283 19.7417 49.4649 19.0189 49.3206C19.1736 48.7812 19.3556 48.2545 19.5649 47.7407Z" fill="#99090C"/>
<path fill-rule="evenodd" clip-rule="evenodd" d="M49.4131 50.1984C48.9626 50.3092 48.5378 50.4847 48.1391 50.725C44.9615 51.2972 41.8069 51.97 38.6751 52.7438C36.8826 53.392 35.3052 54.3575 33.9431 55.6404C34.6027 54.5599 35.5127 53.5944 36.6731 52.7438C37.8093 52.1754 38.9013 51.5317 39.9491 50.8128C40.9244 51.1034 41.6524 50.8109 42.1331 49.9351C40.7377 49.818 39.3425 49.818 37.9471 49.9351C37.6339 50.2031 37.2699 50.3787 36.8551 50.4617C35.8574 50.4733 34.8866 50.6195 33.9431 50.9006C33.0347 50.3641 32.2461 50.5105 31.5771 51.3395C30.8003 51.4332 30.0723 51.6672 29.3931 52.0417C28.4538 52.6852 27.5438 53.3581 26.6631 54.0604C26.6631 53.9434 26.6631 53.8264 26.6631 53.7093C27.6328 52.7747 28.7248 52.0139 29.9391 51.4272C30.3147 51.3944 30.6787 51.3066 31.0311 51.1639C31.4681 50.8019 31.9533 50.5093 32.4871 50.2862C33.1121 50.1298 33.6885 50.2175 34.2161 50.5495C35.6988 50.3796 37.1244 49.9993 38.4931 49.4084C39.717 49.4153 40.9302 49.4153 42.1331 49.4084C42.4141 49.4594 42.6567 49.5763 42.8611 49.7595C42.3566 50.0861 41.932 50.4958 41.5871 50.9884C40.8591 51.1639 40.1311 51.3395 39.4031 51.515C38.8884 51.9096 38.3424 52.2607 37.7651 52.5683C37.5474 52.6831 37.5474 52.7709 37.7651 52.8316C38.9406 52.3432 40.154 51.9628 41.4051 51.6906C44.0697 51.159 46.7391 50.6615 49.4131 50.1984Z" fill="#F7AA29"/>
<path fill-rule="evenodd" clip-rule="evenodd" d="M65.9749 44.4055C65.9749 44.5811 65.9749 44.7566 65.9749 44.9322C64.8858 45.6335 63.733 46.2479 62.5169 46.7754C61.7198 47.486 60.8705 48.1297 59.9689 48.7064C56.094 49.7462 52.1506 50.4191 48.1389 50.7252C48.5377 50.4849 48.9625 50.3093 49.4129 50.1986C52.7948 49.9084 56.1314 49.3526 59.4229 48.5309C60.3726 48.1998 61.1006 47.6147 61.6069 46.7754C63.1505 46.1192 64.6065 45.3292 65.9749 44.4055Z" fill="#F7B726"/>
<path fill-rule="evenodd" clip-rule="evenodd" d="M45.409 52.6562C45.3934 52.4814 45.4541 52.3351 45.591 52.2173C45.306 52.083 45.0634 52.1124 44.863 52.3051C44.8024 52.3051 44.7416 52.3051 44.681 52.3051C44.552 52.1464 44.37 52.088 44.135 52.1296C45.901 51.6317 47.721 51.3684 49.595 51.3396C48.1785 51.7267 46.7833 52.1655 45.409 52.6562Z" fill="#FDE929"/>
<path fill-rule="evenodd" clip-rule="evenodd" d="M18.291 46.1609C18.291 46.278 18.291 46.3949 18.291 46.512C17.1954 48.9819 16.4371 51.5565 16.016 54.236C16.3724 53.3425 16.8881 52.5526 17.563 51.8662C18.1834 51.7326 18.7294 51.4693 19.201 51.0762C19.423 51.1441 19.5444 51.2904 19.565 51.5151C18.7848 52.9323 18.0265 54.3659 17.29 55.816C17.2293 56.5766 17.1687 57.3374 17.108 58.0981C16.9088 58.3751 16.7571 58.6677 16.653 58.9758C16.0494 60.5538 15.7764 62.1924 15.834 63.8911C15.1575 66.5817 14.5812 69.2734 14.105 71.9663C13.8872 72.9558 13.7052 73.9507 13.559 74.9506C13.3704 73.1198 13.6434 71.3643 14.378 69.6842C14.861 66.8842 15.2857 64.0754 15.652 61.2579C15.8485 60.1478 16.2125 59.0945 16.744 58.0981C16.8047 57.2788 16.8653 56.4597 16.926 55.6404C17.6383 54.3245 18.3966 53.0372 19.201 51.7784C19.1404 51.7199 19.0796 51.6613 19.019 51.6028C18.5387 51.9592 18.0231 52.2518 17.472 52.4806C16.5603 53.771 15.893 55.1754 15.47 56.6937C15.3487 55.7575 15.3487 54.8211 15.47 53.885C16.2055 51.3388 17.0245 48.8227 17.927 46.3364C18.0483 46.278 18.1697 46.2193 18.291 46.1609Z" fill="#F7992E"/>
<path fill-rule="evenodd" clip-rule="evenodd" d="M44.1349 52.1294C44.3699 52.0878 44.5519 52.1463 44.6809 52.3049C42.611 52.6776 40.609 53.2626 38.6749 54.0596C38.5535 54.0596 38.4929 54.0012 38.4929 53.8842C40.2412 52.952 42.1218 52.367 44.1349 52.1294Z" fill="#FACB26"/>
<path fill-rule="evenodd" clip-rule="evenodd" d="M44.6809 52.3049C44.7415 52.3049 44.8023 52.3049 44.8629 52.3049C43.7591 52.8084 42.6671 53.3644 41.5869 53.9726C41.1248 54.3887 40.7002 54.8275 40.3129 55.2892C40.2523 55.2892 40.1915 55.2892 40.1309 55.2892C39.386 55.1344 38.7186 54.8418 38.1289 54.4115C38.3491 54.3357 38.5311 54.2186 38.6749 54.0604C40.609 53.2631 42.611 52.6778 44.6809 52.3049Z" fill="#A2180E"/>
<path fill-rule="evenodd" clip-rule="evenodd" d="M19.5651 47.3897C19.5651 47.5068 19.5651 47.6237 19.5651 47.7408C19.3558 48.2546 19.1738 48.7813 19.0191 49.3207C19.7418 49.465 20.409 49.7283 21.0211 50.1107C21.2266 50.8267 21.257 51.5581 21.1121 52.305C20.2882 53.6604 19.5602 55.0648 18.9281 56.5181C18.6127 58.0084 18.9767 58.301 20.0201 57.3959C20.9283 55.2324 22.5361 53.7989 24.8431 53.095C25.3653 52.5617 25.9113 52.0643 26.4811 51.6028C27.0326 51.1615 27.6392 50.8104 28.3011 50.5496C28.9327 50.5926 29.4787 50.8852 29.9391 51.4273C28.7248 52.014 27.6328 52.7748 26.6631 53.7094C26.0869 54.1191 25.6015 54.6164 25.2071 55.2015C24.7077 55.0276 24.2223 55.0862 23.7511 55.3771C22.6265 56.229 21.8379 57.3116 21.3851 58.6247C20.6367 58.9363 20.1515 59.4629 19.9291 60.2046C19.568 60.1841 19.2648 60.3012 19.0191 60.5557C19.0903 60.3419 18.9689 60.1955 18.6551 60.1169C18.7157 60.0584 18.7765 59.9998 18.8371 59.9413C18.5809 59.886 18.3383 59.9445 18.1091 60.1169C18.1868 60.4904 18.0958 60.8708 17.8361 61.2579C17.7643 60.9632 17.7946 60.6707 17.9271 60.3802C17.8018 60.0549 17.5591 59.8502 17.1991 59.7658C17.1991 59.5902 17.1991 59.4147 17.1991 59.2391C17.0637 59.0567 16.8817 58.969 16.6531 58.9758C16.7573 58.6677 16.9089 58.3751 17.1081 58.0981C17.1688 57.3374 17.2295 56.5766 17.2901 55.816C18.0266 54.3659 18.7849 52.9322 19.5651 51.5151C19.5445 51.2904 19.4232 51.1441 19.2011 51.0762C18.7296 51.4692 18.1835 51.7326 17.5631 51.8662C16.8882 52.5525 16.3725 53.3425 16.0161 54.236C16.4372 51.5565 17.1955 48.9819 18.2911 46.512C18.442 46.658 18.5936 46.5996 18.7461 46.3364C19.0766 46.482 19.4102 46.6284 19.7471 46.7753C19.5651 46.8338 19.3831 46.8924 19.2011 46.9508C19.3615 47.0751 19.4827 47.2215 19.5651 47.3897Z" fill="#C61618"/>
<path fill-rule="evenodd" clip-rule="evenodd" d="M38.4931 53.885C38.4931 54.0021 38.5537 54.0606 38.6751 54.0606C38.5313 54.2187 38.3493 54.3358 38.1291 54.4117C36.6074 55.1156 35.3334 56.1104 34.3071 57.3959C35.1401 55.6166 36.5354 54.4464 38.4931 53.885Z" fill="#F7AB25"/>
<path fill-rule="evenodd" clip-rule="evenodd" d="M45.409 52.6561C43.4789 53.2938 41.7803 54.2887 40.313 55.6404C40.313 55.5233 40.313 55.4064 40.313 55.2893C40.7003 54.8276 41.1249 54.3887 41.587 53.9727C42.6672 53.3644 43.7592 52.8084 44.863 52.305C45.0634 52.1122 45.306 52.0829 45.591 52.2172C45.4541 52.335 45.3933 52.4812 45.409 52.6561Z" fill="#F7C41D"/>
<path fill-rule="evenodd" clip-rule="evenodd" d="M38.129 54.4116C38.7187 54.8419 39.3861 55.1345 40.131 55.2894C39.8376 55.8227 39.4736 56.32 39.039 56.7815C37.4374 57.1305 35.86 57.5694 34.307 58.0981C34.1516 57.8994 34.1516 57.6654 34.307 57.3959C35.3333 56.1104 36.6073 55.1156 38.129 54.4116Z" fill="#C71818"/>
<path fill-rule="evenodd" clip-rule="evenodd" d="M40.1311 55.2893C40.1917 55.2893 40.2525 55.2893 40.3131 55.2893C40.3131 55.4064 40.3131 55.5233 40.3131 55.6404C39.9894 56.5088 39.3826 57.1232 38.4931 57.4836C37.0246 57.5437 35.6292 57.8655 34.3071 58.4492C34.3071 58.3321 34.3071 58.2151 34.3071 58.0981C35.8601 57.5693 37.4375 57.1304 39.0391 56.7815C39.4737 56.3199 39.8377 55.8226 40.1311 55.2893Z" fill="#F79F24"/>
<path fill-rule="evenodd" clip-rule="evenodd" d="M16.653 58.9757C16.8817 58.9689 17.0637 59.0566 17.199 59.239C17.199 59.4146 17.199 59.5901 17.199 59.7657C17.559 59.8501 17.8017 60.0548 17.927 60.3801C17.7945 60.6706 17.7642 60.9631 17.836 61.2578C18.0957 60.8707 18.1867 60.4903 18.109 60.1168C18.3382 59.9444 18.5808 59.8859 18.837 59.9412C18.7764 59.9997 18.7156 60.0583 18.655 60.1168C18.9688 60.1954 19.0902 60.3418 19.019 60.5556C19.2647 60.3011 19.5679 60.184 19.929 60.2045C19.4316 61.7585 19.0374 63.3384 18.746 64.9443C18.2217 64.6761 17.7971 64.793 17.472 65.2954C16.1741 67.5059 15.2338 69.8466 14.651 72.3173C14.463 72.9292 14.3113 73.573 14.196 74.2483C14.1052 73.4898 14.0749 72.7291 14.105 71.9662C14.5812 69.2733 15.1575 66.5816 15.834 63.891C15.7764 62.1923 16.0494 60.5537 16.653 58.9757Z" fill="#D41A1C"/>
<path fill-rule="evenodd" clip-rule="evenodd" d="M34.3071 57.396C34.1516 57.6655 34.1516 57.8995 34.3071 58.0982C34.3071 58.2153 34.3071 58.3322 34.3071 58.4493C32.8123 59.5726 31.1743 60.4212 29.3931 60.9947C31.1743 59.962 32.8123 58.7625 34.3071 57.396Z" fill="#F78A35"/>
<path fill-rule="evenodd" clip-rule="evenodd" d="M26.6629 53.7095C26.6629 53.8266 26.6629 53.9435 26.6629 54.0606C26.2135 54.5247 25.7889 55.022 25.3889 55.5527C25.0473 55.6538 24.7135 55.6245 24.3879 55.4649C23.0402 56.3053 22.1302 57.4755 21.6579 58.9759C21.3832 59.4005 20.989 59.5761 20.4749 59.5025C19.9449 61.3509 19.4899 63.2234 19.1099 65.12C19.0538 65.2619 18.9628 65.379 18.8369 65.4711C18.633 65.2371 18.3904 65.1493 18.1089 65.2078C16.3691 67.5628 15.2771 70.1666 14.8329 73.0196C14.7722 72.7856 14.7115 72.5514 14.6509 72.3174C15.2336 69.8468 16.1739 67.5061 17.4719 65.2956C17.7969 64.7932 18.2215 64.6762 18.7459 64.9445C19.0373 63.3386 19.4315 61.7586 19.9289 60.2047C20.1513 59.463 20.6365 58.9364 21.3849 58.6248C21.8377 57.3117 22.6263 56.2291 23.7509 55.3772C24.2221 55.0863 24.7075 55.0277 25.2069 55.2016C25.6013 54.6165 26.0867 54.1192 26.6629 53.7095Z" fill="#F6932B"/>
<path fill-rule="evenodd" clip-rule="evenodd" d="M14.1049 71.9663C14.0747 72.7292 14.1051 73.4899 14.1959 74.2484C14.3112 73.5731 14.4628 72.9294 14.6509 72.3174C14.7116 72.5514 14.7722 72.7856 14.8329 73.0196C14.7949 73.2692 14.7039 73.5032 14.5599 73.7218C14.5739 77.7613 14.0886 81.7404 13.1039 85.659C12.9187 85.8707 12.8277 85.8122 12.8309 85.4834C13.1403 84.5715 13.3527 83.6353 13.4679 82.6747C13.5589 80.1006 13.5892 77.5259 13.5589 74.9506C13.7051 73.9507 13.8871 72.9559 14.1049 71.9663Z" fill="#F47627"/>
</svg>
